<?xml version="1.0" encoding="utf-8" standalone="no"?>
<!DOCTYPE svg PUBLIC "-//W3C//DTD SVG 1.1//EN"
  "http://www.w3.org/Graphics/SVG/1.1/DTD/svg11.dtd">
<svg xmlns:xlink="http://www.w3.org/1999/xlink" width="362.8625pt" height="144.823062pt" viewBox="0 0 362.8625 144.823062" xmlns="http://www.w3.org/2000/svg" version="1.1">
 <metadata>
  <rdf:RDF xmlns:dc="http://purl.org/dc/elements/1.1/" xmlns:cc="http://creativecommons.org/ns#" xmlns:rdf="http://www.w3.org/1999/02/22-rdf-syntax-ns#">
   <cc:Work>
    <dc:type rdf:resource="http://purl.org/dc/dcmitype/StillImage"/>
    <dc:date>1980-01-01T00:00:00+00:00</dc:date>
    <dc:format>image/svg+xml</dc:format>
    <dc:creator>
     <cc:Agent>
      <dc:title>Matplotlib v3.9.0, https://matplotlib.org/</dc:title>
     </cc:Agent>
    </dc:creator>
   </cc:Work>
  </rdf:RDF>
 </metadata>
 <defs>
  <style type="text/css">*{stroke-linejoin: round; stroke-linecap: butt}</style>
 </defs>
 <g id="figure_1">
  <g id="patch_1">
   <path d="M 0 144.823062 
L 362.8625 144.823062 
L 362.8625 0 
L 0 0 
z
" style="fill: #ffffff"/>
  </g>
  <g id="axes_1">
   <g id="patch_2">
    <path d="M 38.8625 118.157812 
L 189.719643 118.157812 
L 189.719643 17.357813 
L 38.8625 17.357813 
z
" style="fill: #ffffff"/>
   </g>
   <g id="matplotlib.axis_1">
    <g id="xtick_1">
     <g id="text_1">
      <!-- Naively-tuned -->
      <g style="fill: #262626" transform="translate(39.549732 127.384062) scale(0.08 -0.08)">
       <defs>
        <path id="ArialMT-4e" d="M 488 0 
L 488 4581 
L 1109 4581 
L 3516 984 
L 3516 4581 
L 4097 4581 
L 4097 0 
L 3475 0 
L 1069 3600 
L 1069 0 
L 488 0 
z
" transform="scale(0.015625)"/>
        <path id="ArialMT-61" d="M 2588 409 
Q 2275 144 1986 34 
Q 1697 -75 1366 -75 
Q 819 -75 525 192 
Q 231 459 231 875 
Q 231 1119 342 1320 
Q 453 1522 633 1644 
Q 813 1766 1038 1828 
Q 1203 1872 1538 1913 
Q 2219 1994 2541 2106 
Q 2544 2222 2544 2253 
Q 2544 2597 2384 2738 
Q 2169 2928 1744 2928 
Q 1347 2928 1158 2789 
Q 969 2650 878 2297 
L 328 2372 
Q 403 2725 575 2942 
Q 747 3159 1072 3276 
Q 1397 3394 1825 3394 
Q 2250 3394 2515 3294 
Q 2781 3194 2906 3042 
Q 3031 2891 3081 2659 
Q 3109 2516 3109 2141 
L 3109 1391 
Q 3109 606 3145 398 
Q 3181 191 3288 0 
L 2700 0 
Q 2613 175 2588 409 
z
M 2541 1666 
Q 2234 1541 1622 1453 
Q 1275 1403 1131 1340 
Q 988 1278 909 1158 
Q 831 1038 831 891 
Q 831 666 1001 516 
Q 1172 366 1500 366 
Q 1825 366 2078 508 
Q 2331 650 2450 897 
Q 2541 1088 2541 1459 
L 2541 1666 
z
" transform="scale(0.015625)"/>
        <path id="ArialMT-69" d="M 425 3934 
L 425 4581 
L 988 4581 
L 988 3934 
L 425 3934 
z
M 425 0 
L 425 3319 
L 988 3319 
L 988 0 
L 425 0 
z
" transform="scale(0.015625)"/>
        <path id="ArialMT-76" d="M 1344 0 
L 81 3319 
L 675 3319 
L 1388 1331 
Q 1503 1009 1600 663 
Q 1675 925 1809 1294 
L 2547 3319 
L 3125 3319 
L 1869 0 
L 1344 0 
z
" transform="scale(0.015625)"/>
        <path id="ArialMT-65" d="M 2694 1069 
L 3275 997 
Q 3138 488 2766 206 
Q 2394 -75 1816 -75 
Q 1088 -75 661 373 
Q 234 822 234 1631 
Q 234 2469 665 2931 
Q 1097 3394 1784 3394 
Q 2450 3394 2872 2941 
Q 3294 2488 3294 1666 
Q 3294 1616 3291 1516 
L 816 1516 
Q 847 969 1125 678 
Q 1403 388 1819 388 
Q 2128 388 2347 550 
Q 2566 713 2694 1069 
z
M 847 1978 
L 2700 1978 
Q 2663 2397 2488 2606 
Q 2219 2931 1791 2931 
Q 1403 2931 1139 2672 
Q 875 2413 847 1978 
z
" transform="scale(0.015625)"/>
        <path id="ArialMT-6c" d="M 409 0 
L 409 4581 
L 972 4581 
L 972 0 
L 409 0 
z
" transform="scale(0.015625)"/>
        <path id="ArialMT-79" d="M 397 -1278 
L 334 -750 
Q 519 -800 656 -800 
Q 844 -800 956 -737 
Q 1069 -675 1141 -563 
Q 1194 -478 1313 -144 
Q 1328 -97 1363 -6 
L 103 3319 
L 709 3319 
L 1400 1397 
Q 1534 1031 1641 628 
Q 1738 1016 1872 1384 
L 2581 3319 
L 3144 3319 
L 1881 -56 
Q 1678 -603 1566 -809 
Q 1416 -1088 1222 -1217 
Q 1028 -1347 759 -1347 
Q 597 -1347 397 -1278 
z
" transform="scale(0.015625)"/>
        <path id="ArialMT-2d" d="M 203 1375 
L 203 1941 
L 1931 1941 
L 1931 1375 
L 203 1375 
z
" transform="scale(0.015625)"/>
        <path id="ArialMT-74" d="M 1650 503 
L 1731 6 
Q 1494 -44 1306 -44 
Q 1000 -44 831 53 
Q 663 150 594 308 
Q 525 466 525 972 
L 525 2881 
L 113 2881 
L 113 3319 
L 525 3319 
L 525 4141 
L 1084 4478 
L 1084 3319 
L 1650 3319 
L 1650 2881 
L 1084 2881 
L 1084 941 
Q 1084 700 1114 631 
Q 1144 563 1211 522 
Q 1278 481 1403 481 
Q 1497 481 1650 503 
z
" transform="scale(0.015625)"/>
        <path id="ArialMT-75" d="M 2597 0 
L 2597 488 
Q 2209 -75 1544 -75 
Q 1250 -75 995 37 
Q 741 150 617 320 
Q 494 491 444 738 
Q 409 903 409 1263 
L 409 3319 
L 972 3319 
L 972 1478 
Q 972 1038 1006 884 
Q 1059 663 1231 536 
Q 1403 409 1656 409 
Q 1909 409 2131 539 
Q 2353 669 2445 892 
Q 2538 1116 2538 1541 
L 2538 3319 
L 3100 3319 
L 3100 0 
L 2597 0 
z
" transform="scale(0.015625)"/>
        <path id="ArialMT-6e" d="M 422 0 
L 422 3319 
L 928 3319 
L 928 2847 
Q 1294 3394 1984 3394 
Q 2284 3394 2536 3286 
Q 2788 3178 2913 3003 
Q 3038 2828 3088 2588 
Q 3119 2431 3119 2041 
L 3119 0 
L 2556 0 
L 2556 2019 
Q 2556 2363 2490 2533 
Q 2425 2703 2258 2804 
Q 2091 2906 1866 2906 
Q 1506 2906 1245 2678 
Q 984 2450 984 1813 
L 984 0 
L 422 0 
z
" transform="scale(0.015625)"/>
        <path id="ArialMT-64" d="M 2575 0 
L 2575 419 
Q 2259 -75 1647 -75 
Q 1250 -75 917 144 
Q 584 363 401 755 
Q 219 1147 219 1656 
Q 219 2153 384 2558 
Q 550 2963 881 3178 
Q 1213 3394 1622 3394 
Q 1922 3394 2156 3267 
Q 2391 3141 2538 2938 
L 2538 4581 
L 3097 4581 
L 3097 0 
L 2575 0 
z
M 797 1656 
Q 797 1019 1065 703 
Q 1334 388 1700 388 
Q 2069 388 2326 689 
Q 2584 991 2584 1609 
Q 2584 2291 2321 2609 
Q 2059 2928 1675 2928 
Q 1300 2928 1048 2622 
Q 797 2316 797 1656 
z
" transform="scale(0.015625)"/>
       </defs>
       <use xlink:href="#ArialMT-4e"/>
       <use xlink:href="#ArialMT-61" x="72.216797"/>
       <use xlink:href="#ArialMT-69" x="127.832031"/>
       <use xlink:href="#ArialMT-76" x="150.048828"/>
       <use xlink:href="#ArialMT-65" x="200.048828"/>
       <use xlink:href="#ArialMT-6c" x="255.664062"/>
       <use xlink:href="#ArialMT-79" x="277.880859"/>
       <use xlink:href="#ArialMT-2d" x="327.880859"/>
       <use xlink:href="#ArialMT-74" x="361.181641"/>
       <use xlink:href="#ArialMT-75" x="388.964844"/>
       <use xlink:href="#ArialMT-6e" x="444.580078"/>
       <use xlink:href="#ArialMT-65" x="500.195312"/>
       <use xlink:href="#ArialMT-64" x="555.810547"/>
      </g>
      <!-- on target -->
      <g style="fill: #262626" transform="translate(48.217857 135.939312) scale(0.08 -0.08)">
       <defs>
        <path id="ArialMT-6f" d="M 213 1659 
Q 213 2581 725 3025 
Q 1153 3394 1769 3394 
Q 2453 3394 2887 2945 
Q 3322 2497 3322 1706 
Q 3322 1066 3130 698 
Q 2938 331 2570 128 
Q 2203 -75 1769 -75 
Q 1072 -75 642 372 
Q 213 819 213 1659 
z
M 791 1659 
Q 791 1022 1069 705 
Q 1347 388 1769 388 
Q 2188 388 2466 706 
Q 2744 1025 2744 1678 
Q 2744 2294 2464 2611 
Q 2184 2928 1769 2928 
Q 1347 2928 1069 2612 
Q 791 2297 791 1659 
z
" transform="scale(0.015625)"/>
        <path id="ArialMT-20" transform="scale(0.015625)"/>
        <path id="ArialMT-72" d="M 416 0 
L 416 3319 
L 922 3319 
L 922 2816 
Q 1116 3169 1280 3281 
Q 1444 3394 1641 3394 
Q 1925 3394 2219 3213 
L 2025 2691 
Q 1819 2813 1613 2813 
Q 1428 2813 1281 2702 
Q 1134 2591 1072 2394 
Q 978 2094 978 1738 
L 978 0 
L 416 0 
z
" transform="scale(0.015625)"/>
        <path id="ArialMT-67" d="M 319 -275 
L 866 -356 
Q 900 -609 1056 -725 
Q 1266 -881 1628 -881 
Q 2019 -881 2231 -725 
Q 2444 -569 2519 -288 
Q 2563 -116 2559 434 
Q 2191 0 1641 0 
Q 956 0 581 494 
Q 206 988 206 1678 
Q 206 2153 378 2554 
Q 550 2956 876 3175 
Q 1203 3394 1644 3394 
Q 2231 3394 2613 2919 
L 2613 3319 
L 3131 3319 
L 3131 450 
Q 3131 -325 2973 -648 
Q 2816 -972 2473 -1159 
Q 2131 -1347 1631 -1347 
Q 1038 -1347 672 -1080 
Q 306 -813 319 -275 
z
M 784 1719 
Q 784 1066 1043 766 
Q 1303 466 1694 466 
Q 2081 466 2343 764 
Q 2606 1063 2606 1700 
Q 2606 2309 2336 2618 
Q 2066 2928 1684 2928 
Q 1309 2928 1046 2623 
Q 784 2319 784 1719 
z
" transform="scale(0.015625)"/>
       </defs>
       <use xlink:href="#ArialMT-6f"/>
       <use xlink:href="#ArialMT-6e" x="55.615234"/>
       <use xlink:href="#ArialMT-20" x="111.230469"/>
       <use xlink:href="#ArialMT-74" x="139.013672"/>
       <use xlink:href="#ArialMT-61" x="166.796875"/>
       <use xlink:href="#ArialMT-72" x="222.412109"/>
       <use xlink:href="#ArialMT-67" x="255.712891"/>
       <use xlink:href="#ArialMT-65" x="311.328125"/>
       <use xlink:href="#ArialMT-74" x="366.943359"/>
      </g>
     </g>
    </g>
    <g id="xtick_2">
     <g id="text_2">
      <!-- Trained -->
      <g style="fill: #262626" transform="translate(100.879821 127.384062) scale(0.08 -0.08)">
       <defs>
        <path id="ArialMT-54" d="M 1659 0 
L 1659 4041 
L 150 4041 
L 150 4581 
L 3781 4581 
L 3781 4041 
L 2266 4041 
L 2266 0 
L 1659 0 
z
" transform="scale(0.015625)"/>
       </defs>
       <use xlink:href="#ArialMT-54"/>
       <use xlink:href="#ArialMT-72" x="57.333984"/>
       <use xlink:href="#ArialMT-61" x="90.634766"/>
       <use xlink:href="#ArialMT-69" x="146.25"/>
       <use xlink:href="#ArialMT-6e" x="168.466797"/>
       <use xlink:href="#ArialMT-65" x="224.082031"/>
       <use xlink:href="#ArialMT-64" x="279.697266"/>
      </g>
      <!-- on source -->
      <g style="fill: #262626" transform="translate(96.726071 135.845562) scale(0.08 -0.08)">
       <defs>
        <path id="ArialMT-73" d="M 197 991 
L 753 1078 
Q 800 744 1014 566 
Q 1228 388 1613 388 
Q 2000 388 2187 545 
Q 2375 703 2375 916 
Q 2375 1106 2209 1216 
Q 2094 1291 1634 1406 
Q 1016 1563 777 1677 
Q 538 1791 414 1992 
Q 291 2194 291 2438 
Q 291 2659 392 2848 
Q 494 3038 669 3163 
Q 800 3259 1026 3326 
Q 1253 3394 1513 3394 
Q 1903 3394 2198 3281 
Q 2494 3169 2634 2976 
Q 2775 2784 2828 2463 
L 2278 2388 
Q 2241 2644 2061 2787 
Q 1881 2931 1553 2931 
Q 1166 2931 1000 2803 
Q 834 2675 834 2503 
Q 834 2394 903 2306 
Q 972 2216 1119 2156 
Q 1203 2125 1616 2013 
Q 2213 1853 2448 1751 
Q 2684 1650 2818 1456 
Q 2953 1263 2953 975 
Q 2953 694 2789 445 
Q 2625 197 2315 61 
Q 2006 -75 1616 -75 
Q 969 -75 630 194 
Q 291 463 197 991 
z
" transform="scale(0.015625)"/>
        <path id="ArialMT-63" d="M 2588 1216 
L 3141 1144 
Q 3050 572 2676 248 
Q 2303 -75 1759 -75 
Q 1078 -75 664 370 
Q 250 816 250 1647 
Q 250 2184 428 2587 
Q 606 2991 970 3192 
Q 1334 3394 1763 3394 
Q 2303 3394 2647 3120 
Q 2991 2847 3088 2344 
L 2541 2259 
Q 2463 2594 2264 2762 
Q 2066 2931 1784 2931 
Q 1359 2931 1093 2626 
Q 828 2322 828 1663 
Q 828 994 1084 691 
Q 1341 388 1753 388 
Q 2084 388 2306 591 
Q 2528 794 2588 1216 
z
" transform="scale(0.015625)"/>
       </defs>
       <use xlink:href="#ArialMT-6f"/>
       <use xlink:href="#ArialMT-6e" x="55.615234"/>
       <use xlink:href="#ArialMT-20" x="111.230469"/>
       <use xlink:href="#ArialMT-73" x="139.013672"/>
       <use xlink:href="#ArialMT-6f" x="189.013672"/>
       <use xlink:href="#ArialMT-75" x="244.628906"/>
       <use xlink:href="#ArialMT-72" x="300.244141"/>
       <use xlink:href="#ArialMT-63" x="333.544922"/>
       <use xlink:href="#ArialMT-65" x="383.544922"/>
      </g>
     </g>
    </g>
    <g id="xtick_3">
     <g id="text_3">
      <!-- Anchor-tuned -->
      <g style="fill: #262626" transform="translate(140.563036 127.384062) scale(0.08 -0.08)">
       <defs>
        <path id="ArialMT-41" d="M -9 0 
L 1750 4581 
L 2403 4581 
L 4278 0 
L 3588 0 
L 3053 1388 
L 1138 1388 
L 634 0 
L -9 0 
z
M 1313 1881 
L 2866 1881 
L 2388 3150 
Q 2169 3728 2063 4100 
Q 1975 3659 1816 3225 
L 1313 1881 
z
" transform="scale(0.015625)"/>
        <path id="ArialMT-68" d="M 422 0 
L 422 4581 
L 984 4581 
L 984 2938 
Q 1378 3394 1978 3394 
Q 2347 3394 2619 3248 
Q 2891 3103 3008 2847 
Q 3125 2591 3125 2103 
L 3125 0 
L 2563 0 
L 2563 2103 
Q 2563 2525 2380 2717 
Q 2197 2909 1863 2909 
Q 1613 2909 1392 2779 
Q 1172 2650 1078 2428 
Q 984 2206 984 1816 
L 984 0 
L 422 0 
z
" transform="scale(0.015625)"/>
       </defs>
       <use xlink:href="#ArialMT-41"/>
       <use xlink:href="#ArialMT-6e" x="66.699219"/>
       <use xlink:href="#ArialMT-63" x="122.314453"/>
       <use xlink:href="#ArialMT-68" x="172.314453"/>
       <use xlink:href="#ArialMT-6f" x="227.929688"/>
       <use xlink:href="#ArialMT-72" x="283.544922"/>
       <use xlink:href="#ArialMT-2d" x="316.845703"/>
       <use xlink:href="#ArialMT-74" x="350.146484"/>
       <use xlink:href="#ArialMT-75" x="377.929688"/>
       <use xlink:href="#ArialMT-6e" x="433.544922"/>
       <use xlink:href="#ArialMT-65" x="489.160156"/>
       <use xlink:href="#ArialMT-64" x="544.775391"/>
      </g>
      <!-- on target -->
      <g style="fill: #262626" transform="translate(148.789286 135.845562) scale(0.08 -0.08)">
       <use xlink:href="#ArialMT-6f"/>
       <use xlink:href="#ArialMT-6e" x="55.615234"/>
       <use xlink:href="#ArialMT-20" x="111.230469"/>
       <use xlink:href="#ArialMT-74" x="139.013672"/>
       <use xlink:href="#ArialMT-61" x="166.796875"/>
       <use xlink:href="#ArialMT-72" x="222.412109"/>
       <use xlink:href="#ArialMT-67" x="255.712891"/>
       <use xlink:href="#ArialMT-65" x="311.328125"/>
       <use xlink:href="#ArialMT-74" x="366.943359"/>
      </g>
     </g>
    </g>
   </g>
   <g id="matplotlib.axis_2">
    <g id="ytick_1">
     <g id="line2d_1">
      <path d="M 38.8625 110.028094 
L 189.719643 110.028094 
" clip-path="url(#p1e4b74e2f0)" style="fill: none; stroke-dasharray: 2.96,1.28; stroke-dashoffset: 0; stroke: #cccccc; stroke-opacity: 0.3; stroke-width: 0.8"/>
     </g>
     <g id="text_4">
      <!-- 150 -->
      <g style="fill: #262626" transform="translate(18.51625 112.891219) scale(0.08 -0.08)">
       <defs>
        <path id="ArialMT-31" d="M 2384 0 
L 1822 0 
L 1822 3584 
Q 1619 3391 1289 3197 
Q 959 3003 697 2906 
L 697 3450 
Q 1169 3672 1522 3987 
Q 1875 4303 2022 4600 
L 2384 4600 
L 2384 0 
z
" transform="scale(0.015625)"/>
        <path id="ArialMT-35" d="M 266 1200 
L 856 1250 
Q 922 819 1161 601 
Q 1400 384 1738 384 
Q 2144 384 2425 690 
Q 2706 997 2706 1503 
Q 2706 1984 2436 2262 
Q 2166 2541 1728 2541 
Q 1456 2541 1237 2417 
Q 1019 2294 894 2097 
L 366 2166 
L 809 4519 
L 3088 4519 
L 3088 3981 
L 1259 3981 
L 1013 2750 
Q 1425 3038 1878 3038 
Q 2478 3038 2890 2622 
Q 3303 2206 3303 1553 
Q 3303 931 2941 478 
Q 2500 -78 1738 -78 
Q 1113 -78 717 272 
Q 322 622 266 1200 
z
" transform="scale(0.015625)"/>
        <path id="ArialMT-30" d="M 266 2259 
Q 266 3072 433 3567 
Q 600 4063 929 4331 
Q 1259 4600 1759 4600 
Q 2128 4600 2406 4451 
Q 2684 4303 2865 4023 
Q 3047 3744 3150 3342 
Q 3253 2941 3253 2259 
Q 3253 1453 3087 958 
Q 2922 463 2592 192 
Q 2263 -78 1759 -78 
Q 1097 -78 719 397 
Q 266 969 266 2259 
z
M 844 2259 
Q 844 1131 1108 757 
Q 1372 384 1759 384 
Q 2147 384 2411 759 
Q 2675 1134 2675 2259 
Q 2675 3391 2411 3762 
Q 2147 4134 1753 4134 
Q 1366 4134 1134 3806 
Q 844 3388 844 2259 
z
" transform="scale(0.015625)"/>
       </defs>
       <use xlink:href="#ArialMT-31"/>
       <use xlink:href="#ArialMT-35" x="55.615234"/>
       <use xlink:href="#ArialMT-30" x="111.230469"/>
      </g>
     </g>
    </g>
    <g id="ytick_2">
     <g id="line2d_2">
      <path d="M 38.8625 89.850829 
L 189.719643 89.850829 
" clip-path="url(#p1e4b74e2f0)" style="fill: none; stroke-dasharray: 2.96,1.28; stroke-dashoffset: 0; stroke: #cccccc; stroke-opacity: 0.3; stroke-width: 0.8"/>
     </g>
     <g id="text_5">
      <!-- 200 -->
      <g style="fill: #262626" transform="translate(18.51625 92.713954) scale(0.08 -0.08)">
       <defs>
        <path id="ArialMT-32" d="M 3222 541 
L 3222 0 
L 194 0 
Q 188 203 259 391 
Q 375 700 629 1000 
Q 884 1300 1366 1694 
Q 2113 2306 2375 2664 
Q 2638 3022 2638 3341 
Q 2638 3675 2398 3904 
Q 2159 4134 1775 4134 
Q 1369 4134 1125 3890 
Q 881 3647 878 3216 
L 300 3275 
Q 359 3922 746 4261 
Q 1134 4600 1788 4600 
Q 2447 4600 2831 4234 
Q 3216 3869 3216 3328 
Q 3216 3053 3103 2787 
Q 2991 2522 2730 2228 
Q 2469 1934 1863 1422 
Q 1356 997 1212 845 
Q 1069 694 975 541 
L 3222 541 
z
" transform="scale(0.015625)"/>
       </defs>
       <use xlink:href="#ArialMT-32"/>
       <use xlink:href="#ArialMT-30" x="55.615234"/>
       <use xlink:href="#ArialMT-30" x="111.230469"/>
      </g>
     </g>
    </g>
    <g id="ytick_3">
     <g id="line2d_3">
      <path d="M 38.8625 69.673563 
L 189.719643 69.673563 
" clip-path="url(#p1e4b74e2f0)" style="fill: none; stroke-dasharray: 2.96,1.28; stroke-dashoffset: 0; stroke: #cccccc; stroke-opacity: 0.3; stroke-width: 0.8"/>
     </g>
     <g id="text_6">
      <!-- 250 -->
      <g style="fill: #262626" transform="translate(18.51625 72.536688) scale(0.08 -0.08)">
       <use xlink:href="#ArialMT-32"/>
       <use xlink:href="#ArialMT-35" x="55.615234"/>
       <use xlink:href="#ArialMT-30" x="111.230469"/>
      </g>
     </g>
    </g>
    <g id="ytick_4">
     <g id="line2d_4">
      <path d="M 38.8625 49.496298 
L 189.719643 49.496298 
" clip-path="url(#p1e4b74e2f0)" style="fill: none; stroke-dasharray: 2.96,1.28; stroke-dashoffset: 0; stroke: #cccccc; stroke-opacity: 0.3; stroke-width: 0.8"/>
     </g>
     <g id="text_7">
      <!-- 300 -->
      <g style="fill: #262626" transform="translate(18.51625 52.359423) scale(0.08 -0.08)">
       <defs>
        <path id="ArialMT-33" d="M 269 1209 
L 831 1284 
Q 928 806 1161 595 
Q 1394 384 1728 384 
Q 2125 384 2398 659 
Q 2672 934 2672 1341 
Q 2672 1728 2419 1979 
Q 2166 2231 1775 2231 
Q 1616 2231 1378 2169 
L 1441 2663 
Q 1497 2656 1531 2656 
Q 1891 2656 2178 2843 
Q 2466 3031 2466 3422 
Q 2466 3731 2256 3934 
Q 2047 4138 1716 4138 
Q 1388 4138 1169 3931 
Q 950 3725 888 3313 
L 325 3413 
Q 428 3978 793 4289 
Q 1159 4600 1703 4600 
Q 2078 4600 2393 4439 
Q 2709 4278 2876 4000 
Q 3044 3722 3044 3409 
Q 3044 3113 2884 2869 
Q 2725 2625 2413 2481 
Q 2819 2388 3044 2092 
Q 3269 1797 3269 1353 
Q 3269 753 2831 336 
Q 2394 -81 1725 -81 
Q 1122 -81 723 278 
Q 325 638 269 1209 
z
" transform="scale(0.015625)"/>
       </defs>
       <use xlink:href="#ArialMT-33"/>
       <use xlink:href="#ArialMT-30" x="55.615234"/>
       <use xlink:href="#ArialMT-30" x="111.230469"/>
      </g>
     </g>
    </g>
    <g id="ytick_5">
     <g id="line2d_5">
      <path d="M 38.8625 29.319032 
L 189.719643 29.319032 
" clip-path="url(#p1e4b74e2f0)" style="fill: none; stroke-dasharray: 2.96,1.28; stroke-dashoffset: 0; stroke: #cccccc; stroke-opacity: 0.3; stroke-width: 0.8"/>
     </g>
     <g id="text_8">
      <!-- 350 -->
      <g style="fill: #262626" transform="translate(18.51625 32.182157) scale(0.08 -0.08)">
       <use xlink:href="#ArialMT-33"/>
       <use xlink:href="#ArialMT-35" x="55.615234"/>
       <use xlink:href="#ArialMT-30" x="111.230469"/>
      </g>
     </g>
    </g>
    <g id="text_9">
     <!-- Rewards -->
     <g style="fill: #262626" transform="translate(12.92625 83.540312) rotate(-90) scale(0.08 -0.08)">
      <defs>
       <path id="ArialMT-52" d="M 503 0 
L 503 4581 
L 2534 4581 
Q 3147 4581 3465 4457 
Q 3784 4334 3975 4021 
Q 4166 3709 4166 3331 
Q 4166 2844 3850 2509 
Q 3534 2175 2875 2084 
Q 3116 1969 3241 1856 
Q 3506 1613 3744 1247 
L 4541 0 
L 3778 0 
L 3172 953 
Q 2906 1366 2734 1584 
Q 2563 1803 2427 1890 
Q 2291 1978 2150 2013 
Q 2047 2034 1813 2034 
L 1109 2034 
L 1109 0 
L 503 0 
z
M 1109 2559 
L 2413 2559 
Q 2828 2559 3062 2645 
Q 3297 2731 3419 2920 
Q 3541 3109 3541 3331 
Q 3541 3656 3305 3865 
Q 3069 4075 2559 4075 
L 1109 4075 
L 1109 2559 
z
" transform="scale(0.015625)"/>
       <path id="ArialMT-77" d="M 1034 0 
L 19 3319 
L 600 3319 
L 1128 1403 
L 1325 691 
Q 1338 744 1497 1375 
L 2025 3319 
L 2603 3319 
L 3100 1394 
L 3266 759 
L 3456 1400 
L 4025 3319 
L 4572 3319 
L 3534 0 
L 2950 0 
L 2422 1988 
L 2294 2553 
L 1622 0 
L 1034 0 
z
" transform="scale(0.015625)"/>
      </defs>
      <use xlink:href="#ArialMT-52"/>
      <use xlink:href="#ArialMT-65" x="72.216797"/>
      <use xlink:href="#ArialMT-77" x="127.832031"/>
      <use xlink:href="#ArialMT-61" x="200.048828"/>
      <use xlink:href="#ArialMT-72" x="255.664062"/>
      <use xlink:href="#ArialMT-64" x="288.964844"/>
      <use xlink:href="#ArialMT-73" x="344.580078"/>
     </g>
    </g>
   </g>
   <g id="PolyCollection_1">
    <defs>
     <path id="mbcd91e05ed" d="M 65.980047 -31.247068 
L 62.030667 -31.247068 
L 61.999251 -31.662586 
L 61.968158 -32.078104 
L 61.937294 -32.493621 
L 61.906557 -32.909139 
L 61.875838 -33.324657 
L 61.845021 -33.740174 
L 61.813982 -34.155692 
L 61.782595 -34.57121 
L 61.750729 -34.986728 
L 61.718249 -35.402245 
L 61.685022 -35.817763 
L 61.650911 -36.233281 
L 61.615782 -36.648798 
L 61.579504 -37.064316 
L 61.541949 -37.479834 
L 61.502993 -37.895352 
L 61.462519 -38.310869 
L 61.420417 -38.726387 
L 61.376586 -39.141905 
L 61.330935 -39.557422 
L 61.283382 -39.97294 
L 61.233857 -40.388458 
L 61.182303 -40.803976 
L 61.128675 -41.219493 
L 61.072942 -41.635011 
L 61.015087 -42.050529 
L 60.955107 -42.466046 
L 60.893015 -42.881564 
L 60.828835 -43.297082 
L 60.762611 -43.7126 
L 60.694396 -44.128117 
L 60.624262 -44.543635 
L 60.552291 -44.959153 
L 60.478581 -45.37467 
L 60.403241 -45.790188 
L 60.326394 -46.205706 
L 60.248171 -46.621224 
L 60.168718 -47.036741 
L 60.088186 -47.452259 
L 60.006738 -47.867777 
L 59.924542 -48.283294 
L 59.841774 -48.698812 
L 59.758616 -49.11433 
L 59.675253 -49.529848 
L 59.591875 -49.945365 
L 59.508672 -50.360883 
L 59.42584 -50.776401 
L 59.34357 -51.191918 
L 59.262056 -51.607436 
L 59.181491 -52.022954 
L 59.102065 -52.438472 
L 59.023964 -52.853989 
L 58.947375 -53.269507 
L 58.872476 -53.685025 
L 58.799444 -54.100542 
L 58.728451 -54.51606 
L 58.659662 -54.931578 
L 58.593238 -55.347096 
L 58.529335 -55.762613 
L 58.468102 -56.178131 
L 58.409683 -56.593649 
L 58.354216 -57.009166 
L 58.301833 -57.424684 
L 58.25266 -57.840202 
L 58.206816 -58.25572 
L 58.164418 -58.671237 
L 58.125574 -59.086755 
L 58.090386 -59.502273 
L 58.058953 -59.91779 
L 58.031367 -60.333308 
L 58.007715 -60.748826 
L 57.988079 -61.164344 
L 57.972532 -61.579861 
L 57.961147 -61.995379 
L 57.953987 -62.410897 
L 57.951111 -62.826414 
L 57.952572 -63.241932 
L 57.958414 -63.65745 
L 57.968679 -64.072968 
L 57.983398 -64.488485 
L 58.002596 -64.904003 
L 58.026291 -65.319521 
L 58.054492 -65.735038 
L 58.087201 -66.150556 
L 58.124408 -66.566074 
L 58.166097 -66.981592 
L 58.21224 -67.397109 
L 58.262799 -67.812627 
L 58.317726 -68.228145 
L 58.376963 -68.643662 
L 58.440438 -69.05918 
L 58.50807 -69.474698 
L 58.579765 -69.890216 
L 58.655418 -70.305733 
L 58.734912 -70.721251 
L 58.818118 -71.136769 
L 58.904896 -71.552286 
L 58.995093 -71.967804 
L 59.088547 -72.383322 
L 68.922168 -72.383322 
L 68.922168 -72.383322 
L 69.015621 -71.967804 
L 69.105819 -71.552286 
L 69.192596 -71.136769 
L 69.275802 -70.721251 
L 69.355296 -70.305733 
L 69.430949 -69.890216 
L 69.502645 -69.474698 
L 69.570277 -69.05918 
L 69.633752 -68.643662 
L 69.692988 -68.228145 
L 69.747915 -67.812627 
L 69.798475 -67.397109 
L 69.844617 -66.981592 
L 69.886306 -66.566074 
L 69.923513 -66.150556 
L 69.956222 -65.735038 
L 69.984423 -65.319521 
L 70.008118 -64.904003 
L 70.027317 -64.488485 
L 70.042035 -64.072968 
L 70.0523 -63.65745 
L 70.058143 -63.241932 
L 70.059603 -62.826414 
L 70.056727 -62.410897 
L 70.049567 -61.995379 
L 70.038182 -61.579861 
L 70.022636 -61.164344 
L 70.002999 -60.748826 
L 69.979347 -60.333308 
L 69.951761 -59.91779 
L 69.920328 -59.502273 
L 69.885141 -59.086755 
L 69.846296 -58.671237 
L 69.803898 -58.25572 
L 69.758055 -57.840202 
L 69.708881 -57.424684 
L 69.656498 -57.009166 
L 69.601031 -56.593649 
L 69.542612 -56.178131 
L 69.481379 -55.762613 
L 69.417476 -55.347096 
L 69.351053 -54.931578 
L 69.282264 -54.51606 
L 69.21127 -54.100542 
L 69.138238 -53.685025 
L 69.06334 -53.269507 
L 68.98675 -52.853989 
L 68.90865 -52.438472 
L 68.829223 -52.022954 
L 68.748658 -51.607436 
L 68.667145 -51.191918 
L 68.584875 -50.776401 
L 68.502042 -50.360883 
L 68.41884 -49.945365 
L 68.335461 -49.529848 
L 68.252098 -49.11433 
L 68.16894 -48.698812 
L 68.086173 -48.283294 
L 68.003977 -47.867777 
L 67.922528 -47.452259 
L 67.841996 -47.036741 
L 67.762543 -46.621224 
L 67.684321 -46.205706 
L 67.607473 -45.790188 
L 67.532133 -45.37467 
L 67.458423 -44.959153 
L 67.386452 -44.543635 
L 67.316318 -44.128117 
L 67.248104 -43.7126 
L 67.181879 -43.297082 
L 67.1177 -42.881564 
L 67.055607 -42.466046 
L 66.995627 -42.050529 
L 66.937772 -41.635011 
L 66.882039 -41.219493 
L 66.828411 -40.803976 
L 66.776857 -40.388458 
L 66.727332 -39.97294 
L 66.679779 -39.557422 
L 66.634128 -39.141905 
L 66.590297 -38.726387 
L 66.548196 -38.310869 
L 66.507722 -37.895352 
L 66.468765 -37.479834 
L 66.43121 -37.064316 
L 66.394932 -36.648798 
L 66.359804 -36.233281 
L 66.325693 -35.817763 
L 66.292465 -35.402245 
L 66.259986 -34.986728 
L 66.228119 -34.57121 
L 66.196732 -34.155692 
L 66.165693 -33.740174 
L 66.134876 -33.324657 
L 66.104157 -32.909139 
L 66.07342 -32.493621 
L 66.042556 -32.078104 
L 66.011463 -31.662586 
L 65.980047 -31.247068 
z
" style="stroke: #595959"/>
    </defs>
    <g clip-path="url(#p1e4b74e2f0)">
     <use xlink:href="#mbcd91e05ed" x="0" y="144.823062" style="fill: #ffffff; stroke: #595959"/>
    </g>
   </g>
   <g id="PolyCollection_2">
    <defs>
     <path id="m281ad61778" d="M 122.893973 -105.078467 
L 105.688169 -105.078467 
L 105.488337 -105.196161 
L 105.288035 -105.313855 
L 105.087147 -105.431548 
L 104.88555 -105.549242 
L 104.683113 -105.666936 
L 104.479705 -105.78463 
L 104.275195 -105.902323 
L 104.069456 -106.020017 
L 103.862368 -106.137711 
L 103.653821 -106.255404 
L 103.443715 -106.373098 
L 103.23197 -106.490792 
L 103.018522 -106.608485 
L 102.803326 -106.726179 
L 102.586362 -106.843873 
L 102.367633 -106.961567 
L 102.147168 -107.07926 
L 101.925024 -107.196954 
L 101.701285 -107.314648 
L 101.476063 -107.432341 
L 101.249499 -107.550035 
L 101.021759 -107.667729 
L 100.793041 -107.785422 
L 100.563564 -107.903116 
L 100.333574 -108.02081 
L 100.10334 -108.138504 
L 99.873149 -108.256197 
L 99.643309 -108.373891 
L 99.414144 -108.491585 
L 99.185988 -108.609278 
L 98.959188 -108.726972 
L 98.734098 -108.844666 
L 98.511076 -108.962359 
L 98.290482 -109.080053 
L 98.072675 -109.197747 
L 97.858011 -109.31544 
L 97.64684 -109.433134 
L 97.439501 -109.550828 
L 97.236327 -109.668522 
L 97.037635 -109.786215 
L 96.843731 -109.903909 
L 96.654906 -110.021603 
L 96.471435 -110.139296 
L 96.293576 -110.25699 
L 96.121575 -110.374684 
L 95.955658 -110.492377 
L 95.796038 -110.610071 
L 95.642914 -110.727765 
L 95.49647 -110.845459 
L 95.356879 -110.963152 
L 95.224305 -111.080846 
L 95.0989 -111.19854 
L 94.980812 -111.316233 
L 94.870184 -111.433927 
L 94.767153 -111.551621 
L 94.671857 -111.669314 
L 94.584434 -111.787008 
L 94.505024 -111.904702 
L 94.433771 -112.022395 
L 94.370825 -112.140089 
L 94.316341 -112.257783 
L 94.270481 -112.375477 
L 94.233416 -112.49317 
L 94.205324 -112.610864 
L 94.186391 -112.728558 
L 94.176811 -112.846251 
L 94.176786 -112.963945 
L 94.186521 -113.081639 
L 94.206228 -113.199332 
L 94.236121 -113.317026 
L 94.276415 -113.43472 
L 94.327323 -113.552414 
L 94.389057 -113.670107 
L 94.461819 -113.787801 
L 94.545804 -113.905495 
L 94.641194 -114.023188 
L 94.748156 -114.140882 
L 94.86684 -114.258576 
L 94.997374 -114.376269 
L 95.13986 -114.493963 
L 95.294377 -114.611657 
L 95.46097 -114.72935 
L 95.639655 -114.847044 
L 95.830411 -114.964738 
L 96.033181 -115.082432 
L 96.247869 -115.200125 
L 96.47434 -115.317819 
L 96.712416 -115.435513 
L 96.961878 -115.553206 
L 97.222462 -115.6709 
L 97.493865 -115.788594 
L 97.775739 -115.906287 
L 98.067694 -116.023981 
L 98.369299 -116.141675 
L 98.680085 -116.259369 
L 98.999544 -116.377062 
L 99.327131 -116.494756 
L 99.662271 -116.61245 
L 100.004355 -116.730143 
L 128.577788 -116.730143 
L 128.577788 -116.730143 
L 128.919872 -116.61245 
L 129.255012 -116.494756 
L 129.582599 -116.377062 
L 129.902058 -116.259369 
L 130.212844 -116.141675 
L 130.514449 -116.023981 
L 130.806404 -115.906287 
L 131.088277 -115.788594 
L 131.359681 -115.6709 
L 131.620265 -115.553206 
L 131.869727 -115.435513 
L 132.107803 -115.317819 
L 132.334273 -115.200125 
L 132.548962 -115.082432 
L 132.751732 -114.964738 
L 132.942488 -114.847044 
L 133.121172 -114.72935 
L 133.287766 -114.611657 
L 133.442282 -114.493963 
L 133.584769 -114.376269 
L 133.715303 -114.258576 
L 133.833987 -114.140882 
L 133.940949 -114.023188 
L 134.036339 -113.905495 
L 134.120324 -113.787801 
L 134.193086 -113.670107 
L 134.254819 -113.552414 
L 134.305728 -113.43472 
L 134.346022 -113.317026 
L 134.375915 -113.199332 
L 134.395622 -113.081639 
L 134.405357 -112.963945 
L 134.405331 -112.846251 
L 134.395752 -112.728558 
L 134.376819 -112.610864 
L 134.348727 -112.49317 
L 134.311661 -112.375477 
L 134.265802 -112.257783 
L 134.211317 -112.140089 
L 134.148371 -112.022395 
L 134.077119 -111.904702 
L 133.997709 -111.787008 
L 133.910286 -111.669314 
L 133.81499 -111.551621 
L 133.711959 -111.433927 
L 133.60133 -111.316233 
L 133.483243 -111.19854 
L 133.357838 -111.080846 
L 133.225264 -110.963152 
L 133.085673 -110.845459 
L 132.939229 -110.727765 
L 132.786105 -110.610071 
L 132.626485 -110.492377 
L 132.460568 -110.374684 
L 132.288566 -110.25699 
L 132.110708 -110.139296 
L 131.927237 -110.021603 
L 131.738412 -109.903909 
L 131.544508 -109.786215 
L 131.345816 -109.668522 
L 131.142642 -109.550828 
L 130.935303 -109.433134 
L 130.724131 -109.31544 
L 130.509468 -109.197747 
L 130.291661 -109.080053 
L 130.071067 -108.962359 
L 129.848045 -108.844666 
L 129.622955 -108.726972 
L 129.396155 -108.609278 
L 129.167999 -108.491585 
L 128.938833 -108.373891 
L 128.708994 -108.256197 
L 128.478803 -108.138504 
L 128.248569 -108.02081 
L 128.018579 -107.903116 
L 127.789102 -107.785422 
L 127.560383 -107.667729 
L 127.332644 -107.550035 
L 127.10608 -107.432341 
L 126.880857 -107.314648 
L 126.657118 -107.196954 
L 126.434975 -107.07926 
L 126.21451 -106.961567 
L 125.995781 -106.843873 
L 125.778817 -106.726179 
L 125.563621 -106.608485 
L 125.350172 -106.490792 
L 125.138427 -106.373098 
L 124.928322 -106.255404 
L 124.719774 -106.137711 
L 124.512686 -106.020017 
L 124.306948 -105.902323 
L 124.102438 -105.78463 
L 123.89903 -105.666936 
L 123.696593 -105.549242 
L 123.494996 -105.431548 
L 123.294108 -105.313855 
L 123.093806 -105.196161 
L 122.893973 -105.078467 
z
" style="stroke: #595959"/>
    </defs>
    <g clip-path="url(#p1e4b74e2f0)">
     <use xlink:href="#m281ad61778" x="0" y="144.823062" style="fill: #ffffff; stroke: #595959"/>
    </g>
   </g>
   <g id="PolyCollection_3">
    <defs>
     <path id="m388d709688" d="M 176.498343 -105.233243 
L 152.655229 -105.233243 
L 152.361907 -105.367132 
L 152.07164 -105.501021 
L 151.784615 -105.63491 
L 151.500997 -105.7688 
L 151.22093 -105.902689 
L 150.944537 -106.036578 
L 150.67193 -106.170467 
L 150.403207 -106.304357 
L 150.138458 -106.438246 
L 149.877769 -106.572135 
L 149.621227 -106.706024 
L 149.368923 -106.839914 
L 149.120957 -106.973803 
L 148.877442 -107.107692 
L 148.638509 -107.241581 
L 148.40431 -107.375471 
L 148.175025 -107.50936 
L 147.95086 -107.643249 
L 147.732053 -107.777139 
L 147.518877 -107.911028 
L 147.311643 -108.044917 
L 147.110696 -108.178806 
L 146.916422 -108.312696 
L 146.729242 -108.446585 
L 146.549616 -108.580474 
L 146.378039 -108.714363 
L 146.215036 -108.848253 
L 146.061163 -108.982142 
L 145.917002 -109.116031 
L 145.783153 -109.24992 
L 145.660232 -109.38381 
L 145.548863 -109.517699 
L 145.449674 -109.651588 
L 145.363285 -109.785477 
L 145.290305 -109.919367 
L 145.231323 -110.053256 
L 145.1869 -110.187145 
L 145.15756 -110.321034 
L 145.143784 -110.454924 
L 145.146001 -110.588813 
L 145.164582 -110.722702 
L 145.199832 -110.856592 
L 145.251985 -110.990481 
L 145.321197 -111.12437 
L 145.40754 -111.258259 
L 145.511002 -111.392149 
L 145.631481 -111.526038 
L 145.768782 -111.659927 
L 145.922617 -111.793816 
L 146.092607 -111.927706 
L 146.278279 -112.061595 
L 146.479071 -112.195484 
L 146.694332 -112.329373 
L 146.923333 -112.463263 
L 147.165261 -112.597152 
L 147.419237 -112.731041 
L 147.684315 -112.86493 
L 147.959492 -112.99882 
L 148.243718 -113.132709 
L 148.535901 -113.266598 
L 148.834922 -113.400487 
L 149.139639 -113.534377 
L 149.448902 -113.668266 
L 149.761559 -113.802155 
L 150.076469 -113.936045 
L 150.39251 -114.069934 
L 150.708591 -114.203823 
L 151.023655 -114.337712 
L 151.336698 -114.471602 
L 151.646767 -114.605491 
L 151.952973 -114.73938 
L 152.254494 -114.873269 
L 152.550585 -115.007159 
L 152.84058 -115.141048 
L 153.123895 -115.274937 
L 153.400031 -115.408826 
L 153.668578 -115.542716 
L 153.929214 -115.676605 
L 154.181705 -115.810494 
L 154.425904 -115.944383 
L 154.661747 -116.078273 
L 154.889252 -116.212162 
L 155.108517 -116.346051 
L 155.319709 -116.47994 
L 155.523065 -116.61383 
L 155.718885 -116.747719 
L 155.90752 -116.881608 
L 156.089373 -117.015498 
L 156.264886 -117.149387 
L 156.434538 -117.283276 
L 156.598831 -117.417165 
L 156.758289 -117.551055 
L 156.913445 -117.684944 
L 157.064837 -117.818833 
L 157.213003 -117.952722 
L 157.358468 -118.086612 
L 157.501745 -118.220501 
L 157.643324 -118.35439 
L 157.783669 -118.488279 
L 171.369902 -118.488279 
L 171.369902 -118.488279 
L 171.510247 -118.35439 
L 171.651826 -118.220501 
L 171.795103 -118.086612 
L 171.940569 -117.952722 
L 172.088734 -117.818833 
L 172.240127 -117.684944 
L 172.395283 -117.551055 
L 172.55474 -117.417165 
L 172.719033 -117.283276 
L 172.888685 -117.149387 
L 173.064199 -117.015498 
L 173.246052 -116.881608 
L 173.434687 -116.747719 
L 173.630506 -116.61383 
L 173.833863 -116.47994 
L 174.045055 -116.346051 
L 174.264319 -116.212162 
L 174.491825 -116.078273 
L 174.727668 -115.944383 
L 174.971866 -115.810494 
L 175.224357 -115.676605 
L 175.484994 -115.542716 
L 175.753541 -115.408826 
L 176.029677 -115.274937 
L 176.312991 -115.141048 
L 176.602986 -115.007159 
L 176.899077 -114.873269 
L 177.200599 -114.73938 
L 177.506804 -114.605491 
L 177.816873 -114.471602 
L 178.129916 -114.337712 
L 178.444981 -114.203823 
L 178.761061 -114.069934 
L 179.077102 -113.936045 
L 179.392013 -113.802155 
L 179.70467 -113.668266 
L 180.013932 -113.534377 
L 180.31865 -113.400487 
L 180.61767 -113.266598 
L 180.909854 -113.132709 
L 181.194079 -112.99882 
L 181.469256 -112.86493 
L 181.734334 -112.731041 
L 181.98831 -112.597152 
L 182.230239 -112.463263 
L 182.459239 -112.329373 
L 182.674501 -112.195484 
L 182.875292 -112.061595 
L 183.060964 -111.927706 
L 183.230954 -111.793816 
L 183.38479 -111.659927 
L 183.52209 -111.526038 
L 183.642569 -111.392149 
L 183.746031 -111.258259 
L 183.832375 -111.12437 
L 183.901586 -110.990481 
L 183.953739 -110.856592 
L 183.988989 -110.722702 
L 184.00757 -110.588813 
L 184.009788 -110.454924 
L 183.996011 -110.321034 
L 183.966671 -110.187145 
L 183.922248 -110.053256 
L 183.863266 -109.919367 
L 183.790287 -109.785477 
L 183.703898 -109.651588 
L 183.604708 -109.517699 
L 183.49334 -109.38381 
L 183.370419 -109.24992 
L 183.23657 -109.116031 
L 183.092408 -108.982142 
L 182.938536 -108.848253 
L 182.775533 -108.714363 
L 182.603955 -108.580474 
L 182.424329 -108.446585 
L 182.23715 -108.312696 
L 182.042875 -108.178806 
L 181.841929 -108.044917 
L 181.634694 -107.911028 
L 181.421519 -107.777139 
L 181.202712 -107.643249 
L 180.978546 -107.50936 
L 180.749261 -107.375471 
L 180.515063 -107.241581 
L 180.27613 -107.107692 
L 180.032615 -106.973803 
L 179.784648 -106.839914 
L 179.532344 -106.706024 
L 179.275802 -106.572135 
L 179.015113 -106.438246 
L 178.750364 -106.304357 
L 178.481641 -106.170467 
L 178.209034 -106.036578 
L 177.932642 -105.902689 
L 177.652574 -105.7688 
L 177.368956 -105.63491 
L 177.081932 -105.501021 
L 176.791665 -105.367132 
L 176.498343 -105.233243 
z
" style="stroke: #595959"/>
    </defs>
    <g clip-path="url(#p1e4b74e2f0)">
     <use xlink:href="#m388d709688" x="0" y="144.823062" style="fill: #ffffff; stroke: #595959"/>
    </g>
   </g>
   <g id="patch_3">
    <path d="M 110.93644 41.925735 
Q 88.308749 56.637978 67.08705 70.436062 
" style="fill: none; opacity: 0.6; stroke: #f3874f; stroke-width: 1.5; stroke-linecap: round"/>
    <path d="M 71.530735 69.93241 
L 67.08705 70.436062 
L 69.350339 66.578923 
" style="fill: none; opacity: 0.6; stroke: #f3874f; stroke-width: 1.5; stroke-linecap: round"/>
   </g>
   <g id="patch_4">
    <path d="M 118.290234 39.581539 
Q 140.434835 38.67865 160.903776 37.844082 
" style="fill: none; opacity: 0.6; stroke: #e2f3a4; stroke-width: 1.5; stroke-linecap: round"/>
    <path d="M 156.82562 36.008696 
L 160.903776 37.844082 
L 156.988574 40.005376 
" style="fill: none; opacity: 0.6; stroke: #e2f3a4; stroke-width: 1.5; stroke-linecap: round"/>
   </g>
   <g id="patch_5">
    <path d="M 111.556417 31.009208 
Q 88.464376 55.635015 66.51948 79.037484 
" style="fill: none; opacity: 0.6; stroke: #e65337; stroke-width: 1.5; stroke-linecap: round"/>
    <path d="M 70.714498 77.487702 
L 66.51948 79.037484 
L 67.796665 74.751601 
" style="fill: none; opacity: 0.6; stroke: #e65337; stroke-width: 1.5; stroke-linecap: round"/>
   </g>
   <g id="patch_6">
    <path d="M 118.290234 27.953097 
Q 140.434835 27.178857 160.903408 26.463215 
" style="fill: none; opacity: 0.6; stroke: #e5f4a6; stroke-width: 1.5; stroke-linecap: round"/>
    <path d="M 156.835968 24.604203 
L 160.903408 26.463215 
L 156.975734 28.60176 
" style="fill: none; opacity: 0.6; stroke: #e5f4a6; stroke-width: 1.5; stroke-linecap: round"/>
   </g>
   <g id="patch_7">
    <path d="M 112.227037 33.567732 
Q 88.631996 72.716062 65.90265 110.428052 
" style="fill: none; opacity: 0.6; stroke: #d7191c; stroke-width: 1.5; stroke-linecap: round"/>
    <path d="M 69.680387 108.034582 
L 65.90265 110.428052 
L 66.254517 105.96978 
" style="fill: none; opacity: 0.6; stroke: #d7191c; stroke-width: 1.5; stroke-linecap: round"/>
   </g>
   <g id="patch_8">
    <path d="M 118.284096 30.364268 
Q 140.431633 31.590798 160.904685 32.724594 
" style="fill: none; opacity: 0.6; stroke: #fee19c; stroke-width: 1.5; stroke-linecap: round"/>
    <path d="M 157.021395 30.506473 
L 160.904685 32.724594 
L 156.800214 34.500354 
" style="fill: none; opacity: 0.6; stroke: #fee19c; stroke-width: 1.5; stroke-linecap: round"/>
   </g>
   <g id="patch_9">
    <path d="M 111.7774 34.381117 
Q 88.519728 63.14801 66.316437 90.610762 
" style="fill: none; opacity: 0.6; stroke: #e1412e; stroke-width: 1.5; stroke-linecap: round"/>
    <path d="M 70.386559 88.75763 
L 66.316437 90.610762 
L 67.276004 86.242785 
" style="fill: none; opacity: 0.6; stroke: #e1412e; stroke-width: 1.5; stroke-linecap: round"/>
   </g>
   <g id="patch_10">
    <path d="M 118.234989 31.92438 
Q 140.420162 35.59405 160.950767 38.990037 
" style="fill: none; opacity: 0.6; stroke: #fecc83; stroke-width: 1.5; stroke-linecap: round"/>
    <path d="M 157.330778 36.364075 
L 160.950767 38.990037 
L 156.678004 40.310451 
" style="fill: none; opacity: 0.6; stroke: #fecc83; stroke-width: 1.5; stroke-linecap: round"/>
   </g>
   <g id="patch_11">
    <path d="M 111.145145 37.503963 
Q 88.362161 55.372512 66.898783 72.206103 
" style="fill: none; opacity: 0.6; stroke: #ee7446; stroke-width: 1.5; stroke-linecap: round"/>
    <path d="M 71.280488 71.311305 
L 66.898783 72.206103 
L 68.811967 68.16386 
" style="fill: none; opacity: 0.6; stroke: #ee7446; stroke-width: 1.5; stroke-linecap: round"/>
   </g>
   <g id="patch_12">
    <path d="M 118.290234 34.927801 
Q 140.434835 34.325168 160.903005 33.768156 
" style="fill: none; opacity: 0.6; stroke: #e8f5a9; stroke-width: 1.5; stroke-linecap: round"/>
    <path d="M 156.850078 31.87771 
L 160.903005 33.768156 
L 156.958892 35.87623 
" style="fill: none; opacity: 0.6; stroke: #e8f5a9; stroke-width: 1.5; stroke-linecap: round"/>
   </g>
   <g id="patch_13">
    <path d="M 111.574833 37.46918 
Q 88.468041 62.483702 66.499198 86.266325 
" style="fill: none; opacity: 0.6; stroke: #e55136; stroke-width: 1.5; stroke-linecap: round"/>
    <path d="M 70.682487 84.685158 
L 66.499198 86.266325 
L 67.744237 81.970993 
" style="fill: none; opacity: 0.6; stroke: #e55136; stroke-width: 1.5; stroke-linecap: round"/>
   </g>
   <g id="patch_14">
    <path d="M 118.290234 34.423903 
Q 140.434835 33.843692 160.90296 33.307407 
" style="fill: none; opacity: 0.6; stroke: #e8f5a9; stroke-width: 1.5; stroke-linecap: round"/>
    <path d="M 156.851948 31.412861 
L 160.90296 33.307407 
L 156.956716 35.411489 
" style="fill: none; opacity: 0.6; stroke: #e8f5a9; stroke-width: 1.5; stroke-linecap: round"/>
   </g>
   <g id="PathCollection_1">
    <path d="M 64.005357 74.020879 
C 64.42468 74.020879 64.826885 73.854281 65.123391 73.557775 
C 65.419897 73.261269 65.586496 72.859064 65.586496 72.439741 
C 65.586496 72.020418 65.419897 71.618213 65.123391 71.321707 
C 64.826885 71.025201 64.42468 70.858602 64.005357 70.858602 
C 63.586034 70.858602 63.183829 71.025201 62.887323 71.321707 
C 62.590817 71.618213 62.424218 72.020418 62.424218 72.439741 
C 62.424218 72.859064 62.590817 73.261269 62.887323 73.557775 
C 63.183829 73.854281 63.586034 74.020879 64.005357 74.020879 
z
" clip-path="url(#p1e4b74e2f0)" style="fill-opacity: 0.8"/>
   </g>
   <g id="PathCollection_2">
    <path d="M 114.291071 41.325734 
C 114.710394 41.325734 115.112599 41.159135 115.409105 40.862629 
C 115.705611 40.566123 115.87221 40.163918 115.87221 39.744595 
C 115.87221 39.325272 115.705611 38.923067 115.409105 38.626561 
C 115.112599 38.330055 114.710394 38.163456 114.291071 38.163456 
C 113.871749 38.163456 113.469544 38.330055 113.173037 38.626561 
C 112.876531 38.923067 112.709933 39.325272 112.709933 39.744595 
C 112.709933 40.163918 112.876531 40.566123 113.173037 40.862629 
C 113.469544 41.159135 113.871749 41.325734 114.291071 41.325734 
z
" clip-path="url(#p1e4b74e2f0)" style="fill-opacity: 0.8"/>
   </g>
   <g id="PathCollection_3">
    <path d="M 164.576786 39.275463 
C 164.996109 39.275463 165.398314 39.108864 165.69482 38.812358 
C 165.991326 38.515852 166.157925 38.113647 166.157925 37.694324 
C 166.157925 37.275001 165.991326 36.872796 165.69482 36.57629 
C 165.398314 36.279784 164.996109 36.113185 164.576786 36.113185 
C 164.157463 36.113185 163.755258 36.279784 163.458752 36.57629 
C 163.162246 36.872796 162.995647 37.275001 162.995647 37.694324 
C 162.995647 38.113647 163.162246 38.515852 163.458752 38.812358 
C 163.755258 39.108864 164.157463 39.275463 164.576786 39.275463 
z
" clip-path="url(#p1e4b74e2f0)" style="fill-opacity: 0.8"/>
   </g>
   <g id="PathCollection_4">
    <path d="M 64.005357 83.299733 
C 64.42468 83.299733 64.826885 83.133134 65.123391 82.836628 
C 65.419897 82.540122 65.586496 82.137917 65.586496 81.718594 
C 65.586496 81.299271 65.419897 80.897066 65.123391 80.60056 
C 64.826885 80.304054 64.42468 80.137455 64.005357 80.137455 
C 63.586034 80.137455 63.183829 80.304054 62.887323 80.60056 
C 62.590817 80.897066 62.424218 81.299271 62.424218 81.718594 
C 62.424218 82.137917 62.590817 82.540122 62.887323 82.836628 
C 63.183829 83.133134 63.586034 83.299733 64.005357 83.299733 
z
" clip-path="url(#p1e4b74e2f0)" style="fill-opacity: 0.8"/>
   </g>
   <g id="PathCollection_5">
    <path d="M 114.291071 29.674058 
C 114.710394 29.674058 115.112599 29.507459 115.409105 29.210953 
C 115.705611 28.914447 115.87221 28.512242 115.87221 28.092919 
C 115.87221 27.673596 115.705611 27.271391 115.409105 26.974885 
C 115.112599 26.678379 114.710394 26.51178 114.291071 26.51178 
C 113.871749 26.51178 113.469544 26.678379 113.173037 26.974885 
C 112.876531 27.271391 112.709933 27.673596 112.709933 28.092919 
C 112.709933 28.512242 112.876531 28.914447 113.173037 29.210953 
C 113.469544 29.507459 113.871749 29.674058 114.291071 29.674058 
z
" clip-path="url(#p1e4b74e2f0)" style="fill-opacity: 0.8"/>
   </g>
   <g id="PathCollection_6">
    <path d="M 164.576786 27.915922 
C 164.996109 27.915922 165.398314 27.749323 165.69482 27.452817 
C 165.991326 27.156311 166.157925 26.754106 166.157925 26.334783 
C 166.157925 25.91546 165.991326 25.513255 165.69482 25.216749 
C 165.398314 24.920243 164.996109 24.753644 164.576786 24.753644 
C 164.157463 24.753644 163.755258 24.920243 163.458752 25.216749 
C 163.162246 25.513255 162.995647 25.91546 162.995647 26.334783 
C 162.995647 26.754106 163.162246 27.156311 163.458752 27.452817 
C 163.755258 27.749323 164.157463 27.915922 164.576786 27.915922 
z
" clip-path="url(#p1e4b74e2f0)" style="fill-opacity: 0.8"/>
   </g>
   <g id="PathCollection_7">
    <path d="M 64.005357 115.157133 
C 64.42468 115.157133 64.826885 114.990534 65.123391 114.694028 
C 65.419897 114.397522 65.586496 113.995317 65.586496 113.575994 
C 65.586496 113.156671 65.419897 112.754466 65.123391 112.45796 
C 64.826885 112.161454 64.42468 111.994855 64.005357 111.994855 
C 63.586034 111.994855 63.183829 112.161454 62.887323 112.45796 
C 62.590817 112.754466 62.424218 113.156671 62.424218 113.575994 
C 62.424218 113.995317 62.590817 114.397522 62.887323 114.694028 
C 63.183829 114.990534 63.586034 115.157133 64.005357 115.157133 
z
" clip-path="url(#p1e4b74e2f0)" style="fill-opacity: 0.8"/>
   </g>
   <g id="PathCollection_8">
    <path d="M 114.291071 31.724273 
C 114.710394 31.724273 115.112599 31.557675 115.409105 31.261169 
C 115.705611 30.964663 115.87221 30.562458 115.87221 30.143135 
C 115.87221 29.723812 115.705611 29.321607 115.409105 29.025101 
C 115.112599 28.728595 114.710394 28.561996 114.291071 28.561996 
C 113.871749 28.561996 113.469544 28.728595 113.173037 29.025101 
C 112.876531 29.321607 112.709933 29.723812 112.709933 30.143135 
C 112.709933 30.562458 112.876531 30.964663 113.173037 31.261169 
C 113.469544 31.557675 113.871749 31.724273 114.291071 31.724273 
z
" clip-path="url(#p1e4b74e2f0)" style="fill-opacity: 0.8"/>
   </g>
   <g id="PathCollection_9">
    <path d="M 164.576786 34.509094 
C 164.996109 34.509094 165.398314 34.342495 165.69482 34.045989 
C 165.991326 33.749483 166.157925 33.347278 166.157925 32.927955 
C 166.157925 32.508632 165.991326 32.106427 165.69482 31.809921 
C 165.398314 31.513415 164.996109 31.346816 164.576786 31.346816 
C 164.157463 31.346816 163.755258 31.513415 163.458752 31.809921 
C 163.162246 32.106427 162.995647 32.508632 162.995647 32.927955 
C 162.995647 33.347278 163.162246 33.749483 163.458752 34.045989 
C 163.755258 34.342495 164.157463 34.509094 164.576786 34.509094 
z
" clip-path="url(#p1e4b74e2f0)" style="fill-opacity: 0.8"/>
   </g>
   <g id="PathCollection_10">
    <path d="M 64.005357 95.050424 
C 64.42468 95.050424 64.826885 94.883825 65.123391 94.587319 
C 65.419897 94.290813 65.586496 93.888608 65.586496 93.469285 
C 65.586496 93.049962 65.419897 92.647757 65.123391 92.351251 
C 64.826885 92.054745 64.42468 91.888146 64.005357 91.888146 
C 63.586034 91.888146 63.183829 92.054745 62.887323 92.351251 
C 62.590817 92.647757 62.424218 93.049962 62.424218 93.469285 
C 62.424218 93.888608 62.590817 94.290813 62.887323 94.587319 
C 63.183829 94.883825 63.586034 95.050424 64.005357 95.050424 
z
" clip-path="url(#p1e4b74e2f0)" style="fill-opacity: 0.8"/>
   </g>
   <g id="PathCollection_11">
    <path d="M 114.291071 32.853151 
C 114.710394 32.853151 115.112599 32.686553 115.409105 32.390047 
C 115.705611 32.09354 115.87221 31.691335 115.87221 31.272013 
C 115.87221 30.85269 115.705611 30.450485 115.409105 30.153979 
C 115.112599 29.857472 114.710394 29.690874 114.291071 29.690874 
C 113.871749 29.690874 113.469544 29.857472 113.173037 30.153979 
C 112.876531 30.450485 112.709933 30.85269 112.709933 31.272013 
C 112.709933 31.691335 112.876531 32.09354 113.173037 32.390047 
C 113.469544 32.686553 113.871749 32.853151 114.291071 32.853151 
z
" clip-path="url(#p1e4b74e2f0)" style="fill-opacity: 0.8"/>
   </g>
   <g id="PathCollection_12">
    <path d="M 164.576786 41.170959 
C 164.996109 41.170959 165.398314 41.00436 165.69482 40.707854 
C 165.991326 40.411348 166.157925 40.009143 166.157925 39.58982 
C 166.157925 39.170497 165.991326 38.768292 165.69482 38.471786 
C 165.398314 38.17528 164.996109 38.008681 164.576786 38.008681 
C 164.157463 38.008681 163.755258 38.17528 163.458752 38.471786 
C 163.162246 38.768292 162.995647 39.170497 162.995647 39.58982 
C 162.995647 40.009143 163.162246 40.411348 163.458752 40.707854 
C 163.755258 41.00436 164.157463 41.170959 164.576786 41.170959 
z
" clip-path="url(#p1e4b74e2f0)" style="fill-opacity: 0.8"/>
   </g>
   <g id="PathCollection_13">
    <path d="M 64.005357 76.056538 
C 64.42468 76.056538 64.826885 75.889939 65.123391 75.593433 
C 65.419897 75.296927 65.586496 74.894722 65.586496 74.475399 
C 65.586496 74.056076 65.419897 73.653871 65.123391 73.357365 
C 64.826885 73.060859 64.42468 72.89426 64.005357 72.89426 
C 63.586034 72.89426 63.183829 73.060859 62.887323 73.357365 
C 62.590817 73.653871 62.424218 74.056076 62.424218 74.475399 
C 62.424218 74.894722 62.590817 75.296927 62.887323 75.593433 
C 63.183829 75.889939 63.586034 76.056538 64.005357 76.056538 
z
" clip-path="url(#p1e4b74e2f0)" style="fill-opacity: 0.8"/>
   </g>
   <g id="PathCollection_14">
    <path d="M 114.291071 36.617771 
C 114.710394 36.617771 115.112599 36.451173 115.409105 36.154667 
C 115.705611 35.85816 115.87221 35.455955 115.87221 35.036633 
C 115.87221 34.61731 115.705611 34.215105 115.409105 33.918599 
C 115.112599 33.622092 114.710394 33.455494 114.291071 33.455494 
C 113.871749 33.455494 113.469544 33.622092 113.173037 33.918599 
C 112.876531 34.215105 112.709933 34.61731 112.709933 35.036633 
C 112.709933 35.455955 112.876531 35.85816 113.173037 36.154667 
C 113.469544 36.451173 113.871749 36.617771 114.291071 36.617771 
z
" clip-path="url(#p1e4b74e2f0)" style="fill-opacity: 0.8"/>
   </g>
   <g id="PathCollection_15">
    <path d="M 164.576786 35.249318 
C 164.996109 35.249318 165.398314 35.082719 165.69482 34.786213 
C 165.991326 34.489707 166.157925 34.087502 166.157925 33.668179 
C 166.157925 33.248856 165.991326 32.846651 165.69482 32.550145 
C 165.398314 32.253639 164.996109 32.08704 164.576786 32.08704 
C 164.157463 32.08704 163.755258 32.253639 163.458752 32.550145 
C 163.162246 32.846651 162.995647 33.248856 162.995647 33.668179 
C 162.995647 34.087502 163.162246 34.489707 163.458752 34.786213 
C 163.755258 35.082719 164.157463 35.249318 164.576786 35.249318 
z
" clip-path="url(#p1e4b74e2f0)" style="fill-opacity: 0.8"/>
   </g>
   <g id="PathCollection_16">
    <path d="M 64.005357 90.5472 
C 64.42468 90.5472 64.826885 90.380601 65.123391 90.084095 
C 65.419897 89.787589 65.586496 89.385384 65.586496 88.966061 
C 65.586496 88.546738 65.419897 88.144533 65.123391 87.848027 
C 64.826885 87.551521 64.42468 87.384922 64.005357 87.384922 
C 63.586034 87.384922 63.183829 87.551521 62.887323 87.848027 
C 62.590817 88.144533 62.424218 88.546738 62.424218 88.966061 
C 62.424218 89.385384 62.590817 89.787589 62.887323 90.084095 
C 63.183829 90.380601 63.586034 90.5472 64.005357 90.5472 
z
" clip-path="url(#p1e4b74e2f0)" style="fill-opacity: 0.8"/>
   </g>
   <g id="PathCollection_17">
    <path d="M 114.291071 36.109824 
C 114.710394 36.109824 115.112599 35.943225 115.409105 35.646719 
C 115.705611 35.350213 115.87221 34.948008 115.87221 34.528685 
C 115.87221 34.109362 115.705611 33.707157 115.409105 33.410651 
C 115.112599 33.114145 114.710394 32.947546 114.291071 32.947546 
C 113.871749 32.947546 113.469544 33.114145 113.173037 33.410651 
C 112.876531 33.707157 112.709933 34.109362 112.709933 34.528685 
C 112.709933 34.948008 112.876531 35.350213 113.173037 35.646719 
C 113.469544 35.943225 113.871749 36.109824 114.291071 36.109824 
z
" clip-path="url(#p1e4b74e2f0)" style="fill-opacity: 0.8"/>
   </g>
   <g id="PathCollection_18">
    <path d="M 164.576786 34.792288 
C 164.996109 34.792288 165.398314 34.625689 165.69482 34.329183 
C 165.991326 34.032677 166.157925 33.630472 166.157925 33.211149 
C 166.157925 32.791826 165.991326 32.389621 165.69482 32.093115 
C 165.398314 31.796609 164.996109 31.63001 164.576786 31.63001 
C 164.157463 31.63001 163.755258 31.796609 163.458752 32.093115 
C 163.162246 32.389621 162.995647 32.791826 162.995647 33.211149 
C 162.995647 33.630472 163.162246 34.032677 163.458752 34.329183 
C 163.755258 34.625689 164.157463 34.792288 164.576786 34.792288 
z
" clip-path="url(#p1e4b74e2f0)" style="fill-opacity: 0.8"/>
   </g>
   <g id="text_10">
    <!-- Tested on Source -->
    <g style="fill: #262626" transform="translate(75.382478 14.357813) scale(0.1 -0.1)">
     <defs>
      <path id="ArialMT-53" d="M 288 1472 
L 859 1522 
Q 900 1178 1048 958 
Q 1197 738 1509 602 
Q 1822 466 2213 466 
Q 2559 466 2825 569 
Q 3091 672 3220 851 
Q 3350 1031 3350 1244 
Q 3350 1459 3225 1620 
Q 3100 1781 2813 1891 
Q 2628 1963 1997 2114 
Q 1366 2266 1113 2400 
Q 784 2572 623 2826 
Q 463 3081 463 3397 
Q 463 3744 659 4045 
Q 856 4347 1234 4503 
Q 1613 4659 2075 4659 
Q 2584 4659 2973 4495 
Q 3363 4331 3572 4012 
Q 3781 3694 3797 3291 
L 3216 3247 
Q 3169 3681 2898 3903 
Q 2628 4125 2100 4125 
Q 1550 4125 1298 3923 
Q 1047 3722 1047 3438 
Q 1047 3191 1225 3031 
Q 1400 2872 2139 2705 
Q 2878 2538 3153 2413 
Q 3553 2228 3743 1945 
Q 3934 1663 3934 1294 
Q 3934 928 3725 604 
Q 3516 281 3123 101 
Q 2731 -78 2241 -78 
Q 1619 -78 1198 103 
Q 778 284 539 648 
Q 300 1013 288 1472 
z
" transform="scale(0.015625)"/>
     </defs>
     <use xlink:href="#ArialMT-54"/>
     <use xlink:href="#ArialMT-65" x="49.958984"/>
     <use xlink:href="#ArialMT-73" x="105.574219"/>
     <use xlink:href="#ArialMT-74" x="155.574219"/>
     <use xlink:href="#ArialMT-65" x="183.357422"/>
     <use xlink:href="#ArialMT-64" x="238.972656"/>
     <use xlink:href="#ArialMT-20" x="294.587891"/>
     <use xlink:href="#ArialMT-6f" x="322.371094"/>
     <use xlink:href="#ArialMT-6e" x="377.986328"/>
     <use xlink:href="#ArialMT-20" x="433.601562"/>
     <use xlink:href="#ArialMT-53" x="461.384766"/>
     <use xlink:href="#ArialMT-6f" x="528.083984"/>
     <use xlink:href="#ArialMT-75" x="583.699219"/>
     <use xlink:href="#ArialMT-72" x="639.314453"/>
     <use xlink:href="#ArialMT-63" x="672.615234"/>
     <use xlink:href="#ArialMT-65" x="722.615234"/>
    </g>
   </g>
  </g>
  <g id="axes_2">
   <g id="patch_15">
    <path d="M 204.805357 118.157812 
L 355.6625 118.157812 
L 355.6625 17.357813 
L 204.805357 17.357813 
z
" style="fill: #ffffff"/>
   </g>
   <g id="matplotlib.axis_3">
    <g id="xtick_4">
     <g id="text_11">
      <!-- Naively-tuned -->
      <g style="fill: #262626" transform="translate(205.492589 127.384062) scale(0.08 -0.08)">
       <use xlink:href="#ArialMT-4e"/>
       <use xlink:href="#ArialMT-61" x="72.216797"/>
       <use xlink:href="#ArialMT-69" x="127.832031"/>
       <use xlink:href="#ArialMT-76" x="150.048828"/>
       <use xlink:href="#ArialMT-65" x="200.048828"/>
       <use xlink:href="#ArialMT-6c" x="255.664062"/>
       <use xlink:href="#ArialMT-79" x="277.880859"/>
       <use xlink:href="#ArialMT-2d" x="327.880859"/>
       <use xlink:href="#ArialMT-74" x="361.181641"/>
       <use xlink:href="#ArialMT-75" x="388.964844"/>
       <use xlink:href="#ArialMT-6e" x="444.580078"/>
       <use xlink:href="#ArialMT-65" x="500.195312"/>
       <use xlink:href="#ArialMT-64" x="555.810547"/>
      </g>
      <!-- on target -->
      <g style="fill: #262626" transform="translate(214.160714 135.939312) scale(0.08 -0.08)">
       <use xlink:href="#ArialMT-6f"/>
       <use xlink:href="#ArialMT-6e" x="55.615234"/>
       <use xlink:href="#ArialMT-20" x="111.230469"/>
       <use xlink:href="#ArialMT-74" x="139.013672"/>
       <use xlink:href="#ArialMT-61" x="166.796875"/>
       <use xlink:href="#ArialMT-72" x="222.412109"/>
       <use xlink:href="#ArialMT-67" x="255.712891"/>
       <use xlink:href="#ArialMT-65" x="311.328125"/>
       <use xlink:href="#ArialMT-74" x="366.943359"/>
      </g>
     </g>
    </g>
    <g id="xtick_5">
     <g id="text_12">
      <!-- Trained -->
      <g style="fill: #262626" transform="translate(266.822679 127.384062) scale(0.08 -0.08)">
       <use xlink:href="#ArialMT-54"/>
       <use xlink:href="#ArialMT-72" x="57.333984"/>
       <use xlink:href="#ArialMT-61" x="90.634766"/>
       <use xlink:href="#ArialMT-69" x="146.25"/>
       <use xlink:href="#ArialMT-6e" x="168.466797"/>
       <use xlink:href="#ArialMT-65" x="224.082031"/>
       <use xlink:href="#ArialMT-64" x="279.697266"/>
      </g>
      <!-- on source -->
      <g style="fill: #262626" transform="translate(262.668929 135.845562) scale(0.08 -0.08)">
       <use xlink:href="#ArialMT-6f"/>
       <use xlink:href="#ArialMT-6e" x="55.615234"/>
       <use xlink:href="#ArialMT-20" x="111.230469"/>
       <use xlink:href="#ArialMT-73" x="139.013672"/>
       <use xlink:href="#ArialMT-6f" x="189.013672"/>
       <use xlink:href="#ArialMT-75" x="244.628906"/>
       <use xlink:href="#ArialMT-72" x="300.244141"/>
       <use xlink:href="#ArialMT-63" x="333.544922"/>
       <use xlink:href="#ArialMT-65" x="383.544922"/>
      </g>
     </g>
    </g>
    <g id="xtick_6">
     <g id="text_13">
      <!-- Anchor-tuned -->
      <g style="fill: #262626" transform="translate(306.505893 127.384062) scale(0.08 -0.08)">
       <use xlink:href="#ArialMT-41"/>
       <use xlink:href="#ArialMT-6e" x="66.699219"/>
       <use xlink:href="#ArialMT-63" x="122.314453"/>
       <use xlink:href="#ArialMT-68" x="172.314453"/>
       <use xlink:href="#ArialMT-6f" x="227.929688"/>
       <use xlink:href="#ArialMT-72" x="283.544922"/>
       <use xlink:href="#ArialMT-2d" x="316.845703"/>
       <use xlink:href="#ArialMT-74" x="350.146484"/>
       <use xlink:href="#ArialMT-75" x="377.929688"/>
       <use xlink:href="#ArialMT-6e" x="433.544922"/>
       <use xlink:href="#ArialMT-65" x="489.160156"/>
       <use xlink:href="#ArialMT-64" x="544.775391"/>
      </g>
      <!-- on target -->
      <g style="fill: #262626" transform="translate(314.732143 135.845562) scale(0.08 -0.08)">
       <use xlink:href="#ArialMT-6f"/>
       <use xlink:href="#ArialMT-6e" x="55.615234"/>
       <use xlink:href="#ArialMT-20" x="111.230469"/>
       <use xlink:href="#ArialMT-74" x="139.013672"/>
       <use xlink:href="#ArialMT-61" x="166.796875"/>
       <use xlink:href="#ArialMT-72" x="222.412109"/>
       <use xlink:href="#ArialMT-67" x="255.712891"/>
       <use xlink:href="#ArialMT-65" x="311.328125"/>
       <use xlink:href="#ArialMT-74" x="366.943359"/>
      </g>
     </g>
    </g>
   </g>
   <g id="matplotlib.axis_4">
    <g id="ytick_6">
     <g id="line2d_6">
      <path d="M 204.805357 110.028094 
L 355.6625 110.028094 
" clip-path="url(#pcb447d3bb2)" style="fill: none; stroke-dasharray: 2.96,1.28; stroke-dashoffset: 0; stroke: #cccccc; stroke-opacity: 0.3; stroke-width: 0.8"/>
     </g>
    </g>
    <g id="ytick_7">
     <g id="line2d_7">
      <path d="M 204.805357 89.850829 
L 355.6625 89.850829 
" clip-path="url(#pcb447d3bb2)" style="fill: none; stroke-dasharray: 2.96,1.28; stroke-dashoffset: 0; stroke: #cccccc; stroke-opacity: 0.3; stroke-width: 0.8"/>
     </g>
    </g>
    <g id="ytick_8">
     <g id="line2d_8">
      <path d="M 204.805357 69.673563 
L 355.6625 69.673563 
" clip-path="url(#pcb447d3bb2)" style="fill: none; stroke-dasharray: 2.96,1.28; stroke-dashoffset: 0; stroke: #cccccc; stroke-opacity: 0.3; stroke-width: 0.8"/>
     </g>
    </g>
    <g id="ytick_9">
     <g id="line2d_9">
      <path d="M 204.805357 49.496298 
L 355.6625 49.496298 
" clip-path="url(#pcb447d3bb2)" style="fill: none; stroke-dasharray: 2.96,1.28; stroke-dashoffset: 0; stroke: #cccccc; stroke-opacity: 0.3; stroke-width: 0.8"/>
     </g>
    </g>
    <g id="ytick_10">
     <g id="line2d_10">
      <path d="M 204.805357 29.319032 
L 355.6625 29.319032 
" clip-path="url(#pcb447d3bb2)" style="fill: none; stroke-dasharray: 2.96,1.28; stroke-dashoffset: 0; stroke: #cccccc; stroke-opacity: 0.3; stroke-width: 0.8"/>
     </g>
    </g>
   </g>
   <g id="PolyCollection_4">
    <defs>
     <path id="m5bcc706881" d="M 240.956381 -92.560949 
L 218.940048 -92.560949 
L 218.832307 -92.773473 
L 218.732824 -92.985997 
L 218.64148 -93.198521 
L 218.558104 -93.411045 
L 218.482472 -93.623569 
L 218.414306 -93.836093 
L 218.353276 -94.048616 
L 218.299001 -94.26114 
L 218.251053 -94.473664 
L 218.208955 -94.686188 
L 218.172186 -94.898712 
L 218.140183 -95.111236 
L 218.112345 -95.32376 
L 218.088038 -95.536284 
L 218.066595 -95.748808 
L 218.047321 -95.961332 
L 218.029503 -96.173855 
L 218.012407 -96.386379 
L 217.995287 -96.598903 
L 217.977391 -96.811427 
L 217.957962 -97.023951 
L 217.936249 -97.236475 
L 217.911507 -97.448999 
L 217.883006 -97.661523 
L 217.850036 -97.874047 
L 217.81191 -98.086571 
L 217.767971 -98.299094 
L 217.717599 -98.511618 
L 217.660212 -98.724142 
L 217.595274 -98.936666 
L 217.522296 -99.14919 
L 217.440846 -99.361714 
L 217.350546 -99.574238 
L 217.251081 -99.786762 
L 217.142198 -99.999286 
L 217.023713 -100.21181 
L 216.895509 -100.424334 
L 216.757542 -100.636857 
L 216.609838 -100.849381 
L 216.452497 -101.061905 
L 216.285694 -101.274429 
L 216.109676 -101.486953 
L 215.924763 -101.699477 
L 215.731347 -101.912001 
L 215.529892 -102.124525 
L 215.320928 -102.337049 
L 215.105053 -102.549573 
L 214.882924 -102.762096 
L 214.655263 -102.97462 
L 214.422843 -103.187144 
L 214.18649 -103.399668 
L 213.947079 -103.612192 
L 213.705523 -103.824716 
L 213.462776 -104.03724 
L 213.21982 -104.249764 
L 212.977667 -104.462288 
L 212.737346 -104.674812 
L 212.499901 -104.887336 
L 212.266385 -105.099859 
L 212.037854 -105.312383 
L 211.81536 -105.524907 
L 211.599943 -105.737431 
L 211.392631 -105.949955 
L 211.19443 -106.162479 
L 211.006316 -106.375003 
L 210.829238 -106.587527 
L 210.664102 -106.800051 
L 210.511776 -107.012575 
L 210.373079 -107.225098 
L 210.248779 -107.437622 
L 210.13959 -107.650146 
L 210.046164 -107.86267 
L 209.969096 -108.075194 
L 209.908912 -108.287718 
L 209.866073 -108.500242 
L 209.840971 -108.712766 
L 209.833929 -108.92529 
L 209.845195 -109.137814 
L 209.874949 -109.350337 
L 209.923296 -109.562861 
L 209.990272 -109.775385 
L 210.075839 -109.987909 
L 210.17989 -110.200433 
L 210.302251 -110.412957 
L 210.442679 -110.625481 
L 210.600867 -110.838005 
L 210.776446 -111.050529 
L 210.968989 -111.263053 
L 211.17801 -111.475577 
L 211.402973 -111.6881 
L 211.643291 -111.900624 
L 211.89833 -112.113148 
L 212.167418 -112.325672 
L 212.44984 -112.538196 
L 212.744851 -112.75072 
L 213.051676 -112.963244 
L 213.369513 -113.175768 
L 213.697539 -113.388292 
L 214.034914 -113.600816 
L 245.861514 -113.600816 
L 245.861514 -113.600816 
L 246.19889 -113.388292 
L 246.526916 -113.175768 
L 246.844752 -112.963244 
L 247.151577 -112.75072 
L 247.446589 -112.538196 
L 247.729011 -112.325672 
L 247.998098 -112.113148 
L 248.253138 -111.900624 
L 248.493455 -111.6881 
L 248.718418 -111.475577 
L 248.92744 -111.263053 
L 249.119982 -111.050529 
L 249.295562 -110.838005 
L 249.45375 -110.625481 
L 249.594178 -110.412957 
L 249.716538 -110.200433 
L 249.82059 -109.987909 
L 249.906157 -109.775385 
L 249.973132 -109.562861 
L 250.02148 -109.350337 
L 250.051234 -109.137814 
L 250.0625 -108.92529 
L 250.055457 -108.712766 
L 250.030356 -108.500242 
L 249.987517 -108.287718 
L 249.927333 -108.075194 
L 249.850264 -107.86267 
L 249.756839 -107.650146 
L 249.647649 -107.437622 
L 249.523349 -107.225098 
L 249.384652 -107.012575 
L 249.232327 -106.800051 
L 249.067191 -106.587527 
L 248.890112 -106.375003 
L 248.701999 -106.162479 
L 248.503797 -105.949955 
L 248.296485 -105.737431 
L 248.081069 -105.524907 
L 247.858574 -105.312383 
L 247.630043 -105.099859 
L 247.396528 -104.887336 
L 247.159083 -104.674812 
L 246.918762 -104.462288 
L 246.676608 -104.249764 
L 246.433653 -104.03724 
L 246.190906 -103.824716 
L 245.94935 -103.612192 
L 245.709938 -103.399668 
L 245.473586 -103.187144 
L 245.241166 -102.97462 
L 245.013504 -102.762096 
L 244.791376 -102.549573 
L 244.5755 -102.337049 
L 244.366536 -102.124525 
L 244.165081 -101.912001 
L 243.971666 -101.699477 
L 243.786753 -101.486953 
L 243.610735 -101.274429 
L 243.443931 -101.061905 
L 243.286591 -100.849381 
L 243.138887 -100.636857 
L 243.000919 -100.424334 
L 242.872716 -100.21181 
L 242.754231 -99.999286 
L 242.645348 -99.786762 
L 242.545883 -99.574238 
L 242.455583 -99.361714 
L 242.374132 -99.14919 
L 242.301155 -98.936666 
L 242.236216 -98.724142 
L 242.178829 -98.511618 
L 242.128457 -98.299094 
L 242.084519 -98.086571 
L 242.046393 -97.874047 
L 242.013422 -97.661523 
L 241.984922 -97.448999 
L 241.96018 -97.236475 
L 241.938466 -97.023951 
L 241.919038 -96.811427 
L 241.901141 -96.598903 
L 241.884022 -96.386379 
L 241.866925 -96.173855 
L 241.849107 -95.961332 
L 241.829834 -95.748808 
L 241.80839 -95.536284 
L 241.784083 -95.32376 
L 241.756246 -95.111236 
L 241.724243 -94.898712 
L 241.687474 -94.686188 
L 241.645375 -94.473664 
L 241.597427 -94.26114 
L 241.543153 -94.048616 
L 241.482123 -93.836093 
L 241.413957 -93.623569 
L 241.338324 -93.411045 
L 241.254949 -93.198521 
L 241.163605 -92.985997 
L 241.064121 -92.773473 
L 240.956381 -92.560949 
z
" style="stroke: #595959"/>
    </defs>
    <g clip-path="url(#pcb447d3bb2)">
     <use xlink:href="#m5bcc706881" x="0" y="144.823062" style="fill: #ffffff; stroke: #595959"/>
    </g>
   </g>
   <g id="PolyCollection_5">
    <defs>
     <path id="m1d6cfd30e3" d="M 290.663837 -95.329653 
L 269.80402 -95.329653 
L 269.516281 -95.548205 
L 269.226643 -95.766758 
L 268.935347 -95.985311 
L 268.642658 -96.203863 
L 268.348864 -96.422416 
L 268.054276 -96.640969 
L 267.759232 -96.859521 
L 267.464095 -97.078074 
L 267.169253 -97.296627 
L 266.875123 -97.515179 
L 266.582149 -97.733732 
L 266.290799 -97.952285 
L 266.001568 -98.170837 
L 265.714977 -98.38939 
L 265.431569 -98.607943 
L 265.151908 -98.826495 
L 264.876577 -99.045048 
L 264.606179 -99.263601 
L 264.341327 -99.482153 
L 264.082646 -99.700706 
L 263.830771 -99.919259 
L 263.586335 -100.137811 
L 263.349975 -100.356364 
L 263.12232 -100.574917 
L 262.90399 -100.793469 
L 262.695591 -101.012022 
L 262.497708 -101.230575 
L 262.310902 -101.449127 
L 262.135706 -101.66768 
L 261.972618 -101.886233 
L 261.822097 -102.104785 
L 261.684558 -102.323338 
L 261.560368 -102.541891 
L 261.449843 -102.760443 
L 261.353242 -102.978996 
L 261.270766 -103.197549 
L 261.202551 -103.416101 
L 261.148671 -103.634654 
L 261.109134 -103.853207 
L 261.083877 -104.071759 
L 261.072771 -104.290312 
L 261.075616 -104.508865 
L 261.092145 -104.727417 
L 261.122022 -104.94597 
L 261.164849 -105.164523 
L 261.22016 -105.383075 
L 261.287433 -105.601628 
L 261.366086 -105.82018 
L 261.455487 -106.038733 
L 261.554956 -106.257286 
L 261.663771 -106.475838 
L 261.781172 -106.694391 
L 261.906369 -106.912944 
L 262.038549 -107.131496 
L 262.17688 -107.350049 
L 262.320522 -107.568602 
L 262.46863 -107.787154 
L 262.620362 -108.005707 
L 262.774888 -108.22426 
L 262.931396 -108.442812 
L 263.089099 -108.661365 
L 263.24724 -108.879918 
L 263.405101 -109.09847 
L 263.562008 -109.317023 
L 263.717334 -109.535576 
L 263.87051 -109.754128 
L 264.021021 -109.972681 
L 264.168418 -110.191234 
L 264.312318 -110.409786 
L 264.452404 -110.628339 
L 264.588432 -110.846892 
L 264.720227 -111.065444 
L 264.847688 -111.283997 
L 264.970785 -111.50255 
L 265.08956 -111.721102 
L 265.204123 -111.939655 
L 265.314651 -112.158208 
L 265.421385 -112.37676 
L 265.524628 -112.595313 
L 265.624737 -112.813866 
L 265.722122 -113.032418 
L 265.81724 -113.250971 
L 265.910588 -113.469524 
L 266.002698 -113.688076 
L 266.094132 -113.906629 
L 266.185474 -114.125182 
L 266.277324 -114.343734 
L 266.370294 -114.562287 
L 266.464995 -114.78084 
L 266.562038 -114.999392 
L 266.662023 -115.217945 
L 266.765534 -115.436498 
L 266.873133 -115.65505 
L 266.985355 -115.873603 
L 267.102702 -116.092156 
L 267.225637 -116.310708 
L 267.354584 -116.529261 
L 267.489919 -116.747814 
L 267.631968 -116.966366 
L 292.835889 -116.966366 
L 292.835889 -116.966366 
L 292.977939 -116.747814 
L 293.113273 -116.529261 
L 293.24222 -116.310708 
L 293.365155 -116.092156 
L 293.482502 -115.873603 
L 293.594724 -115.65505 
L 293.702323 -115.436498 
L 293.805834 -115.217945 
L 293.905819 -114.999392 
L 294.002862 -114.78084 
L 294.097563 -114.562287 
L 294.190533 -114.343734 
L 294.282384 -114.125182 
L 294.373726 -113.906629 
L 294.465159 -113.688076 
L 294.557269 -113.469524 
L 294.650617 -113.250971 
L 294.745735 -113.032418 
L 294.84312 -112.813866 
L 294.943229 -112.595313 
L 295.046472 -112.37676 
L 295.153206 -112.158208 
L 295.263734 -111.939655 
L 295.378297 -111.721102 
L 295.497072 -111.50255 
L 295.620169 -111.283997 
L 295.74763 -111.065444 
L 295.879425 -110.846892 
L 296.015453 -110.628339 
L 296.155539 -110.409786 
L 296.299439 -110.191234 
L 296.446836 -109.972681 
L 296.597348 -109.754128 
L 296.750523 -109.535576 
L 296.905849 -109.317023 
L 297.062756 -109.09847 
L 297.220617 -108.879918 
L 297.378758 -108.661365 
L 297.536461 -108.442812 
L 297.692969 -108.22426 
L 297.847495 -108.005707 
L 297.999227 -107.787154 
L 298.147335 -107.568602 
L 298.290977 -107.350049 
L 298.429308 -107.131496 
L 298.561488 -106.912944 
L 298.686686 -106.694391 
L 298.804086 -106.475838 
L 298.912901 -106.257286 
L 299.01237 -106.038733 
L 299.101771 -105.82018 
L 299.180424 -105.601628 
L 299.247697 -105.383075 
L 299.303008 -105.164523 
L 299.345835 -104.94597 
L 299.375713 -104.727417 
L 299.392241 -104.508865 
L 299.395086 -104.290312 
L 299.38398 -104.071759 
L 299.358723 -103.853207 
L 299.319186 -103.634654 
L 299.265306 -103.416101 
L 299.197092 -103.197549 
L 299.114615 -102.978996 
L 299.018014 -102.760443 
L 298.907489 -102.541891 
L 298.783299 -102.323338 
L 298.64576 -102.104785 
L 298.495239 -101.886233 
L 298.332151 -101.66768 
L 298.156955 -101.449127 
L 297.97015 -101.230575 
L 297.772266 -101.012022 
L 297.563867 -100.793469 
L 297.345537 -100.574917 
L 297.117882 -100.356364 
L 296.881522 -100.137811 
L 296.637087 -99.919259 
L 296.385211 -99.700706 
L 296.126531 -99.482153 
L 295.861678 -99.263601 
L 295.59128 -99.045048 
L 295.315949 -98.826495 
L 295.036288 -98.607943 
L 294.75288 -98.38939 
L 294.466289 -98.170837 
L 294.177059 -97.952285 
L 293.885709 -97.733732 
L 293.592734 -97.515179 
L 293.298604 -97.296627 
L 293.003763 -97.078074 
L 292.708625 -96.859521 
L 292.413581 -96.640969 
L 292.118993 -96.422416 
L 291.825199 -96.203863 
L 291.53251 -95.985311 
L 291.241214 -95.766758 
L 290.951576 -95.548205 
L 290.663837 -95.329653 
z
" style="stroke: #595959"/>
    </defs>
    <g clip-path="url(#pcb447d3bb2)">
     <use xlink:href="#m1d6cfd30e3" x="0" y="144.823062" style="fill: #ffffff; stroke: #595959"/>
    </g>
   </g>
   <g id="PolyCollection_6">
    <defs>
     <path id="maaa4c313cc" d="M 338.854206 -95.216702 
L 322.185079 -95.216702 
L 321.945038 -95.496164 
L 321.70277 -95.775626 
L 321.458251 -96.055088 
L 321.211463 -96.33455 
L 320.962394 -96.614012 
L 320.711047 -96.893474 
L 320.457444 -97.172936 
L 320.201624 -97.452398 
L 319.943653 -97.73186 
L 319.683623 -98.011322 
L 319.42166 -98.290784 
L 319.157923 -98.570245 
L 318.892609 -98.849707 
L 318.625954 -99.129169 
L 318.358238 -99.408631 
L 318.089784 -99.688093 
L 317.820959 -99.967555 
L 317.552176 -100.247017 
L 317.283892 -100.526479 
L 317.01661 -100.805941 
L 316.750875 -101.085403 
L 316.487272 -101.364865 
L 316.226426 -101.644326 
L 315.968997 -101.923788 
L 315.715676 -102.20325 
L 315.467181 -102.482712 
L 315.224252 -102.762174 
L 314.987646 -103.041636 
L 314.758133 -103.321098 
L 314.536484 -103.60056 
L 314.323474 -103.880022 
L 314.119867 -104.159484 
L 313.926414 -104.438946 
L 313.743846 -104.718408 
L 313.572866 -104.997869 
L 313.414143 -105.277331 
L 313.268307 -105.556793 
L 313.135944 -105.836255 
L 313.017586 -106.115717 
L 312.913709 -106.395179 
L 312.824732 -106.674641 
L 312.751004 -106.954103 
L 312.69281 -107.233565 
L 312.650363 -107.513027 
L 312.623802 -107.792489 
L 312.613193 -108.07195 
L 312.618526 -108.351412 
L 312.639717 -108.630874 
L 312.676607 -108.910336 
L 312.728965 -109.189798 
L 312.79649 -109.46926 
L 312.878812 -109.748722 
L 312.9755 -110.028184 
L 313.086058 -110.307646 
L 313.20994 -110.587108 
L 313.346545 -110.86657 
L 313.49523 -111.146031 
L 313.655312 -111.425493 
L 313.826073 -111.704955 
L 314.006772 -111.984417 
L 314.196642 -112.263879 
L 314.394908 -112.543341 
L 314.600783 -112.822803 
L 314.813481 -113.102265 
L 315.03222 -113.381727 
L 315.25623 -113.661189 
L 315.484756 -113.940651 
L 315.717067 -114.220113 
L 315.952458 -114.499574 
L 316.190258 -114.779036 
L 316.429829 -115.058498 
L 316.670574 -115.33796 
L 316.91194 -115.617422 
L 317.153416 -115.896884 
L 317.394542 -116.176346 
L 317.634904 -116.455808 
L 317.874139 -116.73527 
L 318.111932 -117.014732 
L 318.34802 -117.294194 
L 318.582187 -117.573655 
L 318.814265 -117.853117 
L 319.04413 -118.132579 
L 319.271703 -118.412041 
L 319.496944 -118.691503 
L 319.719852 -118.970965 
L 319.94046 -119.250427 
L 320.158828 -119.529889 
L 320.375048 -119.809351 
L 320.589229 -120.088813 
L 320.801502 -120.368275 
L 321.012011 -120.647737 
L 321.220909 -120.927198 
L 321.428357 -121.20666 
L 321.634514 -121.486122 
L 321.83954 -121.765584 
L 322.043589 -122.045046 
L 322.246803 -122.324508 
L 322.449315 -122.60397 
L 322.651239 -122.883432 
L 338.388047 -122.883432 
L 338.388047 -122.883432 
L 338.589971 -122.60397 
L 338.792483 -122.324508 
L 338.995697 -122.045046 
L 339.199746 -121.765584 
L 339.404772 -121.486122 
L 339.610929 -121.20666 
L 339.818376 -120.927198 
L 340.027275 -120.647737 
L 340.237784 -120.368275 
L 340.450057 -120.088813 
L 340.664238 -119.809351 
L 340.880457 -119.529889 
L 341.098826 -119.250427 
L 341.319433 -118.970965 
L 341.542342 -118.691503 
L 341.767583 -118.412041 
L 341.995156 -118.132579 
L 342.225021 -117.853117 
L 342.457099 -117.573655 
L 342.691265 -117.294194 
L 342.927353 -117.014732 
L 343.165147 -116.73527 
L 343.404382 -116.455808 
L 343.644744 -116.176346 
L 343.885869 -115.896884 
L 344.127346 -115.617422 
L 344.368711 -115.33796 
L 344.609457 -115.058498 
L 344.849028 -114.779036 
L 345.086827 -114.499574 
L 345.322219 -114.220113 
L 345.55453 -113.940651 
L 345.783056 -113.661189 
L 346.007066 -113.381727 
L 346.225805 -113.102265 
L 346.438502 -112.822803 
L 346.644378 -112.543341 
L 346.842643 -112.263879 
L 347.032514 -111.984417 
L 347.213212 -111.704955 
L 347.383974 -111.425493 
L 347.544055 -111.146031 
L 347.69274 -110.86657 
L 347.829346 -110.587108 
L 347.953227 -110.307646 
L 348.063786 -110.028184 
L 348.160473 -109.748722 
L 348.242796 -109.46926 
L 348.310321 -109.189798 
L 348.362679 -108.910336 
L 348.399569 -108.630874 
L 348.42076 -108.351412 
L 348.426093 -108.07195 
L 348.415483 -107.792489 
L 348.388922 -107.513027 
L 348.346475 -107.233565 
L 348.288282 -106.954103 
L 348.214554 -106.674641 
L 348.125576 -106.395179 
L 348.0217 -106.115717 
L 347.903342 -105.836255 
L 347.770978 -105.556793 
L 347.625143 -105.277331 
L 347.46642 -104.997869 
L 347.29544 -104.718408 
L 347.112872 -104.438946 
L 346.919419 -104.159484 
L 346.715812 -103.880022 
L 346.502802 -103.60056 
L 346.281153 -103.321098 
L 346.051639 -103.041636 
L 345.815034 -102.762174 
L 345.572105 -102.482712 
L 345.323609 -102.20325 
L 345.070288 -101.923788 
L 344.812859 -101.644326 
L 344.552014 -101.364865 
L 344.288411 -101.085403 
L 344.022675 -100.805941 
L 343.755393 -100.526479 
L 343.48711 -100.247017 
L 343.218326 -99.967555 
L 342.949501 -99.688093 
L 342.681047 -99.408631 
L 342.413332 -99.129169 
L 342.146677 -98.849707 
L 341.881363 -98.570245 
L 341.617625 -98.290784 
L 341.355662 -98.011322 
L 341.095633 -97.73186 
L 340.837662 -97.452398 
L 340.581842 -97.172936 
L 340.328238 -96.893474 
L 340.076892 -96.614012 
L 339.827823 -96.33455 
L 339.581034 -96.055088 
L 339.336516 -95.775626 
L 339.094248 -95.496164 
L 338.854206 -95.216702 
z
" style="stroke: #595959"/>
    </defs>
    <g clip-path="url(#pcb447d3bb2)">
     <use xlink:href="#maaa4c313cc" x="0" y="144.823062" style="fill: #ffffff; stroke: #595959"/>
    </g>
   </g>
   <g id="patch_16">
    <path d="M 276.240904 40.872142 
Q 254.093367 39.354221 233.618956 37.950971 
" style="fill: none; opacity: 0.6; stroke: #b8e17c; stroke-width: 1.5; stroke-linecap: round"/>
    <path d="M 237.472841 40.219796 
L 233.618956 37.950971 
L 237.746347 36.229157 
" style="fill: none; opacity: 0.6; stroke: #b8e17c; stroke-width: 1.5; stroke-linecap: round"/>
   </g>
   <g id="patch_17">
    <path d="M 284.233092 41.123467 
Q 306.377692 40.999742 326.845267 40.885386 
" style="fill: none; opacity: 0.6; stroke: #ebf6ac; stroke-width: 1.5; stroke-linecap: round"/>
    <path d="M 322.834156 38.907766 
L 326.845267 40.885386 
L 322.856504 42.907703 
" style="fill: none; opacity: 0.6; stroke: #ebf6ac; stroke-width: 1.5; stroke-linecap: round"/>
   </g>
   <g id="patch_18">
    <path d="M 276.29615 28.550514 
Q 254.108037 32.459955 233.571535 36.078389 
" style="fill: none; opacity: 0.6; stroke: #f2854e; stroke-width: 1.5; stroke-linecap: round"/>
    <path d="M 237.8579 37.353959 
L 233.571535 36.078389 
L 237.16381 33.41464 
" style="fill: none; opacity: 0.6; stroke: #f2854e; stroke-width: 1.5; stroke-linecap: round"/>
   </g>
   <g id="patch_19">
    <path d="M 284.208538 27.389008 
Q 306.370539 24.78123 326.866979 22.369436 
" style="fill: none; opacity: 0.6; stroke: #a0d668; stroke-width: 1.5; stroke-linecap: round"/>
    <path d="M 322.660662 20.85059 
L 326.866979 22.369436 
L 323.128112 24.823182 
" style="fill: none; opacity: 0.6; stroke: #a0d668; stroke-width: 1.5; stroke-linecap: round"/>
   </g>
   <g id="patch_20">
    <path d="M 276.572377 29.837878 
Q 254.175193 39.678852 233.313386 48.845205 
" style="fill: none; opacity: 0.6; stroke: #d7191c; stroke-width: 1.5; stroke-linecap: round"/>
    <path d="M 237.780009 49.067185 
L 233.313386 48.845205 
L 236.170944 45.405094 
" style="fill: none; opacity: 0.6; stroke: #d7191c; stroke-width: 1.5; stroke-linecap: round"/>
   </g>
   <g id="patch_21">
    <path d="M 284.183984 28.866213 
Q 306.363391 32.44386 326.887148 35.754443 
" style="fill: none; opacity: 0.6; stroke: #f58e52; stroke-width: 1.5; stroke-linecap: round"/>
    <path d="M 323.256686 33.142979 
L 326.887148 35.754443 
L 322.6197 37.091935 
" style="fill: none; opacity: 0.6; stroke: #f58e52; stroke-width: 1.5; stroke-linecap: round"/>
   </g>
   <g id="patch_22">
    <path d="M 276.240904 49.713264 
Q 254.093367 50.932695 233.620344 52.059928 
" style="fill: none; opacity: 0.6; stroke: #fec57c; stroke-width: 1.5; stroke-linecap: round"/>
    <path d="M 237.724247 53.836999 
L 233.620344 52.059928 
L 237.504343 49.843048 
" style="fill: none; opacity: 0.6; stroke: #fec57c; stroke-width: 1.5; stroke-linecap: round"/>
   </g>
   <g id="patch_23">
    <path d="M 284.233092 49.502393 
Q 306.377692 49.552133 326.845246 49.598107 
" style="fill: none; opacity: 0.6; stroke: #fff3b1; stroke-width: 1.5; stroke-linecap: round"/>
    <path d="M 322.849748 47.589127 
L 326.845246 49.598107 
L 322.840763 51.589117 
" style="fill: none; opacity: 0.6; stroke: #fff3b1; stroke-width: 1.5; stroke-linecap: round"/>
   </g>
   <g id="patch_24">
    <path d="M 276.29615 39.5877 
Q 254.105209 35.582402 233.564651 31.874986 
" style="fill: none; opacity: 0.6; stroke: #7dc55e; stroke-width: 1.5; stroke-linecap: round"/>
    <path d="M 237.145801 34.553674 
L 233.564651 31.874986 
L 237.856291 30.617279 
" style="fill: none; opacity: 0.6; stroke: #7dc55e; stroke-width: 1.5; stroke-linecap: round"/>
   </g>
   <g id="patch_25">
    <path d="M 284.159431 39.525614 
Q 306.359079 35.155107 326.913262 31.108547 
" style="fill: none; opacity: 0.6; stroke: #76c25c; stroke-width: 1.5; stroke-linecap: round"/>
    <path d="M 322.602267 29.918874 
L 326.913262 31.108547 
L 323.374927 33.84354 
" style="fill: none; opacity: 0.6; stroke: #76c25c; stroke-width: 1.5; stroke-linecap: round"/>
   </g>
   <g id="patch_26">
    <path d="M 276.247042 39.483966 
Q 254.093743 37.674453 233.611927 36.001469 
" style="fill: none; opacity: 0.6; stroke: #b2de75; stroke-width: 1.5; stroke-linecap: round"/>
    <path d="M 237.435829 38.320471 
L 233.611927 36.001469 
L 237.761471 34.333748 
" style="fill: none; opacity: 0.6; stroke: #b2de75; stroke-width: 1.5; stroke-linecap: round"/>
   </g>
   <g id="patch_27">
    <path d="M 284.226953 39.582157 
Q 306.37449 38.320517 326.847691 37.154257 
" style="fill: none; opacity: 0.6; stroke: #bee381; stroke-width: 1.5; stroke-linecap: round"/>
    <path d="M 322.740419 35.384986 
L 326.847691 37.154257 
L 322.967911 39.378512 
" style="fill: none; opacity: 0.6; stroke: #bee381; stroke-width: 1.5; stroke-linecap: round"/>
   </g>
   <g id="PathCollection_19">
    <path d="M 229.948214 39.280529 
C 230.367537 39.280529 230.769742 39.11393 231.066248 38.817424 
C 231.362754 38.520918 231.529353 38.118713 231.529353 37.69939 
C 231.529353 37.280068 231.362754 36.877863 231.066248 36.581356 
C 230.769742 36.28485 230.367537 36.118252 229.948214 36.118252 
C 229.528891 36.118252 229.126686 36.28485 228.83018 36.581356 
C 228.533674 36.877863 228.367075 37.280068 228.367075 37.69939 
C 228.367075 38.118713 228.533674 38.520918 228.83018 38.817424 
C 229.126686 39.11393 229.528891 39.280529 229.948214 39.280529 
z
" clip-path="url(#pcb447d3bb2)" style="fill-opacity: 0.8"/>
   </g>
   <g id="PathCollection_20">
    <path d="M 280.233929 42.726949 
C 280.653251 42.726949 281.055456 42.560351 281.351963 42.263844 
C 281.648469 41.967338 281.815067 41.565133 281.815067 41.14581 
C 281.815067 40.726488 281.648469 40.324283 281.351963 40.027776 
C 281.055456 39.73127 280.653251 39.564672 280.233929 39.564672 
C 279.814606 39.564672 279.412401 39.73127 279.115895 40.027776 
C 278.819389 40.324283 278.65279 40.726488 278.65279 41.14581 
C 278.65279 41.565133 278.819389 41.967338 279.115895 42.263844 
C 279.412401 42.560351 279.814606 42.726949 280.233929 42.726949 
z
" clip-path="url(#pcb447d3bb2)" style="fill-opacity: 0.8"/>
   </g>
   <g id="PathCollection_21">
    <path d="M 330.519643 42.445996 
C 330.938966 42.445996 331.341171 42.279397 331.637677 41.982891 
C 331.934183 41.686385 332.100782 41.28418 332.100782 40.864857 
C 332.100782 40.445534 331.934183 40.043329 331.637677 39.746823 
C 331.341171 39.450317 330.938966 39.283718 330.519643 39.283718 
C 330.10032 39.283718 329.698115 39.450317 329.401609 39.746823 
C 329.105103 40.043329 328.938504 40.445534 328.938504 40.864857 
C 328.938504 41.28418 329.105103 41.686385 329.401609 41.982891 
C 329.698115 42.279397 330.10032 42.445996 330.519643 42.445996 
z
" clip-path="url(#pcb447d3bb2)" style="fill-opacity: 0.8"/>
   </g>
   <g id="PathCollection_22">
    <path d="M 229.948214 38.29794 
C 230.367537 38.29794 230.769742 38.131341 231.066248 37.834835 
C 231.362754 37.538329 231.529353 37.136124 231.529353 36.716801 
C 231.529353 36.297478 231.362754 35.895273 231.066248 35.598767 
C 230.769742 35.302261 230.367537 35.135662 229.948214 35.135662 
C 229.528891 35.135662 229.126686 35.302261 228.83018 35.598767 
C 228.533674 35.895273 228.367075 36.297478 228.367075 36.716801 
C 228.367075 37.136124 228.533674 37.538329 228.83018 37.834835 
C 229.126686 38.131341 229.528891 38.29794 229.948214 38.29794 
z
" clip-path="url(#pcb447d3bb2)" style="fill-opacity: 0.8"/>
   </g>
   <g id="PathCollection_23">
    <path d="M 280.233929 29.437835 
C 280.653251 29.437835 281.055456 29.271236 281.351963 28.97473 
C 281.648469 28.678224 281.815067 28.276019 281.815067 27.856696 
C 281.815067 27.437373 281.648469 27.035168 281.351963 26.738662 
C 281.055456 26.442156 280.653251 26.275557 280.233929 26.275557 
C 279.814606 26.275557 279.412401 26.442156 279.115895 26.738662 
C 278.819389 27.035168 278.65279 27.437373 278.65279 27.856696 
C 278.65279 28.276019 278.819389 28.678224 279.115895 28.97473 
C 279.412401 29.271236 279.814606 29.437835 280.233929 29.437835 
z
" clip-path="url(#pcb447d3bb2)" style="fill-opacity: 0.8"/>
   </g>
   <g id="PathCollection_24">
    <path d="M 330.519643 23.52077 
C 330.938966 23.52077 331.341171 23.354171 331.637677 23.057665 
C 331.934183 22.761159 332.100782 22.358954 332.100782 21.939631 
C 332.100782 21.520308 331.934183 21.118103 331.637677 20.821597 
C 331.341171 20.525091 330.938966 20.358492 330.519643 20.358492 
C 330.10032 20.358492 329.698115 20.525091 329.401609 20.821597 
C 329.105103 21.118103 328.938504 21.520308 328.938504 21.939631 
C 328.938504 22.358954 329.105103 22.761159 329.401609 23.057665 
C 329.698115 23.354171 330.10032 23.52077 330.519643 23.52077 
z
" clip-path="url(#pcb447d3bb2)" style="fill-opacity: 0.8"/>
   </g>
   <g id="PathCollection_25">
    <path d="M 229.948214 51.904948 
C 230.367537 51.904948 230.769742 51.738349 231.066248 51.441843 
C 231.362754 51.145337 231.529353 50.743132 231.529353 50.323809 
C 231.529353 49.904486 231.362754 49.502281 231.066248 49.205775 
C 230.769742 48.909269 230.367537 48.74267 229.948214 48.74267 
C 229.528891 48.74267 229.126686 48.909269 228.83018 49.205775 
C 228.533674 49.502281 228.367075 49.904486 228.367075 50.323809 
C 228.367075 50.743132 228.533674 51.145337 228.83018 51.441843 
C 229.126686 51.738349 229.528891 51.904948 229.948214 51.904948 
z
" clip-path="url(#pcb447d3bb2)" style="fill-opacity: 0.8"/>
   </g>
   <g id="PathCollection_26">
    <path d="M 280.233929 29.810188 
C 280.653251 29.810188 281.055456 29.643589 281.351963 29.347083 
C 281.648469 29.050577 281.815067 28.648372 281.815067 28.229049 
C 281.815067 27.809726 281.648469 27.407521 281.351963 27.111015 
C 281.055456 26.814509 280.653251 26.64791 280.233929 26.64791 
C 279.814606 26.64791 279.412401 26.814509 279.115895 27.111015 
C 278.819389 27.407521 278.65279 27.809726 278.65279 28.229049 
C 278.65279 28.648372 278.819389 29.050577 279.115895 29.347083 
C 279.412401 29.643589 279.814606 29.810188 280.233929 29.810188 
z
" clip-path="url(#pcb447d3bb2)" style="fill-opacity: 0.8"/>
   </g>
   <g id="PathCollection_27">
    <path d="M 330.519643 37.921521 
C 330.938966 37.921521 331.341171 37.754922 331.637677 37.458416 
C 331.934183 37.16191 332.100782 36.759705 332.100782 36.340382 
C 332.100782 35.921059 331.934183 35.518854 331.637677 35.222348 
C 331.341171 34.925842 330.938966 34.759243 330.519643 34.759243 
C 330.10032 34.759243 329.698115 34.925842 329.401609 35.222348 
C 329.105103 35.518854 328.938504 35.921059 328.938504 36.340382 
C 328.938504 36.759705 329.105103 37.16191 329.401609 37.458416 
C 329.698115 37.754922 330.10032 37.921521 330.519643 37.921521 
z
" clip-path="url(#pcb447d3bb2)" style="fill-opacity: 0.8"/>
   </g>
   <g id="PathCollection_28">
    <path d="M 229.948214 53.843252 
C 230.367537 53.843252 230.769742 53.676653 231.066248 53.380147 
C 231.362754 53.083641 231.529353 52.681436 231.529353 52.262113 
C 231.529353 51.84279 231.362754 51.440585 231.066248 51.144079 
C 230.769742 50.847573 230.367537 50.680975 229.948214 50.680975 
C 229.528891 50.680975 229.126686 50.847573 228.83018 51.144079 
C 228.533674 51.440585 228.367075 51.84279 228.367075 52.262113 
C 228.367075 52.681436 228.533674 53.083641 228.83018 53.380147 
C 229.126686 53.676653 229.528891 53.843252 229.948214 53.843252 
z
" clip-path="url(#pcb447d3bb2)" style="fill-opacity: 0.8"/>
   </g>
   <g id="PathCollection_29">
    <path d="M 280.233929 51.074549 
C 280.653251 51.074549 281.055456 50.90795 281.351963 50.611444 
C 281.648469 50.314938 281.815067 49.912733 281.815067 49.49341 
C 281.815067 49.074087 281.648469 48.671882 281.351963 48.375376 
C 281.055456 48.07887 280.653251 47.912271 280.233929 47.912271 
C 279.814606 47.912271 279.412401 48.07887 279.115895 48.375376 
C 278.819389 48.671882 278.65279 49.074087 278.65279 49.49341 
C 278.65279 49.912733 278.819389 50.314938 279.115895 50.611444 
C 279.412401 50.90795 279.814606 51.074549 280.233929 51.074549 
z
" clip-path="url(#pcb447d3bb2)" style="fill-opacity: 0.8"/>
   </g>
   <g id="PathCollection_30">
    <path d="M 330.519643 51.187499 
C 330.938966 51.187499 331.341171 51.0209 331.637677 50.724394 
C 331.934183 50.427888 332.100782 50.025683 332.100782 49.60636 
C 332.100782 49.187037 331.934183 48.784832 331.637677 48.488326 
C 331.341171 48.19182 330.938966 48.025221 330.519643 48.025221 
C 330.10032 48.025221 329.698115 48.19182 329.401609 48.488326 
C 329.105103 48.784832 328.938504 49.187037 328.938504 49.60636 
C 328.938504 50.025683 329.105103 50.427888 329.401609 50.724394 
C 329.698115 51.0209 330.10032 51.187499 330.519643 51.187499 
z
" clip-path="url(#pcb447d3bb2)" style="fill-opacity: 0.8"/>
   </g>
   <g id="PathCollection_31">
    <path d="M 229.948214 32.803386 
C 230.367537 32.803386 230.769742 32.636787 231.066248 32.340281 
C 231.362754 32.043775 231.529353 31.64157 231.529353 31.222247 
C 231.529353 30.802924 231.362754 30.400719 231.066248 30.104213 
C 230.769742 29.807707 230.367537 29.641108 229.948214 29.641108 
C 229.528891 29.641108 229.126686 29.807707 228.83018 30.104213 
C 228.533674 30.400719 228.367075 30.802924 228.367075 31.222247 
C 228.367075 31.64157 228.533674 32.043775 228.83018 32.340281 
C 229.126686 32.636787 229.528891 32.803386 229.948214 32.803386 
z
" clip-path="url(#pcb447d3bb2)" style="fill-opacity: 0.8"/>
   </g>
   <g id="PathCollection_32">
    <path d="M 280.233929 41.879578 
C 280.653251 41.879578 281.055456 41.712979 281.351963 41.416473 
C 281.648469 41.119967 281.815067 40.717762 281.815067 40.298439 
C 281.815067 39.879116 281.648469 39.476911 281.351963 39.180405 
C 281.055456 38.883899 280.653251 38.7173 280.233929 38.7173 
C 279.814606 38.7173 279.412401 38.883899 279.115895 39.180405 
C 278.819389 39.476911 278.65279 39.879116 278.65279 40.298439 
C 278.65279 40.717762 278.819389 41.119967 279.115895 41.416473 
C 279.412401 41.712979 279.814606 41.879578 280.233929 41.879578 
z
" clip-path="url(#pcb447d3bb2)" style="fill-opacity: 0.8"/>
   </g>
   <g id="PathCollection_33">
    <path d="M 330.519643 31.979688 
C 330.938966 31.979688 331.341171 31.813089 331.637677 31.516583 
C 331.934183 31.220077 332.100782 30.817872 332.100782 30.398549 
C 332.100782 29.979226 331.934183 29.577021 331.637677 29.280515 
C 331.341171 28.984009 330.938966 28.81741 330.519643 28.81741 
C 330.10032 28.81741 329.698115 28.984009 329.401609 29.280515 
C 329.105103 29.577021 328.938504 29.979226 328.938504 30.398549 
C 328.938504 30.817872 329.105103 31.220077 329.401609 31.516583 
C 329.698115 31.813089 330.10032 31.979688 330.519643 31.979688 
z
" clip-path="url(#pcb447d3bb2)" style="fill-opacity: 0.8"/>
   </g>
   <g id="PathCollection_34">
    <path d="M 229.948214 37.28335 
C 230.367537 37.28335 230.769742 37.116751 231.066248 36.820245 
C 231.362754 36.523739 231.529353 36.121534 231.529353 35.702211 
C 231.529353 35.282888 231.362754 34.880683 231.066248 34.584177 
C 230.769742 34.287671 230.367537 34.121072 229.948214 34.121072 
C 229.528891 34.121072 229.126686 34.287671 228.83018 34.584177 
C 228.533674 34.880683 228.367075 35.282888 228.367075 35.702211 
C 228.367075 36.121534 228.533674 36.523739 228.83018 36.820245 
C 229.126686 37.116751 229.528891 37.28335 229.948214 37.28335 
z
" clip-path="url(#pcb447d3bb2)" style="fill-opacity: 0.8"/>
   </g>
   <g id="PathCollection_35">
    <path d="M 280.233929 41.390759 
C 280.653251 41.390759 281.055456 41.22416 281.351963 40.927654 
C 281.648469 40.631148 281.815067 40.228943 281.815067 39.80962 
C 281.815067 39.390297 281.648469 38.988092 281.351963 38.691586 
C 281.055456 38.39508 280.653251 38.228482 280.233929 38.228482 
C 279.814606 38.228482 279.412401 38.39508 279.115895 38.691586 
C 278.819389 38.988092 278.65279 39.390297 278.65279 39.80962 
C 278.65279 40.228943 278.819389 40.631148 279.115895 40.927654 
C 279.412401 41.22416 279.814606 41.390759 280.233929 41.390759 
z
" clip-path="url(#pcb447d3bb2)" style="fill-opacity: 0.8"/>
   </g>
   <g id="PathCollection_36">
    <path d="M 330.519643 38.526222 
C 330.938966 38.526222 331.341171 38.359623 331.637677 38.063117 
C 331.934183 37.766611 332.100782 37.364406 332.100782 36.945083 
C 332.100782 36.52576 331.934183 36.123555 331.637677 35.827049 
C 331.341171 35.530543 330.938966 35.363944 330.519643 35.363944 
C 330.10032 35.363944 329.698115 35.530543 329.401609 35.827049 
C 329.105103 36.123555 328.938504 36.52576 328.938504 36.945083 
C 328.938504 37.364406 329.105103 37.766611 329.401609 38.063117 
C 329.698115 38.359623 330.10032 38.526222 330.519643 38.526222 
z
" clip-path="url(#pcb447d3bb2)" style="fill-opacity: 0.8"/>
   </g>
   <g id="text_14">
    <!-- Tested on Target -->
    <g style="fill: #262626" transform="translate(243.361272 14.357813) scale(0.1 -0.1)">
     <use xlink:href="#ArialMT-54"/>
     <use xlink:href="#ArialMT-65" x="49.958984"/>
     <use xlink:href="#ArialMT-73" x="105.574219"/>
     <use xlink:href="#ArialMT-74" x="155.574219"/>
     <use xlink:href="#ArialMT-65" x="183.357422"/>
     <use xlink:href="#ArialMT-64" x="238.972656"/>
     <use xlink:href="#ArialMT-20" x="294.587891"/>
     <use xlink:href="#ArialMT-6f" x="322.371094"/>
     <use xlink:href="#ArialMT-6e" x="377.986328"/>
     <use xlink:href="#ArialMT-20" x="433.601562"/>
     <use xlink:href="#ArialMT-54" x="459.634766"/>
     <use xlink:href="#ArialMT-61" x="509.59375"/>
     <use xlink:href="#ArialMT-72" x="565.208984"/>
     <use xlink:href="#ArialMT-67" x="598.509766"/>
     <use xlink:href="#ArialMT-65" x="654.125"/>
     <use xlink:href="#ArialMT-74" x="709.740234"/>
    </g>
   </g>
  </g>
 </g>
 <defs>
  <clipPath id="p1e4b74e2f0">
   <rect x="38.8625" y="17.357813" width="150.857143" height="100.8"/>
  </clipPath>
  <clipPath id="pcb447d3bb2">
   <rect x="204.805357" y="17.357813" width="150.857143" height="100.8"/>
  </clipPath>
 </defs>
</svg>
