<?xml version="1.0" encoding="utf-8" standalone="no"?>
<!DOCTYPE svg PUBLIC "-//W3C//DTD SVG 1.1//EN"
  "http://www.w3.org/Graphics/SVG/1.1/DTD/svg11.dtd">
<svg xmlns:xlink="http://www.w3.org/1999/xlink" width="308.837938pt" height="105.673625pt" viewBox="0 0 308.837938 105.673625" xmlns="http://www.w3.org/2000/svg" version="1.1">
 <metadata>
  <rdf:RDF xmlns:dc="http://purl.org/dc/elements/1.1/" xmlns:cc="http://creativecommons.org/ns#" xmlns:rdf="http://www.w3.org/1999/02/22-rdf-syntax-ns#">
   <cc:Work>
    <dc:type rdf:resource="http://purl.org/dc/dcmitype/StillImage"/>
    <dc:date>1980-01-01T00:00:00+00:00</dc:date>
    <dc:format>image/svg+xml</dc:format>
    <dc:creator>
     <cc:Agent>
      <dc:title>Matplotlib v3.9.0, https://matplotlib.org/</dc:title>
     </cc:Agent>
    </dc:creator>
   </cc:Work>
  </rdf:RDF>
 </metadata>
 <defs>
  <style type="text/css">*{stroke-linejoin: round; stroke-linecap: butt}</style>
 </defs>
 <g id="figure_1">
  <g id="patch_1">
   <path d="M 0 105.673625 
L 308.837938 105.673625 
L 308.837938 0 
L 0 0 
z
" style="fill: #ffffff"/>
  </g>
  <g id="axes_1">
   <g id="patch_2">
    <path d="M 35.525937 82.999688 
L 162.245938 82.999688 
L 162.245938 17.479687 
L 35.525937 17.479687 
z
" style="fill: #ffffff"/>
   </g>
   <g id="matplotlib.axis_1">
    <g id="xtick_1">
     <g id="text_1">
      <!-- Naively-tuned -->
      <g style="fill: #262626" transform="translate(38.304219 90.794375) scale(0.06 -0.06)">
       <defs>
        <path id="ArialMT-4e" d="M 488 0 
L 488 4581 
L 1109 4581 
L 3516 984 
L 3516 4581 
L 4097 4581 
L 4097 0 
L 3475 0 
L 1069 3600 
L 1069 0 
L 488 0 
z
" transform="scale(0.015625)"/>
        <path id="ArialMT-61" d="M 2588 409 
Q 2275 144 1986 34 
Q 1697 -75 1366 -75 
Q 819 -75 525 192 
Q 231 459 231 875 
Q 231 1119 342 1320 
Q 453 1522 633 1644 
Q 813 1766 1038 1828 
Q 1203 1872 1538 1913 
Q 2219 1994 2541 2106 
Q 2544 2222 2544 2253 
Q 2544 2597 2384 2738 
Q 2169 2928 1744 2928 
Q 1347 2928 1158 2789 
Q 969 2650 878 2297 
L 328 2372 
Q 403 2725 575 2942 
Q 747 3159 1072 3276 
Q 1397 3394 1825 3394 
Q 2250 3394 2515 3294 
Q 2781 3194 2906 3042 
Q 3031 2891 3081 2659 
Q 3109 2516 3109 2141 
L 3109 1391 
Q 3109 606 3145 398 
Q 3181 191 3288 0 
L 2700 0 
Q 2613 175 2588 409 
z
M 2541 1666 
Q 2234 1541 1622 1453 
Q 1275 1403 1131 1340 
Q 988 1278 909 1158 
Q 831 1038 831 891 
Q 831 666 1001 516 
Q 1172 366 1500 366 
Q 1825 366 2078 508 
Q 2331 650 2450 897 
Q 2541 1088 2541 1459 
L 2541 1666 
z
" transform="scale(0.015625)"/>
        <path id="ArialMT-69" d="M 425 3934 
L 425 4581 
L 988 4581 
L 988 3934 
L 425 3934 
z
M 425 0 
L 425 3319 
L 988 3319 
L 988 0 
L 425 0 
z
" transform="scale(0.015625)"/>
        <path id="ArialMT-76" d="M 1344 0 
L 81 3319 
L 675 3319 
L 1388 1331 
Q 1503 1009 1600 663 
Q 1675 925 1809 1294 
L 2547 3319 
L 3125 3319 
L 1869 0 
L 1344 0 
z
" transform="scale(0.015625)"/>
        <path id="ArialMT-65" d="M 2694 1069 
L 3275 997 
Q 3138 488 2766 206 
Q 2394 -75 1816 -75 
Q 1088 -75 661 373 
Q 234 822 234 1631 
Q 234 2469 665 2931 
Q 1097 3394 1784 3394 
Q 2450 3394 2872 2941 
Q 3294 2488 3294 1666 
Q 3294 1616 3291 1516 
L 816 1516 
Q 847 969 1125 678 
Q 1403 388 1819 388 
Q 2128 388 2347 550 
Q 2566 713 2694 1069 
z
M 847 1978 
L 2700 1978 
Q 2663 2397 2488 2606 
Q 2219 2931 1791 2931 
Q 1403 2931 1139 2672 
Q 875 2413 847 1978 
z
" transform="scale(0.015625)"/>
        <path id="ArialMT-6c" d="M 409 0 
L 409 4581 
L 972 4581 
L 972 0 
L 409 0 
z
" transform="scale(0.015625)"/>
        <path id="ArialMT-79" d="M 397 -1278 
L 334 -750 
Q 519 -800 656 -800 
Q 844 -800 956 -737 
Q 1069 -675 1141 -563 
Q 1194 -478 1313 -144 
Q 1328 -97 1363 -6 
L 103 3319 
L 709 3319 
L 1400 1397 
Q 1534 1031 1641 628 
Q 1738 1016 1872 1384 
L 2581 3319 
L 3144 3319 
L 1881 -56 
Q 1678 -603 1566 -809 
Q 1416 -1088 1222 -1217 
Q 1028 -1347 759 -1347 
Q 597 -1347 397 -1278 
z
" transform="scale(0.015625)"/>
        <path id="ArialMT-2d" d="M 203 1375 
L 203 1941 
L 1931 1941 
L 1931 1375 
L 203 1375 
z
" transform="scale(0.015625)"/>
        <path id="ArialMT-74" d="M 1650 503 
L 1731 6 
Q 1494 -44 1306 -44 
Q 1000 -44 831 53 
Q 663 150 594 308 
Q 525 466 525 972 
L 525 2881 
L 113 2881 
L 113 3319 
L 525 3319 
L 525 4141 
L 1084 4478 
L 1084 3319 
L 1650 3319 
L 1650 2881 
L 1084 2881 
L 1084 941 
Q 1084 700 1114 631 
Q 1144 563 1211 522 
Q 1278 481 1403 481 
Q 1497 481 1650 503 
z
" transform="scale(0.015625)"/>
        <path id="ArialMT-75" d="M 2597 0 
L 2597 488 
Q 2209 -75 1544 -75 
Q 1250 -75 995 37 
Q 741 150 617 320 
Q 494 491 444 738 
Q 409 903 409 1263 
L 409 3319 
L 972 3319 
L 972 1478 
Q 972 1038 1006 884 
Q 1059 663 1231 536 
Q 1403 409 1656 409 
Q 1909 409 2131 539 
Q 2353 669 2445 892 
Q 2538 1116 2538 1541 
L 2538 3319 
L 3100 3319 
L 3100 0 
L 2597 0 
z
" transform="scale(0.015625)"/>
        <path id="ArialMT-6e" d="M 422 0 
L 422 3319 
L 928 3319 
L 928 2847 
Q 1294 3394 1984 3394 
Q 2284 3394 2536 3286 
Q 2788 3178 2913 3003 
Q 3038 2828 3088 2588 
Q 3119 2431 3119 2041 
L 3119 0 
L 2556 0 
L 2556 2019 
Q 2556 2363 2490 2533 
Q 2425 2703 2258 2804 
Q 2091 2906 1866 2906 
Q 1506 2906 1245 2678 
Q 984 2450 984 1813 
L 984 0 
L 422 0 
z
" transform="scale(0.015625)"/>
        <path id="ArialMT-64" d="M 2575 0 
L 2575 419 
Q 2259 -75 1647 -75 
Q 1250 -75 917 144 
Q 584 363 401 755 
Q 219 1147 219 1656 
Q 219 2153 384 2558 
Q 550 2963 881 3178 
Q 1213 3394 1622 3394 
Q 1922 3394 2156 3267 
Q 2391 3141 2538 2938 
L 2538 4581 
L 3097 4581 
L 3097 0 
L 2575 0 
z
M 797 1656 
Q 797 1019 1065 703 
Q 1334 388 1700 388 
Q 2069 388 2326 689 
Q 2584 991 2584 1609 
Q 2584 2291 2321 2609 
Q 2059 2928 1675 2928 
Q 1300 2928 1048 2622 
Q 797 2316 797 1656 
z
" transform="scale(0.015625)"/>
       </defs>
       <use xlink:href="#ArialMT-4e"/>
       <use xlink:href="#ArialMT-61" x="72.216797"/>
       <use xlink:href="#ArialMT-69" x="127.832031"/>
       <use xlink:href="#ArialMT-76" x="150.048828"/>
       <use xlink:href="#ArialMT-65" x="200.048828"/>
       <use xlink:href="#ArialMT-6c" x="255.664062"/>
       <use xlink:href="#ArialMT-79" x="277.880859"/>
       <use xlink:href="#ArialMT-2d" x="327.880859"/>
       <use xlink:href="#ArialMT-74" x="361.181641"/>
       <use xlink:href="#ArialMT-75" x="388.964844"/>
       <use xlink:href="#ArialMT-6e" x="444.580078"/>
       <use xlink:href="#ArialMT-65" x="500.195312"/>
       <use xlink:href="#ArialMT-64" x="555.810547"/>
      </g>
      <!-- on target -->
      <g style="fill: #262626" transform="translate(44.805312 97.210813) scale(0.06 -0.06)">
       <defs>
        <path id="ArialMT-6f" d="M 213 1659 
Q 213 2581 725 3025 
Q 1153 3394 1769 3394 
Q 2453 3394 2887 2945 
Q 3322 2497 3322 1706 
Q 3322 1066 3130 698 
Q 2938 331 2570 128 
Q 2203 -75 1769 -75 
Q 1072 -75 642 372 
Q 213 819 213 1659 
z
M 791 1659 
Q 791 1022 1069 705 
Q 1347 388 1769 388 
Q 2188 388 2466 706 
Q 2744 1025 2744 1678 
Q 2744 2294 2464 2611 
Q 2184 2928 1769 2928 
Q 1347 2928 1069 2612 
Q 791 2297 791 1659 
z
" transform="scale(0.015625)"/>
        <path id="ArialMT-20" transform="scale(0.015625)"/>
        <path id="ArialMT-72" d="M 416 0 
L 416 3319 
L 922 3319 
L 922 2816 
Q 1116 3169 1280 3281 
Q 1444 3394 1641 3394 
Q 1925 3394 2219 3213 
L 2025 2691 
Q 1819 2813 1613 2813 
Q 1428 2813 1281 2702 
Q 1134 2591 1072 2394 
Q 978 2094 978 1738 
L 978 0 
L 416 0 
z
" transform="scale(0.015625)"/>
        <path id="ArialMT-67" d="M 319 -275 
L 866 -356 
Q 900 -609 1056 -725 
Q 1266 -881 1628 -881 
Q 2019 -881 2231 -725 
Q 2444 -569 2519 -288 
Q 2563 -116 2559 434 
Q 2191 0 1641 0 
Q 956 0 581 494 
Q 206 988 206 1678 
Q 206 2153 378 2554 
Q 550 2956 876 3175 
Q 1203 3394 1644 3394 
Q 2231 3394 2613 2919 
L 2613 3319 
L 3131 3319 
L 3131 450 
Q 3131 -325 2973 -648 
Q 2816 -972 2473 -1159 
Q 2131 -1347 1631 -1347 
Q 1038 -1347 672 -1080 
Q 306 -813 319 -275 
z
M 784 1719 
Q 784 1066 1043 766 
Q 1303 466 1694 466 
Q 2081 466 2343 764 
Q 2606 1063 2606 1700 
Q 2606 2309 2336 2618 
Q 2066 2928 1684 2928 
Q 1309 2928 1046 2623 
Q 784 2319 784 1719 
z
" transform="scale(0.015625)"/>
       </defs>
       <use xlink:href="#ArialMT-6f"/>
       <use xlink:href="#ArialMT-6e" x="55.615234"/>
       <use xlink:href="#ArialMT-20" x="111.230469"/>
       <use xlink:href="#ArialMT-74" x="139.013672"/>
       <use xlink:href="#ArialMT-61" x="166.796875"/>
       <use xlink:href="#ArialMT-72" x="222.412109"/>
       <use xlink:href="#ArialMT-67" x="255.712891"/>
       <use xlink:href="#ArialMT-65" x="311.328125"/>
       <use xlink:href="#ArialMT-74" x="366.943359"/>
      </g>
     </g>
    </g>
    <g id="xtick_2">
     <g id="text_2">
      <!-- Agents trained -->
      <g style="fill: #262626" transform="translate(79.541094 90.794375) scale(0.06 -0.06)">
       <defs>
        <path id="ArialMT-41" d="M -9 0 
L 1750 4581 
L 2403 4581 
L 4278 0 
L 3588 0 
L 3053 1388 
L 1138 1388 
L 634 0 
L -9 0 
z
M 1313 1881 
L 2866 1881 
L 2388 3150 
Q 2169 3728 2063 4100 
Q 1975 3659 1816 3225 
L 1313 1881 
z
" transform="scale(0.015625)"/>
        <path id="ArialMT-73" d="M 197 991 
L 753 1078 
Q 800 744 1014 566 
Q 1228 388 1613 388 
Q 2000 388 2187 545 
Q 2375 703 2375 916 
Q 2375 1106 2209 1216 
Q 2094 1291 1634 1406 
Q 1016 1563 777 1677 
Q 538 1791 414 1992 
Q 291 2194 291 2438 
Q 291 2659 392 2848 
Q 494 3038 669 3163 
Q 800 3259 1026 3326 
Q 1253 3394 1513 3394 
Q 1903 3394 2198 3281 
Q 2494 3169 2634 2976 
Q 2775 2784 2828 2463 
L 2278 2388 
Q 2241 2644 2061 2787 
Q 1881 2931 1553 2931 
Q 1166 2931 1000 2803 
Q 834 2675 834 2503 
Q 834 2394 903 2306 
Q 972 2216 1119 2156 
Q 1203 2125 1616 2013 
Q 2213 1853 2448 1751 
Q 2684 1650 2818 1456 
Q 2953 1263 2953 975 
Q 2953 694 2789 445 
Q 2625 197 2315 61 
Q 2006 -75 1616 -75 
Q 969 -75 630 194 
Q 291 463 197 991 
z
" transform="scale(0.015625)"/>
       </defs>
       <use xlink:href="#ArialMT-41"/>
       <use xlink:href="#ArialMT-67" x="66.699219"/>
       <use xlink:href="#ArialMT-65" x="122.314453"/>
       <use xlink:href="#ArialMT-6e" x="177.929688"/>
       <use xlink:href="#ArialMT-74" x="233.544922"/>
       <use xlink:href="#ArialMT-73" x="261.328125"/>
       <use xlink:href="#ArialMT-20" x="311.328125"/>
       <use xlink:href="#ArialMT-74" x="339.111328"/>
       <use xlink:href="#ArialMT-72" x="366.894531"/>
       <use xlink:href="#ArialMT-61" x="400.195312"/>
       <use xlink:href="#ArialMT-69" x="455.810547"/>
       <use xlink:href="#ArialMT-6e" x="478.027344"/>
       <use xlink:href="#ArialMT-65" x="533.642578"/>
       <use xlink:href="#ArialMT-64" x="589.257812"/>
      </g>
      <!-- on source -->
      <g style="fill: #262626" transform="translate(85.712188 97.210813) scale(0.06 -0.06)">
       <defs>
        <path id="ArialMT-63" d="M 2588 1216 
L 3141 1144 
Q 3050 572 2676 248 
Q 2303 -75 1759 -75 
Q 1078 -75 664 370 
Q 250 816 250 1647 
Q 250 2184 428 2587 
Q 606 2991 970 3192 
Q 1334 3394 1763 3394 
Q 2303 3394 2647 3120 
Q 2991 2847 3088 2344 
L 2541 2259 
Q 2463 2594 2264 2762 
Q 2066 2931 1784 2931 
Q 1359 2931 1093 2626 
Q 828 2322 828 1663 
Q 828 994 1084 691 
Q 1341 388 1753 388 
Q 2084 388 2306 591 
Q 2528 794 2588 1216 
z
" transform="scale(0.015625)"/>
       </defs>
       <use xlink:href="#ArialMT-6f"/>
       <use xlink:href="#ArialMT-6e" x="55.615234"/>
       <use xlink:href="#ArialMT-20" x="111.230469"/>
       <use xlink:href="#ArialMT-73" x="139.013672"/>
       <use xlink:href="#ArialMT-6f" x="189.013672"/>
       <use xlink:href="#ArialMT-75" x="244.628906"/>
       <use xlink:href="#ArialMT-72" x="300.244141"/>
       <use xlink:href="#ArialMT-63" x="333.544922"/>
       <use xlink:href="#ArialMT-65" x="383.544922"/>
      </g>
     </g>
    </g>
    <g id="xtick_3">
     <g id="text_3">
      <!-- Anchor-tuned -->
      <g style="fill: #262626" transform="translate(123.115625 90.794375) scale(0.06 -0.06)">
       <defs>
        <path id="ArialMT-68" d="M 422 0 
L 422 4581 
L 984 4581 
L 984 2938 
Q 1378 3394 1978 3394 
Q 2347 3394 2619 3248 
Q 2891 3103 3008 2847 
Q 3125 2591 3125 2103 
L 3125 0 
L 2563 0 
L 2563 2103 
Q 2563 2525 2380 2717 
Q 2197 2909 1863 2909 
Q 1613 2909 1392 2779 
Q 1172 2650 1078 2428 
Q 984 2206 984 1816 
L 984 0 
L 422 0 
z
" transform="scale(0.015625)"/>
       </defs>
       <use xlink:href="#ArialMT-41"/>
       <use xlink:href="#ArialMT-6e" x="66.699219"/>
       <use xlink:href="#ArialMT-63" x="122.314453"/>
       <use xlink:href="#ArialMT-68" x="172.314453"/>
       <use xlink:href="#ArialMT-6f" x="227.929688"/>
       <use xlink:href="#ArialMT-72" x="283.544922"/>
       <use xlink:href="#ArialMT-2d" x="316.845703"/>
       <use xlink:href="#ArialMT-74" x="350.146484"/>
       <use xlink:href="#ArialMT-75" x="377.929688"/>
       <use xlink:href="#ArialMT-6e" x="433.544922"/>
       <use xlink:href="#ArialMT-65" x="489.160156"/>
       <use xlink:href="#ArialMT-64" x="544.775391"/>
      </g>
      <!-- on target -->
      <g style="fill: #262626" transform="translate(129.285313 97.1405) scale(0.06 -0.06)">
       <use xlink:href="#ArialMT-6f"/>
       <use xlink:href="#ArialMT-6e" x="55.615234"/>
       <use xlink:href="#ArialMT-20" x="111.230469"/>
       <use xlink:href="#ArialMT-74" x="139.013672"/>
       <use xlink:href="#ArialMT-61" x="166.796875"/>
       <use xlink:href="#ArialMT-72" x="222.412109"/>
       <use xlink:href="#ArialMT-67" x="255.712891"/>
       <use xlink:href="#ArialMT-65" x="311.328125"/>
       <use xlink:href="#ArialMT-74" x="366.943359"/>
      </g>
     </g>
    </g>
   </g>
   <g id="matplotlib.axis_2">
    <g id="ytick_1">
     <g id="line2d_1">
      <path d="M 35.525937 80.027446 
L 162.245938 80.027446 
" clip-path="url(#p9e2ddb6285)" style="fill: none; stroke-dasharray: 2.96,1.28; stroke-dashoffset: 0; stroke: #cccccc; stroke-opacity: 0.3; stroke-width: 0.8"/>
     </g>
     <g id="text_4">
      <!-- 0 -->
      <g style="fill: #262626" transform="translate(25.189375 82.174789) scale(0.06 -0.06)">
       <defs>
        <path id="ArialMT-30" d="M 266 2259 
Q 266 3072 433 3567 
Q 600 4063 929 4331 
Q 1259 4600 1759 4600 
Q 2128 4600 2406 4451 
Q 2684 4303 2865 4023 
Q 3047 3744 3150 3342 
Q 3253 2941 3253 2259 
Q 3253 1453 3087 958 
Q 2922 463 2592 192 
Q 2263 -78 1759 -78 
Q 1097 -78 719 397 
Q 266 969 266 2259 
z
M 844 2259 
Q 844 1131 1108 757 
Q 1372 384 1759 384 
Q 2147 384 2411 759 
Q 2675 1134 2675 2259 
Q 2675 3391 2411 3762 
Q 2147 4134 1753 4134 
Q 1366 4134 1134 3806 
Q 844 3388 844 2259 
z
" transform="scale(0.015625)"/>
       </defs>
       <use xlink:href="#ArialMT-30"/>
      </g>
     </g>
    </g>
    <g id="ytick_2">
     <g id="line2d_2">
      <path d="M 35.525937 54.942592 
L 162.245938 54.942592 
" clip-path="url(#p9e2ddb6285)" style="fill: none; stroke-dasharray: 2.96,1.28; stroke-dashoffset: 0; stroke: #cccccc; stroke-opacity: 0.3; stroke-width: 0.8"/>
     </g>
     <g id="text_5">
      <!-- 100 -->
      <g style="fill: #262626" transform="translate(18.51625 57.089936) scale(0.06 -0.06)">
       <defs>
        <path id="ArialMT-31" d="M 2384 0 
L 1822 0 
L 1822 3584 
Q 1619 3391 1289 3197 
Q 959 3003 697 2906 
L 697 3450 
Q 1169 3672 1522 3987 
Q 1875 4303 2022 4600 
L 2384 4600 
L 2384 0 
z
" transform="scale(0.015625)"/>
       </defs>
       <use xlink:href="#ArialMT-31"/>
       <use xlink:href="#ArialMT-30" x="55.615234"/>
       <use xlink:href="#ArialMT-30" x="111.230469"/>
      </g>
     </g>
    </g>
    <g id="ytick_3">
     <g id="line2d_3">
      <path d="M 35.525937 29.857739 
L 162.245938 29.857739 
" clip-path="url(#p9e2ddb6285)" style="fill: none; stroke-dasharray: 2.96,1.28; stroke-dashoffset: 0; stroke: #cccccc; stroke-opacity: 0.3; stroke-width: 0.8"/>
     </g>
     <g id="text_6">
      <!-- 200 -->
      <g style="fill: #262626" transform="translate(18.51625 32.005082) scale(0.06 -0.06)">
       <defs>
        <path id="ArialMT-32" d="M 3222 541 
L 3222 0 
L 194 0 
Q 188 203 259 391 
Q 375 700 629 1000 
Q 884 1300 1366 1694 
Q 2113 2306 2375 2664 
Q 2638 3022 2638 3341 
Q 2638 3675 2398 3904 
Q 2159 4134 1775 4134 
Q 1369 4134 1125 3890 
Q 881 3647 878 3216 
L 300 3275 
Q 359 3922 746 4261 
Q 1134 4600 1788 4600 
Q 2447 4600 2831 4234 
Q 3216 3869 3216 3328 
Q 3216 3053 3103 2787 
Q 2991 2522 2730 2228 
Q 2469 1934 1863 1422 
Q 1356 997 1212 845 
Q 1069 694 975 541 
L 3222 541 
z
" transform="scale(0.015625)"/>
       </defs>
       <use xlink:href="#ArialMT-32"/>
       <use xlink:href="#ArialMT-30" x="55.615234"/>
       <use xlink:href="#ArialMT-30" x="111.230469"/>
      </g>
     </g>
    </g>
    <g id="text_7">
     <!-- Rewards -->
     <g style="fill: #262626" transform="translate(12.92625 66.022188) rotate(-90) scale(0.08 -0.08)">
      <defs>
       <path id="ArialMT-52" d="M 503 0 
L 503 4581 
L 2534 4581 
Q 3147 4581 3465 4457 
Q 3784 4334 3975 4021 
Q 4166 3709 4166 3331 
Q 4166 2844 3850 2509 
Q 3534 2175 2875 2084 
Q 3116 1969 3241 1856 
Q 3506 1613 3744 1247 
L 4541 0 
L 3778 0 
L 3172 953 
Q 2906 1366 2734 1584 
Q 2563 1803 2427 1890 
Q 2291 1978 2150 2013 
Q 2047 2034 1813 2034 
L 1109 2034 
L 1109 0 
L 503 0 
z
M 1109 2559 
L 2413 2559 
Q 2828 2559 3062 2645 
Q 3297 2731 3419 2920 
Q 3541 3109 3541 3331 
Q 3541 3656 3305 3865 
Q 3069 4075 2559 4075 
L 1109 4075 
L 1109 2559 
z
" transform="scale(0.015625)"/>
       <path id="ArialMT-77" d="M 1034 0 
L 19 3319 
L 600 3319 
L 1128 1403 
L 1325 691 
Q 1338 744 1497 1375 
L 2025 3319 
L 2603 3319 
L 3100 1394 
L 3266 759 
L 3456 1400 
L 4025 3319 
L 4572 3319 
L 3534 0 
L 2950 0 
L 2422 1988 
L 2294 2553 
L 1622 0 
L 1034 0 
z
" transform="scale(0.015625)"/>
      </defs>
      <use xlink:href="#ArialMT-52"/>
      <use xlink:href="#ArialMT-65" x="72.216797"/>
      <use xlink:href="#ArialMT-77" x="127.832031"/>
      <use xlink:href="#ArialMT-61" x="200.048828"/>
      <use xlink:href="#ArialMT-72" x="255.664062"/>
      <use xlink:href="#ArialMT-64" x="288.964844"/>
      <use xlink:href="#ArialMT-73" x="344.580078"/>
     </g>
    </g>
   </g>
   <g id="PolyCollection_1">
    <defs>
     <path id="me298b88f21" d="M 73.470337 -26.659536 
L 39.821538 -26.659536 
L 39.776017 -27.102528 
L 39.752124 -27.545519 
L 39.749938 -27.98851 
L 39.769448 -28.431501 
L 39.810561 -28.874492 
L 39.873098 -29.317483 
L 39.956795 -29.760474 
L 40.061306 -30.203465 
L 40.186204 -30.646456 
L 40.330986 -31.089447 
L 40.495073 -31.532438 
L 40.677812 -31.97543 
L 40.878486 -32.418421 
L 41.096313 -32.861412 
L 41.330454 -33.304403 
L 41.580012 -33.747394 
L 41.844047 -34.190385 
L 42.121571 -34.633376 
L 42.411561 -35.076367 
L 42.712962 -35.519358 
L 43.024692 -35.962349 
L 43.345649 -36.405341 
L 43.674717 -36.848332 
L 44.01077 -37.291323 
L 44.35268 -37.734314 
L 44.699323 -38.177305 
L 45.04958 -38.620296 
L 45.402348 -39.063287 
L 45.756542 -39.506278 
L 46.111097 -39.949269 
L 46.46498 -40.39226 
L 46.817187 -40.835251 
L 47.166749 -41.278243 
L 47.512736 -41.721234 
L 47.854263 -42.164225 
L 48.190487 -42.607216 
L 48.520613 -43.050207 
L 48.843895 -43.493198 
L 49.15964 -43.936189 
L 49.467205 -44.37918 
L 49.766002 -44.822171 
L 50.055498 -45.265162 
L 50.335212 -45.708153 
L 50.604721 -46.151145 
L 50.863655 -46.594136 
L 51.111696 -47.037127 
L 51.348583 -47.480118 
L 51.574104 -47.923109 
L 51.788101 -48.3661 
L 51.990463 -48.809091 
L 52.18113 -49.252082 
L 52.360087 -49.695073 
L 52.527364 -50.138064 
L 52.683033 -50.581056 
L 52.827208 -51.024047 
L 52.960042 -51.467038 
L 53.081723 -51.910029 
L 53.192476 -52.35302 
L 53.292555 -52.796011 
L 53.382246 -53.239002 
L 53.461862 -53.681993 
L 53.531742 -54.124984 
L 53.592248 -54.567975 
L 53.643763 -55.010966 
L 53.686689 -55.453958 
L 53.721444 -55.896949 
L 53.748462 -56.33994 
L 53.768188 -56.782931 
L 53.781079 -57.225922 
L 53.7876 -57.668913 
L 53.788223 -58.111904 
L 53.783423 -58.554895 
L 53.773681 -58.997886 
L 53.759476 -59.440877 
L 53.741288 -59.883868 
L 53.719595 -60.32686 
L 53.69487 -60.769851 
L 53.667581 -61.212842 
L 53.63819 -61.655833 
L 53.607147 -62.098824 
L 53.574897 -62.541815 
L 53.541869 -62.984806 
L 53.508481 -63.427797 
L 53.475139 -63.870788 
L 53.44223 -64.313779 
L 53.410128 -64.756771 
L 53.379187 -65.199762 
L 53.349745 -65.642753 
L 53.32212 -66.085744 
L 53.296609 -66.528735 
L 53.273488 -66.971726 
L 53.253013 -67.414717 
L 53.235417 -67.857708 
L 53.220911 -68.300699 
L 53.209683 -68.74369 
L 53.201897 -69.186681 
L 53.197695 -69.629673 
L 53.197195 -70.072664 
L 53.200492 -70.515655 
L 60.091383 -70.515655 
L 60.091383 -70.515655 
L 60.09468 -70.072664 
L 60.09418 -69.629673 
L 60.089978 -69.186681 
L 60.082192 -68.74369 
L 60.070964 -68.300699 
L 60.056458 -67.857708 
L 60.038862 -67.414717 
L 60.018387 -66.971726 
L 59.995266 -66.528735 
L 59.969755 -66.085744 
L 59.94213 -65.642753 
L 59.912688 -65.199762 
L 59.881747 -64.756771 
L 59.849645 -64.313779 
L 59.816736 -63.870788 
L 59.783394 -63.427797 
L 59.750006 -62.984806 
L 59.716978 -62.541815 
L 59.684728 -62.098824 
L 59.653685 -61.655833 
L 59.624294 -61.212842 
L 59.597005 -60.769851 
L 59.57228 -60.32686 
L 59.550587 -59.883868 
L 59.532399 -59.440877 
L 59.518194 -58.997886 
L 59.508452 -58.554895 
L 59.503652 -58.111904 
L 59.504275 -57.668913 
L 59.510796 -57.225922 
L 59.523687 -56.782931 
L 59.543413 -56.33994 
L 59.570431 -55.896949 
L 59.605186 -55.453958 
L 59.648112 -55.010966 
L 59.699627 -54.567975 
L 59.760133 -54.124984 
L 59.830013 -53.681993 
L 59.909629 -53.239002 
L 59.99932 -52.796011 
L 60.099399 -52.35302 
L 60.210152 -51.910029 
L 60.331833 -51.467038 
L 60.464667 -51.024047 
L 60.608842 -50.581056 
L 60.764511 -50.138064 
L 60.931788 -49.695073 
L 61.110745 -49.252082 
L 61.301412 -48.809091 
L 61.503774 -48.3661 
L 61.717771 -47.923109 
L 61.943292 -47.480118 
L 62.180179 -47.037127 
L 62.42822 -46.594136 
L 62.687154 -46.151145 
L 62.956663 -45.708153 
L 63.236377 -45.265162 
L 63.525873 -44.822171 
L 63.82467 -44.37918 
L 64.132235 -43.936189 
L 64.44798 -43.493198 
L 64.771262 -43.050207 
L 65.101388 -42.607216 
L 65.437612 -42.164225 
L 65.779139 -41.721234 
L 66.125126 -41.278243 
L 66.474688 -40.835251 
L 66.826895 -40.39226 
L 67.180778 -39.949269 
L 67.535333 -39.506278 
L 67.889527 -39.063287 
L 68.242295 -38.620296 
L 68.592552 -38.177305 
L 68.939195 -37.734314 
L 69.281105 -37.291323 
L 69.617158 -36.848332 
L 69.946226 -36.405341 
L 70.267183 -35.962349 
L 70.578913 -35.519358 
L 70.880314 -35.076367 
L 71.170304 -34.633376 
L 71.447828 -34.190385 
L 71.711863 -33.747394 
L 71.961421 -33.304403 
L 72.195562 -32.861412 
L 72.413389 -32.418421 
L 72.614063 -31.97543 
L 72.796802 -31.532438 
L 72.960889 -31.089447 
L 73.105671 -30.646456 
L 73.230569 -30.203465 
L 73.33508 -29.760474 
L 73.418777 -29.317483 
L 73.481314 -28.874492 
L 73.522427 -28.431501 
L 73.541938 -27.98851 
L 73.539751 -27.545519 
L 73.515858 -27.102528 
L 73.470337 -26.659536 
z
" style="stroke: #000000; stroke-opacity: 0.7"/>
    </defs>
    <g clip-path="url(#p9e2ddb6285)">
     <use xlink:href="#me298b88f21" x="0" y="105.673625" style="fill: #ffffff; fill-opacity: 0.7; stroke: #000000; stroke-opacity: 0.7"/>
    </g>
   </g>
   <g id="PolyCollection_2">
    <defs>
     <path id="m11c64e2986" d="M 110.638615 -29.660121 
L 87.13326 -29.660121 
L 86.860693 -30.137659 
L 86.592226 -30.615197 
L 86.328318 -31.092735 
L 86.06942 -31.570273 
L 85.815971 -32.047811 
L 85.568397 -32.525349 
L 85.327109 -33.002887 
L 85.0925 -33.480425 
L 84.864945 -33.957963 
L 84.644798 -34.435501 
L 84.432389 -34.913039 
L 84.228025 -35.390577 
L 84.031985 -35.868115 
L 83.844522 -36.345653 
L 83.665859 -36.823191 
L 83.496188 -37.300729 
L 83.335669 -37.778267 
L 83.184431 -38.255806 
L 83.042566 -38.733344 
L 82.910134 -39.210882 
L 82.787161 -39.68842 
L 82.673635 -40.165958 
L 82.56951 -40.643496 
L 82.474706 -41.121034 
L 82.389105 -41.598572 
L 82.312559 -42.07611 
L 82.244884 -42.553648 
L 82.185863 -43.031186 
L 82.135251 -43.508724 
L 82.09277 -43.986262 
L 82.058116 -44.4638 
L 82.03096 -44.941338 
L 82.010948 -45.418876 
L 81.997706 -45.896414 
L 81.990839 -46.373952 
L 81.989938 -46.85149 
L 81.99458 -47.329028 
L 82.004333 -47.806566 
L 82.018756 -48.284104 
L 82.037405 -48.761643 
L 82.059835 -49.239181 
L 82.085605 -49.716719 
L 82.114277 -50.194257 
L 82.145424 -50.671795 
L 82.178631 -51.149333 
L 82.213496 -51.626871 
L 82.249639 -52.104409 
L 82.286699 -52.581947 
L 82.324339 -53.059485 
L 82.362248 -53.537023 
L 82.400145 -54.014561 
L 82.437781 -54.492099 
L 82.474938 -54.969637 
L 82.511433 -55.447175 
L 82.547121 -55.924713 
L 82.581892 -56.402251 
L 82.615674 -56.879789 
L 82.648437 -57.357327 
L 82.680187 -57.834865 
L 82.710969 -58.312403 
L 82.740868 -58.789941 
L 82.770005 -59.267479 
L 82.79854 -59.745018 
L 82.826667 -60.222556 
L 82.854616 -60.700094 
L 82.882646 -61.177632 
L 82.91105 -61.65517 
L 82.940146 -62.132708 
L 82.970279 -62.610246 
L 83.001816 -63.087784 
L 83.035142 -63.565322 
L 83.070662 -64.04286 
L 83.10879 -64.520398 
L 83.149953 -64.997936 
L 83.194583 -65.475474 
L 83.243116 -65.953012 
L 83.295984 -66.43055 
L 83.353619 -66.908088 
L 83.416443 -67.385626 
L 83.484866 -67.863164 
L 83.559284 -68.340702 
L 83.640075 -68.81824 
L 83.727597 -69.295778 
L 83.822181 -69.773316 
L 83.924133 -70.250855 
L 84.033728 -70.728393 
L 84.151211 -71.205931 
L 84.276789 -71.683469 
L 84.410635 -72.161007 
L 84.552885 -72.638545 
L 84.703634 -73.116083 
L 84.862936 -73.593621 
L 85.030805 -74.071159 
L 85.207213 -74.548697 
L 85.392091 -75.026235 
L 85.585326 -75.503773 
L 85.786765 -75.981311 
L 85.996215 -76.458849 
L 86.213442 -76.936387 
L 111.558433 -76.936387 
L 111.558433 -76.936387 
L 111.77566 -76.458849 
L 111.98511 -75.981311 
L 112.186549 -75.503773 
L 112.379784 -75.026235 
L 112.564662 -74.548697 
L 112.74107 -74.071159 
L 112.908939 -73.593621 
L 113.068241 -73.116083 
L 113.21899 -72.638545 
L 113.36124 -72.161007 
L 113.495086 -71.683469 
L 113.620664 -71.205931 
L 113.738147 -70.728393 
L 113.847742 -70.250855 
L 113.949694 -69.773316 
L 114.044278 -69.295778 
L 114.1318 -68.81824 
L 114.212591 -68.340702 
L 114.287009 -67.863164 
L 114.355432 -67.385626 
L 114.418256 -66.908088 
L 114.475891 -66.43055 
L 114.528759 -65.953012 
L 114.577292 -65.475474 
L 114.621922 -64.997936 
L 114.663085 -64.520398 
L 114.701213 -64.04286 
L 114.736733 -63.565322 
L 114.770059 -63.087784 
L 114.801596 -62.610246 
L 114.831729 -62.132708 
L 114.860825 -61.65517 
L 114.889229 -61.177632 
L 114.917259 -60.700094 
L 114.945208 -60.222556 
L 114.973335 -59.745018 
L 115.00187 -59.267479 
L 115.031007 -58.789941 
L 115.060906 -58.312403 
L 115.091688 -57.834865 
L 115.123438 -57.357327 
L 115.156201 -56.879789 
L 115.189983 -56.402251 
L 115.224754 -55.924713 
L 115.260442 -55.447175 
L 115.296937 -54.969637 
L 115.334094 -54.492099 
L 115.37173 -54.014561 
L 115.409627 -53.537023 
L 115.447536 -53.059485 
L 115.485176 -52.581947 
L 115.522236 -52.104409 
L 115.558379 -51.626871 
L 115.593244 -51.149333 
L 115.626451 -50.671795 
L 115.657598 -50.194257 
L 115.68627 -49.716719 
L 115.71204 -49.239181 
L 115.73447 -48.761643 
L 115.753119 -48.284104 
L 115.767542 -47.806566 
L 115.777295 -47.329028 
L 115.781938 -46.85149 
L 115.781036 -46.373952 
L 115.774169 -45.896414 
L 115.760927 -45.418876 
L 115.740915 -44.941338 
L 115.713759 -44.4638 
L 115.679105 -43.986262 
L 115.636624 -43.508724 
L 115.586012 -43.031186 
L 115.526991 -42.553648 
L 115.459316 -42.07611 
L 115.38277 -41.598572 
L 115.297169 -41.121034 
L 115.202365 -40.643496 
L 115.09824 -40.165958 
L 114.984714 -39.68842 
L 114.861741 -39.210882 
L 114.729309 -38.733344 
L 114.587444 -38.255806 
L 114.436206 -37.778267 
L 114.275687 -37.300729 
L 114.106016 -36.823191 
L 113.927353 -36.345653 
L 113.73989 -35.868115 
L 113.54385 -35.390577 
L 113.339486 -34.913039 
L 113.127077 -34.435501 
L 112.90693 -33.957963 
L 112.679375 -33.480425 
L 112.444766 -33.002887 
L 112.203478 -32.525349 
L 111.955904 -32.047811 
L 111.702455 -31.570273 
L 111.443557 -31.092735 
L 111.179649 -30.615197 
L 110.911182 -30.137659 
L 110.638615 -29.660121 
z
" style="stroke: #000000; stroke-opacity: 0.7"/>
    </defs>
    <g clip-path="url(#p9e2ddb6285)">
     <use xlink:href="#m11c64e2986" x="0" y="105.673625" style="fill: #ffffff; fill-opacity: 0.7; stroke: #000000; stroke-opacity: 0.7"/>
    </g>
   </g>
   <g id="PolyCollection_3">
    <defs>
     <path id="m7a47ae83d9" d="M 154.995773 -35.950444 
L 127.256102 -35.950444 
L 126.997778 -36.448073 
L 126.748757 -36.945703 
L 126.50956 -37.443332 
L 126.280675 -37.940962 
L 126.062555 -38.438591 
L 125.855612 -38.936221 
L 125.660222 -39.43385 
L 125.476714 -39.931479 
L 125.305377 -40.429109 
L 125.14645 -40.926738 
L 125.000129 -41.424368 
L 124.86656 -41.921997 
L 124.745841 -42.419626 
L 124.638022 -42.917256 
L 124.543104 -43.414885 
L 124.461038 -43.912515 
L 124.391728 -44.410144 
L 124.335033 -44.907773 
L 124.290761 -45.405403 
L 124.258679 -45.903032 
L 124.238511 -46.400662 
L 124.229938 -46.898291 
L 124.232601 -47.395921 
L 124.246108 -47.89355 
L 124.27003 -48.391179 
L 124.303906 -48.888809 
L 124.347249 -49.386438 
L 124.399544 -49.884068 
L 124.460255 -50.381697 
L 124.528825 -50.879326 
L 124.604685 -51.376956 
L 124.687248 -51.874585 
L 124.775923 -52.372215 
L 124.870111 -52.869844 
L 124.969211 -53.367473 
L 125.072622 -53.865103 
L 125.179749 -54.362732 
L 125.290006 -54.860362 
L 125.402814 -55.357991 
L 125.517611 -55.85562 
L 125.633852 -56.35325 
L 125.751008 -56.850879 
L 125.868578 -57.348509 
L 125.98608 -57.846138 
L 126.103062 -58.343768 
L 126.219102 -58.841397 
L 126.333806 -59.339026 
L 126.446814 -59.836656 
L 126.557801 -60.334285 
L 126.666476 -60.831915 
L 126.772586 -61.329544 
L 126.875912 -61.827173 
L 126.976276 -62.324803 
L 127.073537 -62.822432 
L 127.167591 -63.320062 
L 127.258375 -63.817691 
L 127.34586 -64.31532 
L 127.430056 -64.81295 
L 127.511011 -65.310579 
L 127.588806 -65.808209 
L 127.663557 -66.305838 
L 127.735415 -66.803468 
L 127.804558 -67.301097 
L 127.8712 -67.798726 
L 127.935576 -68.296356 
L 127.997952 -68.793985 
L 128.058616 -69.291615 
L 128.117877 -69.789244 
L 128.176064 -70.286873 
L 128.233521 -70.784503 
L 128.290607 -71.282132 
L 128.347693 -71.779762 
L 128.405156 -72.277391 
L 128.463383 -72.77502 
L 128.52276 -73.27265 
L 128.583676 -73.770279 
L 128.646517 -74.267909 
L 128.711662 -74.765538 
L 128.779487 -75.263167 
L 128.850352 -75.760797 
L 128.924608 -76.258426 
L 129.00259 -76.756056 
L 129.084614 -77.253685 
L 129.170978 -77.751315 
L 129.261958 -78.248944 
L 129.357805 -78.746573 
L 129.458747 -79.244203 
L 129.564982 -79.741832 
L 129.676684 -80.239462 
L 129.793994 -80.737091 
L 129.917024 -81.23472 
L 130.045855 -81.73235 
L 130.180538 -82.229979 
L 130.32109 -82.727609 
L 130.467496 -83.225238 
L 130.619712 -83.722867 
L 130.77766 -84.220497 
L 130.941232 -84.718126 
L 131.11029 -85.215756 
L 151.141585 -85.215756 
L 151.141585 -85.215756 
L 151.310643 -84.718126 
L 151.474215 -84.220497 
L 151.632163 -83.722867 
L 151.784379 -83.225238 
L 151.930785 -82.727609 
L 152.071337 -82.229979 
L 152.20602 -81.73235 
L 152.334851 -81.23472 
L 152.457881 -80.737091 
L 152.575191 -80.239462 
L 152.686893 -79.741832 
L 152.793128 -79.244203 
L 152.89407 -78.746573 
L 152.989917 -78.248944 
L 153.080897 -77.751315 
L 153.167261 -77.253685 
L 153.249285 -76.756056 
L 153.327267 -76.258426 
L 153.401523 -75.760797 
L 153.472388 -75.263167 
L 153.540213 -74.765538 
L 153.605358 -74.267909 
L 153.668199 -73.770279 
L 153.729115 -73.27265 
L 153.788492 -72.77502 
L 153.846719 -72.277391 
L 153.904182 -71.779762 
L 153.961268 -71.282132 
L 154.018354 -70.784503 
L 154.075811 -70.286873 
L 154.133998 -69.789244 
L 154.193259 -69.291615 
L 154.253923 -68.793985 
L 154.316299 -68.296356 
L 154.380675 -67.798726 
L 154.447317 -67.301097 
L 154.51646 -66.803468 
L 154.588318 -66.305838 
L 154.663069 -65.808209 
L 154.740864 -65.310579 
L 154.821819 -64.81295 
L 154.906015 -64.31532 
L 154.9935 -63.817691 
L 155.084284 -63.320062 
L 155.178338 -62.822432 
L 155.275599 -62.324803 
L 155.375963 -61.827173 
L 155.479289 -61.329544 
L 155.585399 -60.831915 
L 155.694074 -60.334285 
L 155.805061 -59.836656 
L 155.918069 -59.339026 
L 156.032773 -58.841397 
L 156.148813 -58.343768 
L 156.265795 -57.846138 
L 156.383297 -57.348509 
L 156.500867 -56.850879 
L 156.618023 -56.35325 
L 156.734264 -55.85562 
L 156.849061 -55.357991 
L 156.961869 -54.860362 
L 157.072126 -54.362732 
L 157.179253 -53.865103 
L 157.282664 -53.367473 
L 157.381764 -52.869844 
L 157.475952 -52.372215 
L 157.564627 -51.874585 
L 157.64719 -51.376956 
L 157.72305 -50.879326 
L 157.79162 -50.381697 
L 157.852331 -49.884068 
L 157.904626 -49.386438 
L 157.947969 -48.888809 
L 157.981845 -48.391179 
L 158.005767 -47.89355 
L 158.019274 -47.395921 
L 158.021938 -46.898291 
L 158.013364 -46.400662 
L 157.993196 -45.903032 
L 157.961114 -45.405403 
L 157.916842 -44.907773 
L 157.860147 -44.410144 
L 157.790837 -43.912515 
L 157.708771 -43.414885 
L 157.613853 -42.917256 
L 157.506034 -42.419626 
L 157.385315 -41.921997 
L 157.251746 -41.424368 
L 157.105425 -40.926738 
L 156.946498 -40.429109 
L 156.775161 -39.931479 
L 156.591653 -39.43385 
L 156.396263 -38.936221 
L 156.18932 -38.438591 
L 155.9712 -37.940962 
L 155.742315 -37.443332 
L 155.503118 -36.945703 
L 155.254097 -36.448073 
L 154.995773 -35.950444 
z
" style="stroke: #000000; stroke-opacity: 0.7"/>
    </defs>
    <g clip-path="url(#p9e2ddb6285)">
     <use xlink:href="#m7a47ae83d9" x="0" y="105.673625" style="fill: #ffffff; fill-opacity: 0.7; stroke: #000000; stroke-opacity: 0.7"/>
    </g>
   </g>
   <g id="patch_3">
    <path d="M 95.614297 64.103316 
Q 76.830568 71.266109 59.404894 77.911035 
" style="fill: none; opacity: 0.4; stroke: #f89a58; stroke-width: 1.3; stroke-linecap: round"/>
    <path d="M 63.854982 78.354563 
L 59.404894 77.911035 
L 62.429769 74.617082 
" style="fill: none; opacity: 0.4; stroke: #f89a58; stroke-width: 1.3; stroke-linecap: round"/>
   </g>
   <g id="patch_4">
    <path d="M 101.358359 60.37408 
Q 120.711801 40.948304 139.039421 22.552184 
" style="fill: none; opacity: 0.4; stroke: #2e9f47; stroke-width: 1.3; stroke-linecap: round"/>
    <path d="M 134.799425 23.974309 
L 139.039421 22.552184 
L 137.633123 26.797456 
" style="fill: none; opacity: 0.4; stroke: #2e9f47; stroke-width: 1.3; stroke-linecap: round"/>
   </g>
   <g id="patch_5">
    <path d="M 96.619766 31.408436 
Q 77.117154 54.396695 58.554815 76.276627 
" style="fill: none; opacity: 0.4; stroke: #d7191c; stroke-width: 1.3; stroke-linecap: round"/>
    <path d="M 62.667629 74.520277 
L 58.554815 76.276627 
L 59.617423 71.932567 
" style="fill: none; opacity: 0.4; stroke: #d7191c; stroke-width: 1.3; stroke-linecap: round"/>
   </g>
   <g id="patch_6">
    <path d="M 102.147266 30.007684 
Q 120.938345 37.327723 138.375109 44.120191 
" style="fill: none; opacity: 0.4; stroke: #f79756; stroke-width: 1.3; stroke-linecap: round"/>
    <path d="M 135.373882 40.804677 
L 138.375109 44.120191 
L 133.921961 44.531864 
" style="fill: none; opacity: 0.4; stroke: #f79756; stroke-width: 1.3; stroke-linecap: round"/>
   </g>
   <g id="patch_7">
    <path d="M 95.614297 63.047135 
Q 76.830568 70.183787 59.405522 76.804223 
" style="fill: none; opacity: 0.4; stroke: #f89a58; stroke-width: 1.3; stroke-linecap: round"/>
    <path d="M 63.855068 77.253161 
L 59.405522 76.804223 
L 62.434399 73.513949 
" style="fill: none; opacity: 0.4; stroke: #f89a58; stroke-width: 1.3; stroke-linecap: round"/>
   </g>
   <g id="patch_8">
    <path d="M 102.384453 61.695882 
Q 121.005619 61.119803 138.174037 60.588667 
" style="fill: none; opacity: 0.4; stroke: #e2f3a4; stroke-width: 1.3; stroke-linecap: round"/>
    <path d="M 134.114106 58.713312 
L 138.174037 60.588667 
L 134.237793 62.711399 
" style="fill: none; opacity: 0.4; stroke: #e2f3a4; stroke-width: 1.3; stroke-linecap: round"/>
   </g>
   <g id="patch_9">
    <path d="M 95.387422 75.92802 
Q 76.766256 75.473021 59.5981 75.053525 
" style="fill: none; opacity: 0.4; stroke: #e5f4a6; stroke-width: 1.3; stroke-linecap: round"/>
    <path d="M 63.548052 77.150637 
L 59.5981 75.053525 
L 63.645761 73.151831 
" style="fill: none; opacity: 0.4; stroke: #e5f4a6; stroke-width: 1.3; stroke-linecap: round"/>
   </g>
   <g id="patch_10">
    <path d="M 102.348359 75.497885 
Q 120.996341 72.720853 138.206732 70.157905 
" style="fill: none; opacity: 0.4; stroke: #bfe482; stroke-width: 1.3; stroke-linecap: round"/>
    <path d="M 133.955773 68.768897 
L 138.206732 70.157905 
L 134.54495 72.725268 
" style="fill: none; opacity: 0.4; stroke: #bfe482; stroke-width: 1.3; stroke-linecap: round"/>
   </g>
   <g id="patch_11">
    <path d="M 96.124766 48.248439 
Q 76.976907 63.170267 58.975485 77.198684 
" style="fill: none; opacity: 0.4; stroke: #e54f35; stroke-width: 1.3; stroke-linecap: round"/>
    <path d="M 63.359945 76.317484 
L 58.975485 77.198684 
L 60.901201 73.162396 
" style="fill: none; opacity: 0.4; stroke: #e54f35; stroke-width: 1.3; stroke-linecap: round"/>
   </g>
   <g id="patch_12">
    <path d="M 102.188516 47.247393 
Q 120.947826 53.78372 138.334621 59.841821 
" style="fill: none; opacity: 0.4; stroke: #faa15b; stroke-width: 1.3; stroke-linecap: round"/>
    <path d="M 135.215404 56.637061 
L 138.334621 59.841821 
L 133.899283 60.414338 
" style="fill: none; opacity: 0.4; stroke: #faa15b; stroke-width: 1.3; stroke-linecap: round"/>
   </g>
   <g id="patch_13">
    <path d="M 95.387422 34.391482 
Q 76.766256 34.759896 59.598249 35.09956 
" style="fill: none; opacity: 0.4; stroke: #feeaa7; stroke-width: 1.3; stroke-linecap: round"/>
    <path d="M 63.637028 37.020045 
L 59.598249 35.09956 
L 63.557905 33.020828 
" style="fill: none; opacity: 0.4; stroke: #feeaa7; stroke-width: 1.3; stroke-linecap: round"/>
   </g>
   <g id="patch_14">
    <path d="M 102.358672 33.905414 
Q 120.996962 31.668158 138.192168 29.604123 
" style="fill: none; opacity: 0.4; stroke: #c6e789; stroke-width: 1.3; stroke-linecap: round"/>
    <path d="M 133.982317 28.095097 
L 138.192168 29.604123 
L 134.459037 32.066588 
" style="fill: none; opacity: 0.4; stroke: #c6e789; stroke-width: 1.3; stroke-linecap: round"/>
   </g>
   <g id="PathCollection_1">
    <path d="M 56.645938 80.544246 
C 57.06526 80.544246 57.467465 80.377647 57.763971 80.081141 
C 58.060478 79.784635 58.227076 79.38243 58.227076 78.963107 
C 58.227076 78.543784 58.060478 78.141579 57.763971 77.845073 
C 57.467465 77.548567 57.06526 77.381968 56.645938 77.381968 
C 56.226615 77.381968 55.82441 77.548567 55.527904 77.845073 
C 55.231397 78.141579 55.064799 78.543784 55.064799 78.963107 
C 55.064799 79.38243 55.231397 79.784635 55.527904 80.081141 
C 55.82441 80.377647 56.226615 80.544246 56.645938 80.544246 
z
" clip-path="url(#p9e2ddb6285)" style="fill-opacity: 0.5"/>
   </g>
   <g id="PathCollection_2">
    <path d="M 98.885938 64.436881 
C 99.30526 64.436881 99.707465 64.270283 100.003971 63.973776 
C 100.300478 63.67727 100.467076 63.275065 100.467076 62.855742 
C 100.467076 62.43642 100.300478 62.034215 100.003971 61.737708 
C 99.707465 61.441202 99.30526 61.274604 98.885938 61.274604 
C 98.466615 61.274604 98.06441 61.441202 97.767904 61.737708 
C 97.471397 62.034215 97.304799 62.43642 97.304799 62.855742 
C 97.304799 63.275065 97.471397 63.67727 97.767904 63.973776 
C 98.06441 64.270283 98.466615 64.436881 98.885938 64.436881 
z
" clip-path="url(#p9e2ddb6285)" style="fill-opacity: 0.5"/>
   </g>
   <g id="PathCollection_3">
    <path d="M 141.125938 22.039008 
C 141.54526 22.039008 141.947465 21.872409 142.243971 21.575903 
C 142.540478 21.279397 142.707076 20.877192 142.707076 20.457869 
C 142.707076 20.038546 142.540478 19.636341 142.243971 19.339835 
C 141.947465 19.043329 141.54526 18.87673 141.125938 18.87673 
C 140.706615 18.87673 140.30441 19.043329 140.007904 19.339835 
C 139.711397 19.636341 139.544799 20.038546 139.544799 20.457869 
C 139.544799 20.877192 139.711397 21.279397 140.007904 21.575903 
C 140.30441 21.872409 140.706615 22.039008 141.125938 22.039008 
z
" clip-path="url(#p9e2ddb6285)" style="fill-opacity: 0.5"/>
   </g>
   <g id="PathCollection_4">
    <path d="M 56.645938 80.107812 
C 57.06526 80.107812 57.467465 79.941213 57.763971 79.644707 
C 58.060478 79.348201 58.227076 78.945996 58.227076 78.526673 
C 58.227076 78.10735 58.060478 77.705145 57.763971 77.408639 
C 57.467465 77.112133 57.06526 76.945534 56.645938 76.945534 
C 56.226615 76.945534 55.82441 77.112133 55.527904 77.408639 
C 55.231397 77.705145 55.064799 78.10735 55.064799 78.526673 
C 55.064799 78.945996 55.231397 79.348201 55.527904 79.644707 
C 55.82441 79.941213 56.226615 80.107812 56.645938 80.107812 
z
" clip-path="url(#p9e2ddb6285)" style="fill-opacity: 0.5"/>
   </g>
   <g id="PathCollection_5">
    <path d="M 98.885938 30.318377 
C 99.30526 30.318377 99.707465 30.151778 100.003971 29.855272 
C 100.300478 29.558766 100.467076 29.156561 100.467076 28.737238 
C 100.467076 28.317915 100.300478 27.91571 100.003971 27.619204 
C 99.707465 27.322698 99.30526 27.156099 98.885938 27.156099 
C 98.466615 27.156099 98.06441 27.322698 97.767904 27.619204 
C 97.471397 27.91571 97.304799 28.317915 97.304799 28.737238 
C 97.304799 29.156561 97.471397 29.558766 97.767904 29.855272 
C 98.06441 30.151778 98.466615 30.318377 98.885938 30.318377 
z
" clip-path="url(#p9e2ddb6285)" style="fill-opacity: 0.5"/>
   </g>
   <g id="PathCollection_6">
    <path d="M 141.125938 46.772912 
C 141.54526 46.772912 141.947465 46.606313 142.243971 46.309807 
C 142.540478 46.013301 142.707076 45.611096 142.707076 45.191773 
C 142.707076 44.77245 142.540478 44.370245 142.243971 44.073739 
C 141.947465 43.777233 141.54526 43.610634 141.125938 43.610634 
C 140.706615 43.610634 140.30441 43.777233 140.007904 44.073739 
C 139.711397 44.370245 139.544799 44.77245 139.544799 45.191773 
C 139.544799 45.611096 139.711397 46.013301 140.007904 46.309807 
C 140.30441 46.606313 140.706615 46.772912 141.125938 46.772912 
z
" clip-path="url(#p9e2ddb6285)" style="fill-opacity: 0.5"/>
   </g>
   <g id="PathCollection_7">
    <path d="M 56.645938 79.433833 
C 57.06526 79.433833 57.467465 79.267234 57.763971 78.970728 
C 58.060478 78.674222 58.227076 78.272017 58.227076 77.852694 
C 58.227076 77.433372 58.060478 77.031167 57.763971 76.73466 
C 57.467465 76.438154 57.06526 76.271556 56.645938 76.271556 
C 56.226615 76.271556 55.82441 76.438154 55.527904 76.73466 
C 55.231397 77.031167 55.064799 77.433372 55.064799 77.852694 
C 55.064799 78.272017 55.231397 78.674222 55.527904 78.970728 
C 55.82441 79.267234 56.226615 79.433833 56.645938 79.433833 
z
" clip-path="url(#p9e2ddb6285)" style="fill-opacity: 0.5"/>
   </g>
   <g id="PathCollection_8">
    <path d="M 98.885938 63.385253 
C 99.30526 63.385253 99.707465 63.218655 100.003971 62.922148 
C 100.300478 62.625642 100.467076 62.223437 100.467076 61.804114 
C 100.467076 61.384792 100.300478 60.982587 100.003971 60.68608 
C 99.707465 60.389574 99.30526 60.222976 98.885938 60.222976 
C 98.466615 60.222976 98.06441 60.389574 97.767904 60.68608 
C 97.471397 60.982587 97.304799 61.384792 97.304799 61.804114 
C 97.304799 62.223437 97.471397 62.625642 97.767904 62.922148 
C 98.06441 63.218655 98.466615 63.385253 98.885938 63.385253 
z
" clip-path="url(#p9e2ddb6285)" style="fill-opacity: 0.5"/>
   </g>
   <g id="PathCollection_9">
    <path d="M 141.125938 62.078484 
C 141.54526 62.078484 141.947465 61.911885 142.243971 61.615379 
C 142.540478 61.318873 142.707076 60.916668 142.707076 60.497345 
C 142.707076 60.078022 142.540478 59.675817 142.243971 59.379311 
C 141.947465 59.082805 141.54526 58.916206 141.125938 58.916206 
C 140.706615 58.916206 140.30441 59.082805 140.007904 59.379311 
C 139.711397 59.675817 139.544799 60.078022 139.544799 60.497345 
C 139.544799 60.916668 139.711397 61.318873 140.007904 61.615379 
C 140.30441 61.911885 140.706615 62.078484 141.125938 62.078484 
z
" clip-path="url(#p9e2ddb6285)" style="fill-opacity: 0.5"/>
   </g>
   <g id="PathCollection_10">
    <path d="M 56.645938 76.562529 
C 57.06526 76.562529 57.467465 76.39593 57.763971 76.099424 
C 58.060478 75.802918 58.227076 75.400713 58.227076 74.98139 
C 58.227076 74.562067 58.060478 74.159862 57.763971 73.863356 
C 57.467465 73.56685 57.06526 73.400252 56.645938 73.400252 
C 56.226615 73.400252 55.82441 73.56685 55.527904 73.863356 
C 55.231397 74.159862 55.064799 74.562067 55.064799 74.98139 
C 55.064799 75.400713 55.231397 75.802918 55.527904 76.099424 
C 55.82441 76.39593 56.226615 76.562529 56.645938 76.562529 
z
" clip-path="url(#p9e2ddb6285)" style="fill-opacity: 0.5"/>
   </g>
   <g id="PathCollection_11">
    <path d="M 98.885938 77.594643 
C 99.30526 77.594643 99.707465 77.428044 100.003971 77.131538 
C 100.300478 76.835032 100.467076 76.432827 100.467076 76.013504 
C 100.467076 75.594181 100.300478 75.191976 100.003971 74.89547 
C 99.707465 74.598964 99.30526 74.432365 98.885938 74.432365 
C 98.466615 74.432365 98.06441 74.598964 97.767904 74.89547 
C 97.471397 75.191976 97.304799 75.594181 97.304799 76.013504 
C 97.304799 76.432827 97.471397 76.835032 97.767904 77.131538 
C 98.06441 77.428044 98.466615 77.594643 98.885938 77.594643 
z
" clip-path="url(#p9e2ddb6285)" style="fill-opacity: 0.5"/>
   </g>
   <g id="PathCollection_12">
    <path d="M 141.125938 71.30432 
C 141.54526 71.30432 141.947465 71.137721 142.243971 70.841215 
C 142.540478 70.544709 142.707076 70.142504 142.707076 69.723181 
C 142.707076 69.303858 142.540478 68.901653 142.243971 68.605147 
C 141.947465 68.308641 141.54526 68.142042 141.125938 68.142042 
C 140.706615 68.142042 140.30441 68.308641 140.007904 68.605147 
C 139.711397 68.901653 139.544799 69.303858 139.544799 69.723181 
C 139.544799 70.142504 139.711397 70.544709 140.007904 70.841215 
C 140.30441 71.137721 140.706615 71.30432 141.125938 71.30432 
z
" clip-path="url(#p9e2ddb6285)" style="fill-opacity: 0.5"/>
   </g>
   <g id="PathCollection_13">
    <path d="M 56.645938 80.595227 
C 57.06526 80.595227 57.467465 80.428629 57.763971 80.132123 
C 58.060478 79.835616 58.227076 79.433411 58.227076 79.014089 
C 58.227076 78.594766 58.060478 78.192561 57.763971 77.896055 
C 57.467465 77.599548 57.06526 77.43295 56.645938 77.43295 
C 56.226615 77.43295 55.82441 77.599548 55.527904 77.896055 
C 55.231397 78.192561 55.064799 78.594766 55.064799 79.014089 
C 55.064799 79.433411 55.231397 79.835616 55.527904 80.132123 
C 55.82441 80.428629 56.226615 80.595227 56.645938 80.595227 
z
" clip-path="url(#p9e2ddb6285)" style="fill-opacity: 0.5"/>
   </g>
   <g id="PathCollection_14">
    <path d="M 98.885938 47.677811 
C 99.30526 47.677811 99.707465 47.511212 100.003971 47.214706 
C 100.300478 46.9182 100.467076 46.515995 100.467076 46.096672 
C 100.467076 45.677349 100.300478 45.275144 100.003971 44.978638 
C 99.707465 44.682132 99.30526 44.515533 98.885938 44.515533 
C 98.466615 44.515533 98.06441 44.682132 97.767904 44.978638 
C 97.471397 45.275144 97.304799 45.677349 97.304799 46.096672 
C 97.304799 46.515995 97.471397 46.9182 97.767904 47.214706 
C 98.06441 47.511212 98.466615 47.677811 98.885938 47.677811 
z
" clip-path="url(#p9e2ddb6285)" style="fill-opacity: 0.5"/>
   </g>
   <g id="PathCollection_15">
    <path d="M 141.125938 62.395541 
C 141.54526 62.395541 141.947465 62.228942 142.243971 61.932436 
C 142.540478 61.63593 142.707076 61.233725 142.707076 60.814402 
C 142.707076 60.395079 142.540478 59.992874 142.243971 59.696368 
C 141.947465 59.399862 141.54526 59.233263 141.125938 59.233263 
C 140.706615 59.233263 140.30441 59.399862 140.007904 59.696368 
C 139.711397 59.992874 139.544799 60.395079 139.544799 60.814402 
C 139.544799 61.233725 139.711397 61.63593 140.007904 61.932436 
C 140.30441 62.228942 140.706615 62.395541 141.125938 62.395541 
z
" clip-path="url(#p9e2ddb6285)" style="fill-opacity: 0.5"/>
   </g>
   <g id="PathCollection_16">
    <path d="M 56.645938 36.739109 
C 57.06526 36.739109 57.467465 36.57251 57.763971 36.276004 
C 58.060478 35.979498 58.227076 35.577293 58.227076 35.15797 
C 58.227076 34.738647 58.060478 34.336442 57.763971 34.039936 
C 57.467465 33.74343 57.06526 33.576831 56.645938 33.576831 
C 56.226615 33.576831 55.82441 33.74343 55.527904 34.039936 
C 55.231397 34.336442 55.064799 34.738647 55.064799 35.15797 
C 55.064799 35.577293 55.231397 35.979498 55.527904 36.276004 
C 55.82441 36.57251 56.226615 36.739109 56.645938 36.739109 
z
" clip-path="url(#p9e2ddb6285)" style="fill-opacity: 0.5"/>
   </g>
   <g id="PathCollection_17">
    <path d="M 98.885938 35.903404 
C 99.30526 35.903404 99.707465 35.736805 100.003971 35.440299 
C 100.300478 35.143793 100.467076 34.741588 100.467076 34.322265 
C 100.467076 33.902942 100.300478 33.500737 100.003971 33.204231 
C 99.707465 32.907725 99.30526 32.741126 98.885938 32.741126 
C 98.466615 32.741126 98.06441 32.907725 97.767904 33.204231 
C 97.471397 33.500737 97.304799 33.902942 97.304799 34.322265 
C 97.304799 34.741588 97.471397 35.143793 97.767904 35.440299 
C 98.06441 35.736805 98.466615 35.903404 98.885938 35.903404 
z
" clip-path="url(#p9e2ddb6285)" style="fill-opacity: 0.5"/>
   </g>
   <g id="PathCollection_18">
    <path d="M 141.125938 30.833105 
C 141.54526 30.833105 141.947465 30.666506 142.243971 30.37 
C 142.540478 30.073494 142.707076 29.671289 142.707076 29.251966 
C 142.707076 28.832643 142.540478 28.430438 142.243971 28.133932 
C 141.947465 27.837426 141.54526 27.670827 141.125938 27.670827 
C 140.706615 27.670827 140.30441 27.837426 140.007904 28.133932 
C 139.711397 28.430438 139.544799 28.832643 139.544799 29.251966 
C 139.544799 29.671289 139.711397 30.073494 140.007904 30.37 
C 140.30441 30.666506 140.706615 30.833105 141.125938 30.833105 
z
" clip-path="url(#p9e2ddb6285)" style="fill-opacity: 0.5"/>
   </g>
   <g id="text_8">
    <!-- Testing on Source -->
    <g style="fill: #262626" transform="translate(58.866406 14.479687) scale(0.1 -0.1)">
     <defs>
      <path id="ArialMT-54" d="M 1659 0 
L 1659 4041 
L 150 4041 
L 150 4581 
L 3781 4581 
L 3781 4041 
L 2266 4041 
L 2266 0 
L 1659 0 
z
" transform="scale(0.015625)"/>
      <path id="ArialMT-53" d="M 288 1472 
L 859 1522 
Q 900 1178 1048 958 
Q 1197 738 1509 602 
Q 1822 466 2213 466 
Q 2559 466 2825 569 
Q 3091 672 3220 851 
Q 3350 1031 3350 1244 
Q 3350 1459 3225 1620 
Q 3100 1781 2813 1891 
Q 2628 1963 1997 2114 
Q 1366 2266 1113 2400 
Q 784 2572 623 2826 
Q 463 3081 463 3397 
Q 463 3744 659 4045 
Q 856 4347 1234 4503 
Q 1613 4659 2075 4659 
Q 2584 4659 2973 4495 
Q 3363 4331 3572 4012 
Q 3781 3694 3797 3291 
L 3216 3247 
Q 3169 3681 2898 3903 
Q 2628 4125 2100 4125 
Q 1550 4125 1298 3923 
Q 1047 3722 1047 3438 
Q 1047 3191 1225 3031 
Q 1400 2872 2139 2705 
Q 2878 2538 3153 2413 
Q 3553 2228 3743 1945 
Q 3934 1663 3934 1294 
Q 3934 928 3725 604 
Q 3516 281 3123 101 
Q 2731 -78 2241 -78 
Q 1619 -78 1198 103 
Q 778 284 539 648 
Q 300 1013 288 1472 
z
" transform="scale(0.015625)"/>
     </defs>
     <use xlink:href="#ArialMT-54"/>
     <use xlink:href="#ArialMT-65" x="49.958984"/>
     <use xlink:href="#ArialMT-73" x="105.574219"/>
     <use xlink:href="#ArialMT-74" x="155.574219"/>
     <use xlink:href="#ArialMT-69" x="183.357422"/>
     <use xlink:href="#ArialMT-6e" x="205.574219"/>
     <use xlink:href="#ArialMT-67" x="261.189453"/>
     <use xlink:href="#ArialMT-20" x="316.804688"/>
     <use xlink:href="#ArialMT-6f" x="344.587891"/>
     <use xlink:href="#ArialMT-6e" x="400.203125"/>
     <use xlink:href="#ArialMT-20" x="455.818359"/>
     <use xlink:href="#ArialMT-53" x="483.601562"/>
     <use xlink:href="#ArialMT-6f" x="550.300781"/>
     <use xlink:href="#ArialMT-75" x="605.916016"/>
     <use xlink:href="#ArialMT-72" x="661.53125"/>
     <use xlink:href="#ArialMT-63" x="694.832031"/>
     <use xlink:href="#ArialMT-65" x="744.832031"/>
    </g>
   </g>
  </g>
  <g id="axes_2">
   <g id="patch_15">
    <path d="M 174.917938 82.999688 
L 301.637938 82.999688 
L 301.637938 17.479687 
L 174.917938 17.479687 
z
" style="fill: #ffffff"/>
   </g>
   <g id="matplotlib.axis_3">
    <g id="xtick_4">
     <g id="text_9">
      <!-- Naively-tuned -->
      <g style="fill: #262626" transform="translate(177.696219 90.794375) scale(0.06 -0.06)">
       <use xlink:href="#ArialMT-4e"/>
       <use xlink:href="#ArialMT-61" x="72.216797"/>
       <use xlink:href="#ArialMT-69" x="127.832031"/>
       <use xlink:href="#ArialMT-76" x="150.048828"/>
       <use xlink:href="#ArialMT-65" x="200.048828"/>
       <use xlink:href="#ArialMT-6c" x="255.664062"/>
       <use xlink:href="#ArialMT-79" x="277.880859"/>
       <use xlink:href="#ArialMT-2d" x="327.880859"/>
       <use xlink:href="#ArialMT-74" x="361.181641"/>
       <use xlink:href="#ArialMT-75" x="388.964844"/>
       <use xlink:href="#ArialMT-6e" x="444.580078"/>
       <use xlink:href="#ArialMT-65" x="500.195312"/>
       <use xlink:href="#ArialMT-64" x="555.810547"/>
      </g>
      <!-- on target -->
      <g style="fill: #262626" transform="translate(184.197313 97.210813) scale(0.06 -0.06)">
       <use xlink:href="#ArialMT-6f"/>
       <use xlink:href="#ArialMT-6e" x="55.615234"/>
       <use xlink:href="#ArialMT-20" x="111.230469"/>
       <use xlink:href="#ArialMT-74" x="139.013672"/>
       <use xlink:href="#ArialMT-61" x="166.796875"/>
       <use xlink:href="#ArialMT-72" x="222.412109"/>
       <use xlink:href="#ArialMT-67" x="255.712891"/>
       <use xlink:href="#ArialMT-65" x="311.328125"/>
       <use xlink:href="#ArialMT-74" x="366.943359"/>
      </g>
     </g>
    </g>
    <g id="xtick_5">
     <g id="text_10">
      <!-- Agents trained -->
      <g style="fill: #262626" transform="translate(218.933094 90.794375) scale(0.06 -0.06)">
       <use xlink:href="#ArialMT-41"/>
       <use xlink:href="#ArialMT-67" x="66.699219"/>
       <use xlink:href="#ArialMT-65" x="122.314453"/>
       <use xlink:href="#ArialMT-6e" x="177.929688"/>
       <use xlink:href="#ArialMT-74" x="233.544922"/>
       <use xlink:href="#ArialMT-73" x="261.328125"/>
       <use xlink:href="#ArialMT-20" x="311.328125"/>
       <use xlink:href="#ArialMT-74" x="339.111328"/>
       <use xlink:href="#ArialMT-72" x="366.894531"/>
       <use xlink:href="#ArialMT-61" x="400.195312"/>
       <use xlink:href="#ArialMT-69" x="455.810547"/>
       <use xlink:href="#ArialMT-6e" x="478.027344"/>
       <use xlink:href="#ArialMT-65" x="533.642578"/>
       <use xlink:href="#ArialMT-64" x="589.257812"/>
      </g>
      <!-- on source -->
      <g style="fill: #262626" transform="translate(225.104187 97.210813) scale(0.06 -0.06)">
       <use xlink:href="#ArialMT-6f"/>
       <use xlink:href="#ArialMT-6e" x="55.615234"/>
       <use xlink:href="#ArialMT-20" x="111.230469"/>
       <use xlink:href="#ArialMT-73" x="139.013672"/>
       <use xlink:href="#ArialMT-6f" x="189.013672"/>
       <use xlink:href="#ArialMT-75" x="244.628906"/>
       <use xlink:href="#ArialMT-72" x="300.244141"/>
       <use xlink:href="#ArialMT-63" x="333.544922"/>
       <use xlink:href="#ArialMT-65" x="383.544922"/>
      </g>
     </g>
    </g>
    <g id="xtick_6">
     <g id="text_11">
      <!-- Anchor-tuned -->
      <g style="fill: #262626" transform="translate(262.507625 90.794375) scale(0.06 -0.06)">
       <use xlink:href="#ArialMT-41"/>
       <use xlink:href="#ArialMT-6e" x="66.699219"/>
       <use xlink:href="#ArialMT-63" x="122.314453"/>
       <use xlink:href="#ArialMT-68" x="172.314453"/>
       <use xlink:href="#ArialMT-6f" x="227.929688"/>
       <use xlink:href="#ArialMT-72" x="283.544922"/>
       <use xlink:href="#ArialMT-2d" x="316.845703"/>
       <use xlink:href="#ArialMT-74" x="350.146484"/>
       <use xlink:href="#ArialMT-75" x="377.929688"/>
       <use xlink:href="#ArialMT-6e" x="433.544922"/>
       <use xlink:href="#ArialMT-65" x="489.160156"/>
       <use xlink:href="#ArialMT-64" x="544.775391"/>
      </g>
      <!-- on target -->
      <g style="fill: #262626" transform="translate(268.677313 97.1405) scale(0.06 -0.06)">
       <use xlink:href="#ArialMT-6f"/>
       <use xlink:href="#ArialMT-6e" x="55.615234"/>
       <use xlink:href="#ArialMT-20" x="111.230469"/>
       <use xlink:href="#ArialMT-74" x="139.013672"/>
       <use xlink:href="#ArialMT-61" x="166.796875"/>
       <use xlink:href="#ArialMT-72" x="222.412109"/>
       <use xlink:href="#ArialMT-67" x="255.712891"/>
       <use xlink:href="#ArialMT-65" x="311.328125"/>
       <use xlink:href="#ArialMT-74" x="366.943359"/>
      </g>
     </g>
    </g>
   </g>
   <g id="matplotlib.axis_4">
    <g id="ytick_4">
     <g id="line2d_4">
      <path d="M 174.917938 80.027446 
L 301.637938 80.027446 
" clip-path="url(#p8018fdcb44)" style="fill: none; stroke-dasharray: 2.96,1.28; stroke-dashoffset: 0; stroke: #cccccc; stroke-opacity: 0.3; stroke-width: 0.8"/>
     </g>
    </g>
    <g id="ytick_5">
     <g id="line2d_5">
      <path d="M 174.917938 54.942592 
L 301.637938 54.942592 
" clip-path="url(#p8018fdcb44)" style="fill: none; stroke-dasharray: 2.96,1.28; stroke-dashoffset: 0; stroke: #cccccc; stroke-opacity: 0.3; stroke-width: 0.8"/>
     </g>
    </g>
    <g id="ytick_6">
     <g id="line2d_6">
      <path d="M 174.917938 29.857739 
L 301.637938 29.857739 
" clip-path="url(#p8018fdcb44)" style="fill: none; stroke-dasharray: 2.96,1.28; stroke-dashoffset: 0; stroke: #cccccc; stroke-opacity: 0.3; stroke-width: 0.8"/>
     </g>
    </g>
   </g>
   <g id="PolyCollection_4">
    <defs>
     <path id="m008dfcd5a6" d="M 209.993494 -25.652119 
L 182.082381 -25.652119 
L 181.797798 -25.795968 
L 181.524207 -25.939817 
L 181.262402 -26.083666 
L 181.013142 -26.227515 
L 180.777147 -26.371364 
L 180.555092 -26.515213 
L 180.347605 -26.659062 
L 180.155263 -26.802911 
L 179.978587 -26.94676 
L 179.818036 -27.090609 
L 179.674009 -27.234458 
L 179.546838 -27.378307 
L 179.43679 -27.522156 
L 179.344058 -27.666005 
L 179.268767 -27.809854 
L 179.210968 -27.953703 
L 179.170639 -28.097552 
L 179.147685 -28.241401 
L 179.141938 -28.385249 
L 179.153158 -28.529098 
L 179.181035 -28.672947 
L 179.225189 -28.816796 
L 179.285176 -28.960645 
L 179.360485 -29.104494 
L 179.450547 -29.248343 
L 179.554735 -29.392192 
L 179.67237 -29.536041 
L 179.802725 -29.67989 
L 179.945028 -29.823739 
L 180.09847 -29.967588 
L 180.262208 -30.111437 
L 180.43537 -30.255286 
L 180.617064 -30.399135 
L 180.806378 -30.542984 
L 181.002392 -30.686833 
L 181.20418 -30.830682 
L 181.410817 -30.974531 
L 181.621382 -31.11838 
L 181.834969 -31.262229 
L 182.050687 -31.406078 
L 182.267668 -31.549927 
L 182.485071 -31.693775 
L 182.702086 -31.837624 
L 182.917941 -31.981473 
L 183.131901 -32.125322 
L 183.343279 -32.269171 
L 183.551429 -32.41302 
L 183.755759 -32.556869 
L 183.955728 -32.700718 
L 184.150846 -32.844567 
L 184.340682 -32.988416 
L 184.524859 -33.132265 
L 184.703057 -33.276114 
L 184.875013 -33.419963 
L 185.040522 -33.563812 
L 185.199434 -33.707661 
L 185.351653 -33.85151 
L 185.497139 -33.995359 
L 185.635903 -34.139208 
L 185.768006 -34.283057 
L 185.893555 -34.426906 
L 186.012705 -34.570755 
L 186.125652 -34.714604 
L 186.23263 -34.858453 
L 186.333911 -35.002301 
L 186.429799 -35.14615 
L 186.520626 -35.289999 
L 186.606752 -35.433848 
L 186.688559 -35.577697 
L 186.766446 -35.721546 
L 186.84083 -35.865395 
L 186.912137 -36.009244 
L 186.980804 -36.153093 
L 187.047272 -36.296942 
L 187.111982 -36.440791 
L 187.175376 -36.58464 
L 187.23789 -36.728489 
L 187.299953 -36.872338 
L 187.361986 -37.016187 
L 187.424394 -37.160036 
L 187.487569 -37.303885 
L 187.551887 -37.447734 
L 187.617703 -37.591583 
L 187.685352 -37.735432 
L 187.755147 -37.879281 
L 187.827377 -38.02313 
L 187.902304 -38.166979 
L 187.980168 -38.310827 
L 188.06118 -38.454676 
L 188.145522 -38.598525 
L 188.233352 -38.742374 
L 188.324796 -38.886223 
L 188.419955 -39.030072 
L 188.518901 -39.173921 
L 188.621676 -39.31777 
L 188.728298 -39.461619 
L 188.838757 -39.605468 
L 188.953016 -39.749317 
L 189.071014 -39.893166 
L 203.004861 -39.893166 
L 203.004861 -39.893166 
L 203.122859 -39.749317 
L 203.237118 -39.605468 
L 203.347577 -39.461619 
L 203.454199 -39.31777 
L 203.556974 -39.173921 
L 203.65592 -39.030072 
L 203.751079 -38.886223 
L 203.842523 -38.742374 
L 203.930353 -38.598525 
L 204.014695 -38.454676 
L 204.095707 -38.310827 
L 204.173571 -38.166979 
L 204.248498 -38.02313 
L 204.320728 -37.879281 
L 204.390523 -37.735432 
L 204.458172 -37.591583 
L 204.523988 -37.447734 
L 204.588306 -37.303885 
L 204.651481 -37.160036 
L 204.713889 -37.016187 
L 204.775922 -36.872338 
L 204.837985 -36.728489 
L 204.900499 -36.58464 
L 204.963893 -36.440791 
L 205.028603 -36.296942 
L 205.095071 -36.153093 
L 205.163738 -36.009244 
L 205.235045 -35.865395 
L 205.309429 -35.721546 
L 205.387316 -35.577697 
L 205.469123 -35.433848 
L 205.555249 -35.289999 
L 205.646076 -35.14615 
L 205.741964 -35.002301 
L 205.843245 -34.858453 
L 205.950223 -34.714604 
L 206.06317 -34.570755 
L 206.18232 -34.426906 
L 206.307869 -34.283057 
L 206.439972 -34.139208 
L 206.578736 -33.995359 
L 206.724222 -33.85151 
L 206.876441 -33.707661 
L 207.035353 -33.563812 
L 207.200862 -33.419963 
L 207.372818 -33.276114 
L 207.551016 -33.132265 
L 207.735193 -32.988416 
L 207.925029 -32.844567 
L 208.120147 -32.700718 
L 208.320116 -32.556869 
L 208.524446 -32.41302 
L 208.732596 -32.269171 
L 208.943974 -32.125322 
L 209.157934 -31.981473 
L 209.373789 -31.837624 
L 209.590804 -31.693775 
L 209.808207 -31.549927 
L 210.025188 -31.406078 
L 210.240906 -31.262229 
L 210.454493 -31.11838 
L 210.665058 -30.974531 
L 210.871695 -30.830682 
L 211.073483 -30.686833 
L 211.269497 -30.542984 
L 211.458811 -30.399135 
L 211.640505 -30.255286 
L 211.813667 -30.111437 
L 211.977405 -29.967588 
L 212.130847 -29.823739 
L 212.27315 -29.67989 
L 212.403505 -29.536041 
L 212.52114 -29.392192 
L 212.625328 -29.248343 
L 212.71539 -29.104494 
L 212.790699 -28.960645 
L 212.850686 -28.816796 
L 212.89484 -28.672947 
L 212.922717 -28.529098 
L 212.933938 -28.385249 
L 212.92819 -28.241401 
L 212.905236 -28.097552 
L 212.864907 -27.953703 
L 212.807108 -27.809854 
L 212.731817 -27.666005 
L 212.639085 -27.522156 
L 212.529037 -27.378307 
L 212.401866 -27.234458 
L 212.257839 -27.090609 
L 212.097288 -26.94676 
L 211.920612 -26.802911 
L 211.72827 -26.659062 
L 211.520783 -26.515213 
L 211.298728 -26.371364 
L 211.062733 -26.227515 
L 210.813473 -26.083666 
L 210.551668 -25.939817 
L 210.278077 -25.795968 
L 209.993494 -25.652119 
z
" style="stroke: #000000; stroke-opacity: 0.7"/>
    </defs>
    <g clip-path="url(#p8018fdcb44)">
     <use xlink:href="#m008dfcd5a6" x="0" y="105.673625" style="fill: #ffffff; fill-opacity: 0.7; stroke: #000000; stroke-opacity: 0.7"/>
    </g>
   </g>
   <g id="PolyCollection_5">
    <defs>
     <path id="m66c4f2681c" d="M 245.301585 -26.860745 
L 231.25429 -26.860745 
L 231.135745 -27.033776 
L 231.021016 -27.206807 
L 230.910165 -27.379838 
L 230.803232 -27.552869 
L 230.70023 -27.7259 
L 230.601144 -27.898931 
L 230.50593 -28.071962 
L 230.414519 -28.244993 
L 230.32681 -28.418024 
L 230.242676 -28.591055 
L 230.16196 -28.764086 
L 230.084476 -28.937117 
L 230.010013 -29.110148 
L 229.93833 -29.283179 
L 229.869161 -29.456209 
L 229.802213 -29.62924 
L 229.737171 -29.802271 
L 229.673696 -29.975302 
L 229.611428 -30.148333 
L 229.549986 -30.321364 
L 229.488976 -30.494395 
L 229.427984 -30.667426 
L 229.366587 -30.840457 
L 229.304349 -31.013488 
L 229.240829 -31.186519 
L 229.175581 -31.35955 
L 229.108156 -31.532581 
L 229.03811 -31.705612 
L 228.965 -31.878643 
L 228.888395 -32.051674 
L 228.807875 -32.224705 
L 228.723035 -32.397735 
L 228.63349 -32.570766 
L 228.538876 -32.743797 
L 228.438858 -32.916828 
L 228.333128 -33.089859 
L 228.221413 -33.26289 
L 228.103477 -33.435921 
L 227.97912 -33.608952 
L 227.848189 -33.781983 
L 227.710575 -33.955014 
L 227.566215 -34.128045 
L 227.415099 -34.301076 
L 227.257268 -34.474107 
L 227.092817 -34.647138 
L 226.921897 -34.820169 
L 226.744713 -34.9932 
L 226.56153 -35.166231 
L 226.372669 -35.339262 
L 226.178506 -35.512292 
L 225.979477 -35.685323 
L 225.776068 -35.858354 
L 225.568824 -36.031385 
L 225.358337 -36.204416 
L 225.145252 -36.377447 
L 224.930258 -36.550478 
L 224.714089 -36.723509 
L 224.497517 -36.89654 
L 224.28135 -37.069571 
L 224.06643 -37.242602 
L 223.853622 -37.415633 
L 223.643816 -37.588664 
L 223.437916 -37.761695 
L 223.236841 -37.934726 
L 223.041512 -38.107757 
L 222.852853 -38.280788 
L 222.671783 -38.453819 
L 222.499208 -38.626849 
L 222.336017 -38.79988 
L 222.18308 -38.972911 
L 222.041234 -39.145942 
L 221.911287 -39.318973 
L 221.794005 -39.492004 
L 221.690115 -39.665035 
L 221.60029 -39.838066 
L 221.525155 -40.011097 
L 221.465278 -40.184128 
L 221.421164 -40.357159 
L 221.393258 -40.53019 
L 221.381938 -40.703221 
L 221.387512 -40.876252 
L 221.41022 -41.049283 
L 221.45023 -41.222314 
L 221.507638 -41.395345 
L 221.582466 -41.568376 
L 221.674664 -41.741406 
L 221.784112 -41.914437 
L 221.910615 -42.087468 
L 222.053913 -42.260499 
L 222.213677 -42.43353 
L 222.389512 -42.606561 
L 222.580963 -42.779592 
L 222.787513 -42.952623 
L 223.008593 -43.125654 
L 223.24358 -43.298685 
L 223.491803 -43.471716 
L 223.75255 -43.644747 
L 224.025068 -43.817778 
L 224.30857 -43.990809 
L 252.247305 -43.990809 
L 252.247305 -43.990809 
L 252.530807 -43.817778 
L 252.803325 -43.644747 
L 253.064072 -43.471716 
L 253.312295 -43.298685 
L 253.547282 -43.125654 
L 253.768362 -42.952623 
L 253.974912 -42.779592 
L 254.166363 -42.606561 
L 254.342198 -42.43353 
L 254.501962 -42.260499 
L 254.64526 -42.087468 
L 254.771763 -41.914437 
L 254.881211 -41.741406 
L 254.973409 -41.568376 
L 255.048237 -41.395345 
L 255.105645 -41.222314 
L 255.145655 -41.049283 
L 255.168363 -40.876252 
L 255.173938 -40.703221 
L 255.162617 -40.53019 
L 255.134711 -40.357159 
L 255.090597 -40.184128 
L 255.03072 -40.011097 
L 254.955585 -39.838066 
L 254.86576 -39.665035 
L 254.76187 -39.492004 
L 254.644588 -39.318973 
L 254.514641 -39.145942 
L 254.372795 -38.972911 
L 254.219858 -38.79988 
L 254.056667 -38.626849 
L 253.884092 -38.453819 
L 253.703022 -38.280788 
L 253.514363 -38.107757 
L 253.319034 -37.934726 
L 253.117959 -37.761695 
L 252.912059 -37.588664 
L 252.702253 -37.415633 
L 252.489445 -37.242602 
L 252.274525 -37.069571 
L 252.058358 -36.89654 
L 251.841786 -36.723509 
L 251.625617 -36.550478 
L 251.410623 -36.377447 
L 251.197538 -36.204416 
L 250.987051 -36.031385 
L 250.779807 -35.858354 
L 250.576398 -35.685323 
L 250.377369 -35.512292 
L 250.183206 -35.339262 
L 249.994345 -35.166231 
L 249.811162 -34.9932 
L 249.633978 -34.820169 
L 249.463058 -34.647138 
L 249.298607 -34.474107 
L 249.140776 -34.301076 
L 248.98966 -34.128045 
L 248.8453 -33.955014 
L 248.707686 -33.781983 
L 248.576755 -33.608952 
L 248.452398 -33.435921 
L 248.334462 -33.26289 
L 248.222747 -33.089859 
L 248.117017 -32.916828 
L 248.016999 -32.743797 
L 247.922385 -32.570766 
L 247.83284 -32.397735 
L 247.748 -32.224705 
L 247.66748 -32.051674 
L 247.590875 -31.878643 
L 247.517765 -31.705612 
L 247.447719 -31.532581 
L 247.380294 -31.35955 
L 247.315046 -31.186519 
L 247.251526 -31.013488 
L 247.189288 -30.840457 
L 247.127891 -30.667426 
L 247.066899 -30.494395 
L 247.005889 -30.321364 
L 246.944447 -30.148333 
L 246.882179 -29.975302 
L 246.818704 -29.802271 
L 246.753662 -29.62924 
L 246.686714 -29.456209 
L 246.617545 -29.283179 
L 246.545862 -29.110148 
L 246.471399 -28.937117 
L 246.393915 -28.764086 
L 246.313199 -28.591055 
L 246.229065 -28.418024 
L 246.141356 -28.244993 
L 246.049945 -28.071962 
L 245.954731 -27.898931 
L 245.855645 -27.7259 
L 245.752643 -27.552869 
L 245.64571 -27.379838 
L 245.534859 -27.206807 
L 245.42013 -27.033776 
L 245.301585 -26.860745 
z
" style="stroke: #000000; stroke-opacity: 0.7"/>
    </defs>
    <g clip-path="url(#p8018fdcb44)">
     <use xlink:href="#m66c4f2681c" x="0" y="105.673625" style="fill: #ffffff; fill-opacity: 0.7; stroke: #000000; stroke-opacity: 0.7"/>
    </g>
   </g>
   <g id="PolyCollection_6">
    <defs>
     <path id="m635237d354" d="M 294.231322 -36.440495 
L 266.804553 -36.440495 
L 266.583535 -36.565557 
L 266.370927 -36.690618 
L 266.166896 -36.815679 
L 265.971569 -36.940741 
L 265.785034 -37.065802 
L 265.60734 -37.190863 
L 265.438499 -37.315925 
L 265.278484 -37.440986 
L 265.127237 -37.566047 
L 264.984665 -37.691109 
L 264.850645 -37.81617 
L 264.725026 -37.941231 
L 264.607632 -38.066293 
L 264.498264 -38.191354 
L 264.396706 -38.316415 
L 264.302722 -38.441477 
L 264.216065 -38.566538 
L 264.136479 -38.691599 
L 264.0637 -38.816661 
L 263.997462 -38.941722 
L 263.937497 -39.066784 
L 263.883542 -39.191845 
L 263.83534 -39.316906 
L 263.79264 -39.441968 
L 263.755205 -39.567029 
L 263.722809 -39.69209 
L 263.695245 -39.817152 
L 263.672319 -39.942213 
L 263.653859 -40.067274 
L 263.639712 -40.192336 
L 263.629746 -40.317397 
L 263.62385 -40.442458 
L 263.621938 -40.56752 
L 263.62394 -40.692581 
L 263.629814 -40.817642 
L 263.639533 -40.942704 
L 263.653095 -41.067765 
L 263.670513 -41.192826 
L 263.69182 -41.317888 
L 263.717062 -41.442949 
L 263.746302 -41.56801 
L 263.779613 -41.693072 
L 263.817079 -41.818133 
L 263.858789 -41.943194 
L 263.904839 -42.068256 
L 263.95533 -42.193317 
L 264.010361 -42.318378 
L 264.070029 -42.44344 
L 264.134428 -42.568501 
L 264.203647 -42.693562 
L 264.277765 -42.818624 
L 264.356852 -42.943685 
L 264.440966 -43.068746 
L 264.53015 -43.193808 
L 264.624437 -43.318869 
L 264.723839 -43.443931 
L 264.828354 -43.568992 
L 264.937963 -43.694053 
L 265.05263 -43.819115 
L 265.172298 -43.944176 
L 265.296895 -44.069237 
L 265.426333 -44.194299 
L 265.560504 -44.31936 
L 265.699285 -44.444421 
L 265.84254 -44.569483 
L 265.990118 -44.694544 
L 266.141855 -44.819605 
L 266.297576 -44.944667 
L 266.457097 -45.069728 
L 266.620228 -45.194789 
L 266.786769 -45.319851 
L 266.956518 -45.444912 
L 267.129272 -45.569973 
L 267.304824 -45.695035 
L 267.482969 -45.820096 
L 267.663505 -45.945157 
L 267.846233 -46.070219 
L 268.03096 -46.19528 
L 268.2175 -46.320341 
L 268.405672 -46.445403 
L 268.595306 -46.570464 
L 268.786241 -46.695525 
L 268.978325 -46.820587 
L 269.171418 -46.945648 
L 269.365388 -47.070709 
L 269.560114 -47.195771 
L 269.755489 -47.320832 
L 269.95141 -47.445893 
L 270.147788 -47.570955 
L 270.344542 -47.696016 
L 270.541598 -47.821078 
L 270.738889 -47.946139 
L 270.936357 -48.0712 
L 271.133945 -48.196262 
L 271.331603 -48.321323 
L 271.529282 -48.446384 
L 271.726937 -48.571446 
L 271.924522 -48.696507 
L 272.121988 -48.821568 
L 288.913887 -48.821568 
L 288.913887 -48.821568 
L 289.111353 -48.696507 
L 289.308938 -48.571446 
L 289.506593 -48.446384 
L 289.704272 -48.321323 
L 289.90193 -48.196262 
L 290.099518 -48.0712 
L 290.296986 -47.946139 
L 290.494277 -47.821078 
L 290.691333 -47.696016 
L 290.888087 -47.570955 
L 291.084465 -47.445893 
L 291.280386 -47.320832 
L 291.475761 -47.195771 
L 291.670487 -47.070709 
L 291.864457 -46.945648 
L 292.05755 -46.820587 
L 292.249634 -46.695525 
L 292.440569 -46.570464 
L 292.630203 -46.445403 
L 292.818375 -46.320341 
L 293.004915 -46.19528 
L 293.189642 -46.070219 
L 293.37237 -45.945157 
L 293.552906 -45.820096 
L 293.731051 -45.695035 
L 293.906603 -45.569973 
L 294.079357 -45.444912 
L 294.249106 -45.319851 
L 294.415647 -45.194789 
L 294.578778 -45.069728 
L 294.738299 -44.944667 
L 294.89402 -44.819605 
L 295.045757 -44.694544 
L 295.193335 -44.569483 
L 295.33659 -44.444421 
L 295.475371 -44.31936 
L 295.609542 -44.194299 
L 295.73898 -44.069237 
L 295.863577 -43.944176 
L 295.983245 -43.819115 
L 296.097912 -43.694053 
L 296.207521 -43.568992 
L 296.312036 -43.443931 
L 296.411438 -43.318869 
L 296.505725 -43.193808 
L 296.594909 -43.068746 
L 296.679023 -42.943685 
L 296.75811 -42.818624 
L 296.832228 -42.693562 
L 296.901447 -42.568501 
L 296.965846 -42.44344 
L 297.025514 -42.318378 
L 297.080545 -42.193317 
L 297.131036 -42.068256 
L 297.177086 -41.943194 
L 297.218796 -41.818133 
L 297.256262 -41.693072 
L 297.289573 -41.56801 
L 297.318813 -41.442949 
L 297.344055 -41.317888 
L 297.365362 -41.192826 
L 297.38278 -41.067765 
L 297.396342 -40.942704 
L 297.406061 -40.817642 
L 297.411935 -40.692581 
L 297.413938 -40.56752 
L 297.412025 -40.442458 
L 297.406129 -40.317397 
L 297.396163 -40.192336 
L 297.382016 -40.067274 
L 297.363556 -39.942213 
L 297.34063 -39.817152 
L 297.313066 -39.69209 
L 297.28067 -39.567029 
L 297.243235 -39.441968 
L 297.200535 -39.316906 
L 297.152333 -39.191845 
L 297.098378 -39.066784 
L 297.038413 -38.941722 
L 296.972175 -38.816661 
L 296.899396 -38.691599 
L 296.81981 -38.566538 
L 296.733153 -38.441477 
L 296.639169 -38.316415 
L 296.537611 -38.191354 
L 296.428243 -38.066293 
L 296.310849 -37.941231 
L 296.18523 -37.81617 
L 296.05121 -37.691109 
L 295.908638 -37.566047 
L 295.757391 -37.440986 
L 295.597376 -37.315925 
L 295.428535 -37.190863 
L 295.250841 -37.065802 
L 295.064306 -36.940741 
L 294.868979 -36.815679 
L 294.664948 -36.690618 
L 294.45234 -36.565557 
L 294.231322 -36.440495 
z
" style="stroke: #000000; stroke-opacity: 0.7"/>
    </defs>
    <g clip-path="url(#p8018fdcb44)">
     <use xlink:href="#m635237d354" x="0" y="105.673625" style="fill: #ffffff; fill-opacity: 0.7; stroke: #000000; stroke-opacity: 0.7"/>
    </g>
   </g>
   <g id="patch_16">
    <path d="M 234.779422 64.341772 
Q 216.158256 65.033279 198.989532 65.67085 
" style="fill: none; opacity: 0.4; stroke: #fecd85; stroke-width: 1.3; stroke-linecap: round"/>
    <path d="M 203.060997 67.521032 
L 198.989532 65.67085 
L 202.912557 63.523787 
" style="fill: none; opacity: 0.4; stroke: #fecd85; stroke-width: 1.3; stroke-linecap: round"/>
   </g>
   <g id="patch_17">
    <path d="M 241.724891 63.611263 
Q 260.380312 60.360788 277.603861 57.359798 
" style="fill: none; opacity: 0.4; stroke: #74c15b; stroke-width: 1.3; stroke-linecap: round"/>
    <path d="M 273.319927 56.076089 
L 277.603861 57.359798 
L 274.006533 60.01672 
" style="fill: none; opacity: 0.4; stroke: #74c15b; stroke-width: 1.3; stroke-linecap: round"/>
   </g>
   <g id="patch_18">
    <path d="M 234.877391 66.867627 
Q 216.18543 71.443457 198.905226 75.673686 
" style="fill: none; opacity: 0.4; stroke: #e65337; stroke-width: 1.3; stroke-linecap: round"/>
    <path d="M 203.266063 76.6652 
L 198.905226 75.673686 
L 202.31494 72.779925 
" style="fill: none; opacity: 0.4; stroke: #e65337; stroke-width: 1.3; stroke-linecap: round"/>
   </g>
   <g id="patch_19">
    <path d="M 241.766141 66.299256 
Q 260.392264 67.709428 277.56909 69.009874 
" style="fill: none; opacity: 0.4; stroke: #fdb76c; stroke-width: 1.3; stroke-linecap: round"/>
    <path d="M 273.731492 66.713609 
L 277.56909 69.009874 
L 273.429518 70.702194 
" style="fill: none; opacity: 0.4; stroke: #fdb76c; stroke-width: 1.3; stroke-linecap: round"/>
   </g>
   <g id="patch_20">
    <path d="M 234.784578 74.175001 
Q 216.160933 75.422445 198.987483 76.572753 
" style="fill: none; opacity: 0.4; stroke: #fdbb70; stroke-width: 1.3; stroke-linecap: round"/>
    <path d="M 203.112204 78.300953 
L 198.987483 76.572753 
L 202.844876 74.309897 
" style="fill: none; opacity: 0.4; stroke: #fdbb70; stroke-width: 1.3; stroke-linecap: round"/>
   </g>
   <g id="patch_21">
    <path d="M 241.709422 73.254435 
Q 260.377019 69.519405 277.619419 66.06953 
" style="fill: none; opacity: 0.4; stroke: #67bb58; stroke-width: 1.3; stroke-linecap: round"/>
    <path d="M 273.304773 64.893168 
L 277.619419 66.06953 
L 274.089542 68.81543 
" style="fill: none; opacity: 0.4; stroke: #67bb58; stroke-width: 1.3; stroke-linecap: round"/>
   </g>
   <g id="patch_22">
    <path d="M 234.779422 78.912984 
Q 216.158256 79.445797 198.989939 79.937039 
" style="fill: none; opacity: 0.4; stroke: #fed38c; stroke-width: 1.3; stroke-linecap: round"/>
    <path d="M 203.045506 81.821815 
L 198.989939 79.937039 
L 202.931099 77.823451 
" style="fill: none; opacity: 0.4; stroke: #fed38c; stroke-width: 1.3; stroke-linecap: round"/>
   </g>
   <g id="patch_23">
    <path d="M 241.678484 77.995216 
Q 260.370445 73.500723 277.64924 69.346026 
" style="fill: none; opacity: 0.4; stroke: #53b152; stroke-width: 1.3; stroke-linecap: round"/>
    <path d="M 273.292515 68.336599 
L 277.64924 69.346026 
L 274.227663 72.22575 
" style="fill: none; opacity: 0.4; stroke: #53b152; stroke-width: 1.3; stroke-linecap: round"/>
   </g>
   <g id="patch_24">
    <path d="M 235.011453 62.935155 
Q 216.225239 70.137607 198.796146 76.819752 
" style="fill: none; opacity: 0.4; stroke: #d7191c; stroke-width: 1.3; stroke-linecap: round"/>
    <path d="M 203.247024 77.255279 
L 198.796146 76.819752 
L 201.815095 73.520365 
" style="fill: none; opacity: 0.4; stroke: #d7191c; stroke-width: 1.3; stroke-linecap: round"/>
   </g>
   <g id="patch_25">
    <path d="M 241.776453 61.663257 
Q 260.397619 61.559154 277.565364 61.463176 
" style="fill: none; opacity: 0.4; stroke: #e9f6aa; stroke-width: 1.3; stroke-linecap: round"/>
    <path d="M 273.554246 59.485569 
L 277.565364 61.463176 
L 273.576608 63.485507 
" style="fill: none; opacity: 0.4; stroke: #e9f6aa; stroke-width: 1.3; stroke-linecap: round"/>
   </g>
   <g id="patch_26">
    <path d="M 234.794891 66.035836 
Q 216.161558 67.886694 198.974552 69.593887 
" style="fill: none; opacity: 0.4; stroke: #fcaa5f; stroke-width: 1.3; stroke-linecap: round"/>
    <path d="M 203.152652 71.188717 
L 198.974552 69.593887 
L 202.757276 67.208305 
" style="fill: none; opacity: 0.4; stroke: #fcaa5f; stroke-width: 1.3; stroke-linecap: round"/>
   </g>
   <g id="patch_27">
    <path d="M 241.766141 65.423091 
Q 260.392264 63.99859 277.569175 62.684924 
" style="fill: none; opacity: 0.4; stroke: #afdd72; stroke-width: 1.3; stroke-linecap: round"/>
    <path d="M 273.42831 60.995771 
L 277.569175 62.684924 
L 273.733333 64.984124 
" style="fill: none; opacity: 0.4; stroke: #afdd72; stroke-width: 1.3; stroke-linecap: round"/>
   </g>
   <g id="PathCollection_19">
    <path d="M 196.037938 67.361598 
C 196.45726 67.361598 196.859465 67.194999 197.155971 66.898493 
C 197.452478 66.601987 197.619076 66.199782 197.619076 65.780459 
C 197.619076 65.361136 197.452478 64.958931 197.155971 64.662425 
C 196.859465 64.365919 196.45726 64.19932 196.037938 64.19932 
C 195.618615 64.19932 195.21641 64.365919 194.919904 64.662425 
C 194.623397 64.958931 194.456799 65.361136 194.456799 65.780459 
C 194.456799 66.199782 194.623397 66.601987 194.919904 66.898493 
C 195.21641 67.194999 195.618615 67.361598 196.037938 67.361598 
z
" clip-path="url(#p8018fdcb44)" style="fill-opacity: 0.5"/>
   </g>
   <g id="PathCollection_20">
    <path d="M 238.277938 65.792991 
C 238.69726 65.792991 239.099465 65.626392 239.395971 65.329886 
C 239.692478 65.03338 239.859076 64.631175 239.859076 64.211852 
C 239.859076 63.792529 239.692478 63.390324 239.395971 63.093818 
C 239.099465 62.797312 238.69726 62.630713 238.277938 62.630713 
C 237.858615 62.630713 237.45641 62.797312 237.159904 63.093818 
C 236.863397 63.390324 236.696799 63.792529 236.696799 64.211852 
C 236.696799 64.631175 236.863397 65.03338 237.159904 65.329886 
C 237.45641 65.626392 237.858615 65.792991 238.277938 65.792991 
z
" clip-path="url(#p8018fdcb44)" style="fill-opacity: 0.5"/>
   </g>
   <g id="PathCollection_21">
    <path d="M 280.517938 58.433196 
C 280.93726 58.433196 281.339465 58.266597 281.635971 57.970091 
C 281.932478 57.673585 282.099076 57.27138 282.099076 56.852057 
C 282.099076 56.432734 281.932478 56.030529 281.635971 55.734023 
C 281.339465 55.437517 280.93726 55.270918 280.517938 55.270918 
C 280.098615 55.270918 279.69641 55.437517 279.399904 55.734023 
C 279.103397 56.030529 278.936799 56.432734 278.936799 56.852057 
C 278.936799 57.27138 279.103397 57.673585 279.399904 57.970091 
C 279.69641 58.266597 280.098615 58.433196 280.517938 58.433196 
z
" clip-path="url(#p8018fdcb44)" style="fill-opacity: 0.5"/>
   </g>
   <g id="PathCollection_22">
    <path d="M 196.037938 77.956743 
C 196.45726 77.956743 196.859465 77.790144 197.155971 77.493638 
C 197.452478 77.197132 197.619076 76.794927 197.619076 76.375604 
C 197.619076 75.956281 197.452478 75.554076 197.155971 75.25757 
C 196.859465 74.961064 196.45726 74.794465 196.037938 74.794465 
C 195.618615 74.794465 195.21641 74.961064 194.919904 75.25757 
C 194.623397 75.554076 194.456799 75.956281 194.456799 76.375604 
C 194.456799 76.794927 194.623397 77.197132 194.919904 77.493638 
C 195.21641 77.790144 195.618615 77.956743 196.037938 77.956743 
z
" clip-path="url(#p8018fdcb44)" style="fill-opacity: 0.5"/>
   </g>
   <g id="PathCollection_23">
    <path d="M 238.277938 67.616306 
C 238.69726 67.616306 239.099465 67.449707 239.395971 67.153201 
C 239.692478 66.856695 239.859076 66.45449 239.859076 66.035167 
C 239.859076 65.615844 239.692478 65.213639 239.395971 64.917133 
C 239.099465 64.620627 238.69726 64.454028 238.277938 64.454028 
C 237.858615 64.454028 237.45641 64.620627 237.159904 64.917133 
C 236.863397 65.213639 236.696799 65.615844 236.696799 66.035167 
C 236.696799 66.45449 236.863397 66.856695 237.159904 67.153201 
C 237.45641 67.449707 237.858615 67.616306 238.277938 67.616306 
z
" clip-path="url(#p8018fdcb44)" style="fill-opacity: 0.5"/>
   </g>
   <g id="PathCollection_24">
    <path d="M 280.517938 70.814269 
C 280.93726 70.814269 281.339465 70.64767 281.635971 70.351164 
C 281.932478 70.054658 282.099076 69.652453 282.099076 69.23313 
C 282.099076 68.813807 281.932478 68.411602 281.635971 68.115096 
C 281.339465 67.81859 280.93726 67.651991 280.517938 67.651991 
C 280.098615 67.651991 279.69641 67.81859 279.399904 68.115096 
C 279.103397 68.411602 278.936799 68.813807 278.936799 69.23313 
C 278.936799 69.652453 279.103397 70.054658 279.399904 70.351164 
C 279.69641 70.64767 280.098615 70.814269 280.517938 70.814269 
z
" clip-path="url(#p8018fdcb44)" style="fill-opacity: 0.5"/>
   </g>
   <g id="PathCollection_25">
    <path d="M 196.037938 78.351457 
C 196.45726 78.351457 196.859465 78.184859 197.155971 77.888353 
C 197.452478 77.591847 197.619076 77.189642 197.619076 76.770319 
C 197.619076 76.350996 197.452478 75.948791 197.155971 75.652285 
C 196.859465 75.355779 196.45726 75.18918 196.037938 75.18918 
C 195.618615 75.18918 195.21641 75.355779 194.919904 75.652285 
C 194.623397 75.948791 194.456799 76.350996 194.456799 76.770319 
C 194.456799 77.189642 194.623397 77.591847 194.919904 77.888353 
C 195.21641 78.184859 195.618615 78.351457 196.037938 78.351457 
z
" clip-path="url(#p8018fdcb44)" style="fill-opacity: 0.5"/>
   </g>
   <g id="PathCollection_26">
    <path d="M 238.277938 75.522149 
C 238.69726 75.522149 239.099465 75.35555 239.395971 75.059044 
C 239.692478 74.762538 239.859076 74.360333 239.859076 73.94101 
C 239.859076 73.521687 239.692478 73.119482 239.395971 72.822976 
C 239.099465 72.52647 238.69726 72.359871 238.277938 72.359871 
C 237.858615 72.359871 237.45641 72.52647 237.159904 72.822976 
C 236.863397 73.119482 236.696799 73.521687 236.696799 73.94101 
C 236.696799 74.360333 236.863397 74.762538 237.159904 75.059044 
C 237.45641 75.35555 237.858615 75.522149 238.277938 75.522149 
z
" clip-path="url(#p8018fdcb44)" style="fill-opacity: 0.5"/>
   </g>
   <g id="PathCollection_27">
    <path d="M 280.517938 67.07073 
C 280.93726 67.07073 281.339465 66.904131 281.635971 66.607625 
C 281.932478 66.311119 282.099076 65.908914 282.099076 65.489591 
C 282.099076 65.070268 281.932478 64.668063 281.635971 64.371557 
C 281.339465 64.075051 280.93726 63.908452 280.517938 63.908452 
C 280.098615 63.908452 279.69641 64.075051 279.399904 64.371557 
C 279.103397 64.668063 278.936799 65.070268 278.936799 65.489591 
C 278.936799 65.908914 279.103397 66.311119 279.399904 66.607625 
C 279.69641 66.904131 280.098615 67.07073 280.517938 67.07073 
z
" clip-path="url(#p8018fdcb44)" style="fill-opacity: 0.5"/>
   </g>
   <g id="PathCollection_28">
    <path d="M 196.037938 81.602645 
C 196.45726 81.602645 196.859465 81.436046 197.155971 81.13954 
C 197.452478 80.843034 197.619076 80.440829 197.619076 80.021506 
C 197.619076 79.602183 197.452478 79.199978 197.155971 78.903472 
C 196.859465 78.606966 196.45726 78.440367 196.037938 78.440367 
C 195.618615 78.440367 195.21641 78.606966 194.919904 78.903472 
C 194.623397 79.199978 194.456799 79.602183 194.456799 80.021506 
C 194.456799 80.440829 194.623397 80.843034 194.919904 81.13954 
C 195.21641 81.436046 195.618615 81.602645 196.037938 81.602645 
z
" clip-path="url(#p8018fdcb44)" style="fill-opacity: 0.5"/>
   </g>
   <g id="PathCollection_29">
    <path d="M 238.277938 80.394019 
C 238.69726 80.394019 239.099465 80.22742 239.395971 79.930914 
C 239.692478 79.634408 239.859076 79.232203 239.859076 78.81288 
C 239.859076 78.393557 239.692478 77.991352 239.395971 77.694846 
C 239.099465 77.39834 238.69726 77.231741 238.277938 77.231741 
C 237.858615 77.231741 237.45641 77.39834 237.159904 77.694846 
C 236.863397 77.991352 236.696799 78.393557 236.696799 78.81288 
C 236.696799 79.232203 236.863397 79.634408 237.159904 79.930914 
C 237.45641 80.22742 237.858615 80.394019 238.277938 80.394019 
z
" clip-path="url(#p8018fdcb44)" style="fill-opacity: 0.5"/>
   </g>
   <g id="PathCollection_30">
    <path d="M 280.517938 70.237384 
C 280.93726 70.237384 281.339465 70.070786 281.635971 69.77428 
C 281.932478 69.477774 282.099076 69.075569 282.099076 68.656246 
C 282.099076 68.236923 281.932478 67.834718 281.635971 67.538212 
C 281.339465 67.241706 280.93726 67.075107 280.517938 67.075107 
C 280.098615 67.075107 279.69641 67.241706 279.399904 67.538212 
C 279.103397 67.834718 278.936799 68.236923 278.936799 68.656246 
C 278.936799 69.075569 279.103397 69.477774 279.399904 69.77428 
C 279.69641 70.070786 280.098615 70.237384 280.517938 70.237384 
z
" clip-path="url(#p8018fdcb44)" style="fill-opacity: 0.5"/>
   </g>
   <g id="PathCollection_31">
    <path d="M 196.037938 79.458361 
C 196.45726 79.458361 196.859465 79.291762 197.155971 78.995256 
C 197.452478 78.69875 197.619076 78.296545 197.619076 77.877222 
C 197.619076 77.457899 197.452478 77.055694 197.155971 76.759188 
C 196.859465 76.462682 196.45726 76.296083 196.037938 76.296083 
C 195.618615 76.296083 195.21641 76.462682 194.919904 76.759188 
C 194.623397 77.055694 194.456799 77.457899 194.456799 77.877222 
C 194.456799 78.296545 194.623397 78.69875 194.919904 78.995256 
C 195.21641 79.291762 195.618615 79.458361 196.037938 79.458361 
z
" clip-path="url(#p8018fdcb44)" style="fill-opacity: 0.5"/>
   </g>
   <g id="PathCollection_32">
    <path d="M 238.277938 63.263955 
C 238.69726 63.263955 239.099465 63.097356 239.395971 62.80085 
C 239.692478 62.504344 239.859076 62.102139 239.859076 61.682816 
C 239.859076 61.263493 239.692478 60.861288 239.395971 60.564782 
C 239.099465 60.268276 238.69726 60.101677 238.277938 60.101677 
C 237.858615 60.101677 237.45641 60.268276 237.159904 60.564782 
C 236.863397 60.861288 236.696799 61.263493 236.696799 61.682816 
C 236.696799 62.102139 236.863397 62.504344 237.159904 62.80085 
C 237.45641 63.097356 237.858615 63.263955 238.277938 63.263955 
z
" clip-path="url(#p8018fdcb44)" style="fill-opacity: 0.5"/>
   </g>
   <g id="PathCollection_33">
    <path d="M 280.517938 63.027808 
C 280.93726 63.027808 281.339465 62.861209 281.635971 62.564703 
C 281.932478 62.268197 282.099076 61.865992 282.099076 61.446669 
C 282.099076 61.027346 281.932478 60.625141 281.635971 60.328635 
C 281.339465 60.032129 280.93726 59.86553 280.517938 59.86553 
C 280.098615 59.86553 279.69641 60.032129 279.399904 60.328635 
C 279.103397 60.625141 278.936799 61.027346 278.936799 61.446669 
C 278.936799 61.865992 279.103397 62.268197 279.399904 62.564703 
C 279.69641 62.861209 280.098615 63.027808 280.517938 63.027808 
z
" clip-path="url(#p8018fdcb44)" style="fill-opacity: 0.5"/>
   </g>
   <g id="PathCollection_34">
    <path d="M 196.037938 71.466721 
C 196.45726 71.466721 196.859465 71.300123 197.155971 71.003617 
C 197.452478 70.70711 197.619076 70.304905 197.619076 69.885583 
C 197.619076 69.46626 197.452478 69.064055 197.155971 68.767549 
C 196.859465 68.471043 196.45726 68.304444 196.037938 68.304444 
C 195.618615 68.304444 195.21641 68.471043 194.919904 68.767549 
C 194.623397 69.064055 194.456799 69.46626 194.456799 69.885583 
C 194.456799 70.304905 194.623397 70.70711 194.919904 71.003617 
C 195.21641 71.300123 195.618615 71.466721 196.037938 71.466721 
z
" clip-path="url(#p8018fdcb44)" style="fill-opacity: 0.5"/>
   </g>
   <g id="PathCollection_35">
    <path d="M 238.277938 67.271002 
C 238.69726 67.271002 239.099465 67.104404 239.395971 66.807898 
C 239.692478 66.511391 239.859076 66.109186 239.859076 65.689864 
C 239.859076 65.270541 239.692478 64.868336 239.395971 64.57183 
C 239.099465 64.275323 238.69726 64.108725 238.277938 64.108725 
C 237.858615 64.108725 237.45641 64.275323 237.159904 64.57183 
C 236.863397 64.868336 236.696799 65.270541 236.696799 65.689864 
C 236.696799 66.109186 236.863397 66.511391 237.159904 66.807898 
C 237.45641 67.104404 237.858615 67.271002 238.277938 67.271002 
z
" clip-path="url(#p8018fdcb44)" style="fill-opacity: 0.5"/>
   </g>
   <g id="PathCollection_36">
    <path d="M 280.517938 64.040545 
C 280.93726 64.040545 281.339465 63.873946 281.635971 63.57744 
C 281.932478 63.280934 282.099076 62.878729 282.099076 62.459406 
C 282.099076 62.040083 281.932478 61.637878 281.635971 61.341372 
C 281.339465 61.044866 280.93726 60.878268 280.517938 60.878268 
C 280.098615 60.878268 279.69641 61.044866 279.399904 61.341372 
C 279.103397 61.637878 278.936799 62.040083 278.936799 62.459406 
C 278.936799 62.878729 279.103397 63.280934 279.399904 63.57744 
C 279.69641 63.873946 280.098615 64.040545 280.517938 64.040545 
z
" clip-path="url(#p8018fdcb44)" style="fill-opacity: 0.5"/>
   </g>
   <g id="text_12">
    <!-- Testing on Target -->
    <g style="fill: #262626" transform="translate(200.294344 14.479687) scale(0.1 -0.1)">
     <use xlink:href="#ArialMT-54"/>
     <use xlink:href="#ArialMT-65" x="49.958984"/>
     <use xlink:href="#ArialMT-73" x="105.574219"/>
     <use xlink:href="#ArialMT-74" x="155.574219"/>
     <use xlink:href="#ArialMT-69" x="183.357422"/>
     <use xlink:href="#ArialMT-6e" x="205.574219"/>
     <use xlink:href="#ArialMT-67" x="261.189453"/>
     <use xlink:href="#ArialMT-20" x="316.804688"/>
     <use xlink:href="#ArialMT-6f" x="344.587891"/>
     <use xlink:href="#ArialMT-6e" x="400.203125"/>
     <use xlink:href="#ArialMT-20" x="455.818359"/>
     <use xlink:href="#ArialMT-54" x="481.851562"/>
     <use xlink:href="#ArialMT-61" x="531.810547"/>
     <use xlink:href="#ArialMT-72" x="587.425781"/>
     <use xlink:href="#ArialMT-67" x="620.726562"/>
     <use xlink:href="#ArialMT-65" x="676.341797"/>
     <use xlink:href="#ArialMT-74" x="731.957031"/>
    </g>
   </g>
  </g>
 </g>
 <defs>
  <clipPath id="p9e2ddb6285">
   <rect x="35.525937" y="17.479687" width="126.72" height="65.52"/>
  </clipPath>
  <clipPath id="p8018fdcb44">
   <rect x="174.917938" y="17.479687" width="126.72" height="65.52"/>
  </clipPath>
 </defs>
</svg>
