<?xml version="1.0" encoding="utf-8" standalone="no"?>
<!DOCTYPE svg PUBLIC "-//W3C//DTD SVG 1.1//EN"
  "http://www.w3.org/Graphics/SVG/1.1/DTD/svg11.dtd">
<svg xmlns:xlink="http://www.w3.org/1999/xlink" width="308.837938pt" height="105.673625pt" viewBox="0 0 308.837938 105.673625" xmlns="http://www.w3.org/2000/svg" version="1.1">
 <metadata>
  <rdf:RDF xmlns:dc="http://purl.org/dc/elements/1.1/" xmlns:cc="http://creativecommons.org/ns#" xmlns:rdf="http://www.w3.org/1999/02/22-rdf-syntax-ns#">
   <cc:Work>
    <dc:type rdf:resource="http://purl.org/dc/dcmitype/StillImage"/>
    <dc:date>1980-01-01T00:00:00+00:00</dc:date>
    <dc:format>image/svg+xml</dc:format>
    <dc:creator>
     <cc:Agent>
      <dc:title>Matplotlib v3.9.0, https://matplotlib.org/</dc:title>
     </cc:Agent>
    </dc:creator>
   </cc:Work>
  </rdf:RDF>
 </metadata>
 <defs>
  <style type="text/css">*{stroke-linejoin: round; stroke-linecap: butt}</style>
 </defs>
 <g id="figure_1">
  <g id="patch_1">
   <path d="M 0 105.673625 
L 308.837938 105.673625 
L 308.837938 0 
L 0 0 
z
" style="fill: #ffffff"/>
  </g>
  <g id="axes_1">
   <g id="patch_2">
    <path d="M 35.525937 82.999688 
L 162.245938 82.999688 
L 162.245938 17.479687 
L 35.525937 17.479687 
z
" style="fill: #ffffff"/>
   </g>
   <g id="matplotlib.axis_1">
    <g id="xtick_1">
     <g id="text_1">
      <!-- Naively-tuned -->
      <g style="fill: #262626" transform="translate(38.304219 90.794375) scale(0.06 -0.06)">
       <defs>
        <path id="ArialMT-4e" d="M 488 0 
L 488 4581 
L 1109 4581 
L 3516 984 
L 3516 4581 
L 4097 4581 
L 4097 0 
L 3475 0 
L 1069 3600 
L 1069 0 
L 488 0 
z
" transform="scale(0.015625)"/>
        <path id="ArialMT-61" d="M 2588 409 
Q 2275 144 1986 34 
Q 1697 -75 1366 -75 
Q 819 -75 525 192 
Q 231 459 231 875 
Q 231 1119 342 1320 
Q 453 1522 633 1644 
Q 813 1766 1038 1828 
Q 1203 1872 1538 1913 
Q 2219 1994 2541 2106 
Q 2544 2222 2544 2253 
Q 2544 2597 2384 2738 
Q 2169 2928 1744 2928 
Q 1347 2928 1158 2789 
Q 969 2650 878 2297 
L 328 2372 
Q 403 2725 575 2942 
Q 747 3159 1072 3276 
Q 1397 3394 1825 3394 
Q 2250 3394 2515 3294 
Q 2781 3194 2906 3042 
Q 3031 2891 3081 2659 
Q 3109 2516 3109 2141 
L 3109 1391 
Q 3109 606 3145 398 
Q 3181 191 3288 0 
L 2700 0 
Q 2613 175 2588 409 
z
M 2541 1666 
Q 2234 1541 1622 1453 
Q 1275 1403 1131 1340 
Q 988 1278 909 1158 
Q 831 1038 831 891 
Q 831 666 1001 516 
Q 1172 366 1500 366 
Q 1825 366 2078 508 
Q 2331 650 2450 897 
Q 2541 1088 2541 1459 
L 2541 1666 
z
" transform="scale(0.015625)"/>
        <path id="ArialMT-69" d="M 425 3934 
L 425 4581 
L 988 4581 
L 988 3934 
L 425 3934 
z
M 425 0 
L 425 3319 
L 988 3319 
L 988 0 
L 425 0 
z
" transform="scale(0.015625)"/>
        <path id="ArialMT-76" d="M 1344 0 
L 81 3319 
L 675 3319 
L 1388 1331 
Q 1503 1009 1600 663 
Q 1675 925 1809 1294 
L 2547 3319 
L 3125 3319 
L 1869 0 
L 1344 0 
z
" transform="scale(0.015625)"/>
        <path id="ArialMT-65" d="M 2694 1069 
L 3275 997 
Q 3138 488 2766 206 
Q 2394 -75 1816 -75 
Q 1088 -75 661 373 
Q 234 822 234 1631 
Q 234 2469 665 2931 
Q 1097 3394 1784 3394 
Q 2450 3394 2872 2941 
Q 3294 2488 3294 1666 
Q 3294 1616 3291 1516 
L 816 1516 
Q 847 969 1125 678 
Q 1403 388 1819 388 
Q 2128 388 2347 550 
Q 2566 713 2694 1069 
z
M 847 1978 
L 2700 1978 
Q 2663 2397 2488 2606 
Q 2219 2931 1791 2931 
Q 1403 2931 1139 2672 
Q 875 2413 847 1978 
z
" transform="scale(0.015625)"/>
        <path id="ArialMT-6c" d="M 409 0 
L 409 4581 
L 972 4581 
L 972 0 
L 409 0 
z
" transform="scale(0.015625)"/>
        <path id="ArialMT-79" d="M 397 -1278 
L 334 -750 
Q 519 -800 656 -800 
Q 844 -800 956 -737 
Q 1069 -675 1141 -563 
Q 1194 -478 1313 -144 
Q 1328 -97 1363 -6 
L 103 3319 
L 709 3319 
L 1400 1397 
Q 1534 1031 1641 628 
Q 1738 1016 1872 1384 
L 2581 3319 
L 3144 3319 
L 1881 -56 
Q 1678 -603 1566 -809 
Q 1416 -1088 1222 -1217 
Q 1028 -1347 759 -1347 
Q 597 -1347 397 -1278 
z
" transform="scale(0.015625)"/>
        <path id="ArialMT-2d" d="M 203 1375 
L 203 1941 
L 1931 1941 
L 1931 1375 
L 203 1375 
z
" transform="scale(0.015625)"/>
        <path id="ArialMT-74" d="M 1650 503 
L 1731 6 
Q 1494 -44 1306 -44 
Q 1000 -44 831 53 
Q 663 150 594 308 
Q 525 466 525 972 
L 525 2881 
L 113 2881 
L 113 3319 
L 525 3319 
L 525 4141 
L 1084 4478 
L 1084 3319 
L 1650 3319 
L 1650 2881 
L 1084 2881 
L 1084 941 
Q 1084 700 1114 631 
Q 1144 563 1211 522 
Q 1278 481 1403 481 
Q 1497 481 1650 503 
z
" transform="scale(0.015625)"/>
        <path id="ArialMT-75" d="M 2597 0 
L 2597 488 
Q 2209 -75 1544 -75 
Q 1250 -75 995 37 
Q 741 150 617 320 
Q 494 491 444 738 
Q 409 903 409 1263 
L 409 3319 
L 972 3319 
L 972 1478 
Q 972 1038 1006 884 
Q 1059 663 1231 536 
Q 1403 409 1656 409 
Q 1909 409 2131 539 
Q 2353 669 2445 892 
Q 2538 1116 2538 1541 
L 2538 3319 
L 3100 3319 
L 3100 0 
L 2597 0 
z
" transform="scale(0.015625)"/>
        <path id="ArialMT-6e" d="M 422 0 
L 422 3319 
L 928 3319 
L 928 2847 
Q 1294 3394 1984 3394 
Q 2284 3394 2536 3286 
Q 2788 3178 2913 3003 
Q 3038 2828 3088 2588 
Q 3119 2431 3119 2041 
L 3119 0 
L 2556 0 
L 2556 2019 
Q 2556 2363 2490 2533 
Q 2425 2703 2258 2804 
Q 2091 2906 1866 2906 
Q 1506 2906 1245 2678 
Q 984 2450 984 1813 
L 984 0 
L 422 0 
z
" transform="scale(0.015625)"/>
        <path id="ArialMT-64" d="M 2575 0 
L 2575 419 
Q 2259 -75 1647 -75 
Q 1250 -75 917 144 
Q 584 363 401 755 
Q 219 1147 219 1656 
Q 219 2153 384 2558 
Q 550 2963 881 3178 
Q 1213 3394 1622 3394 
Q 1922 3394 2156 3267 
Q 2391 3141 2538 2938 
L 2538 4581 
L 3097 4581 
L 3097 0 
L 2575 0 
z
M 797 1656 
Q 797 1019 1065 703 
Q 1334 388 1700 388 
Q 2069 388 2326 689 
Q 2584 991 2584 1609 
Q 2584 2291 2321 2609 
Q 2059 2928 1675 2928 
Q 1300 2928 1048 2622 
Q 797 2316 797 1656 
z
" transform="scale(0.015625)"/>
       </defs>
       <use xlink:href="#ArialMT-4e"/>
       <use xlink:href="#ArialMT-61" x="72.216797"/>
       <use xlink:href="#ArialMT-69" x="127.832031"/>
       <use xlink:href="#ArialMT-76" x="150.048828"/>
       <use xlink:href="#ArialMT-65" x="200.048828"/>
       <use xlink:href="#ArialMT-6c" x="255.664062"/>
       <use xlink:href="#ArialMT-79" x="277.880859"/>
       <use xlink:href="#ArialMT-2d" x="327.880859"/>
       <use xlink:href="#ArialMT-74" x="361.181641"/>
       <use xlink:href="#ArialMT-75" x="388.964844"/>
       <use xlink:href="#ArialMT-6e" x="444.580078"/>
       <use xlink:href="#ArialMT-65" x="500.195312"/>
       <use xlink:href="#ArialMT-64" x="555.810547"/>
      </g>
      <!-- on target -->
      <g style="fill: #262626" transform="translate(44.805312 97.210813) scale(0.06 -0.06)">
       <defs>
        <path id="ArialMT-6f" d="M 213 1659 
Q 213 2581 725 3025 
Q 1153 3394 1769 3394 
Q 2453 3394 2887 2945 
Q 3322 2497 3322 1706 
Q 3322 1066 3130 698 
Q 2938 331 2570 128 
Q 2203 -75 1769 -75 
Q 1072 -75 642 372 
Q 213 819 213 1659 
z
M 791 1659 
Q 791 1022 1069 705 
Q 1347 388 1769 388 
Q 2188 388 2466 706 
Q 2744 1025 2744 1678 
Q 2744 2294 2464 2611 
Q 2184 2928 1769 2928 
Q 1347 2928 1069 2612 
Q 791 2297 791 1659 
z
" transform="scale(0.015625)"/>
        <path id="ArialMT-20" transform="scale(0.015625)"/>
        <path id="ArialMT-72" d="M 416 0 
L 416 3319 
L 922 3319 
L 922 2816 
Q 1116 3169 1280 3281 
Q 1444 3394 1641 3394 
Q 1925 3394 2219 3213 
L 2025 2691 
Q 1819 2813 1613 2813 
Q 1428 2813 1281 2702 
Q 1134 2591 1072 2394 
Q 978 2094 978 1738 
L 978 0 
L 416 0 
z
" transform="scale(0.015625)"/>
        <path id="ArialMT-67" d="M 319 -275 
L 866 -356 
Q 900 -609 1056 -725 
Q 1266 -881 1628 -881 
Q 2019 -881 2231 -725 
Q 2444 -569 2519 -288 
Q 2563 -116 2559 434 
Q 2191 0 1641 0 
Q 956 0 581 494 
Q 206 988 206 1678 
Q 206 2153 378 2554 
Q 550 2956 876 3175 
Q 1203 3394 1644 3394 
Q 2231 3394 2613 2919 
L 2613 3319 
L 3131 3319 
L 3131 450 
Q 3131 -325 2973 -648 
Q 2816 -972 2473 -1159 
Q 2131 -1347 1631 -1347 
Q 1038 -1347 672 -1080 
Q 306 -813 319 -275 
z
M 784 1719 
Q 784 1066 1043 766 
Q 1303 466 1694 466 
Q 2081 466 2343 764 
Q 2606 1063 2606 1700 
Q 2606 2309 2336 2618 
Q 2066 2928 1684 2928 
Q 1309 2928 1046 2623 
Q 784 2319 784 1719 
z
" transform="scale(0.015625)"/>
       </defs>
       <use xlink:href="#ArialMT-6f"/>
       <use xlink:href="#ArialMT-6e" x="55.615234"/>
       <use xlink:href="#ArialMT-20" x="111.230469"/>
       <use xlink:href="#ArialMT-74" x="139.013672"/>
       <use xlink:href="#ArialMT-61" x="166.796875"/>
       <use xlink:href="#ArialMT-72" x="222.412109"/>
       <use xlink:href="#ArialMT-67" x="255.712891"/>
       <use xlink:href="#ArialMT-65" x="311.328125"/>
       <use xlink:href="#ArialMT-74" x="366.943359"/>
      </g>
     </g>
    </g>
    <g id="xtick_2">
     <g id="text_2">
      <!-- Agents trained -->
      <g style="fill: #262626" transform="translate(79.541094 90.794375) scale(0.06 -0.06)">
       <defs>
        <path id="ArialMT-41" d="M -9 0 
L 1750 4581 
L 2403 4581 
L 4278 0 
L 3588 0 
L 3053 1388 
L 1138 1388 
L 634 0 
L -9 0 
z
M 1313 1881 
L 2866 1881 
L 2388 3150 
Q 2169 3728 2063 4100 
Q 1975 3659 1816 3225 
L 1313 1881 
z
" transform="scale(0.015625)"/>
        <path id="ArialMT-73" d="M 197 991 
L 753 1078 
Q 800 744 1014 566 
Q 1228 388 1613 388 
Q 2000 388 2187 545 
Q 2375 703 2375 916 
Q 2375 1106 2209 1216 
Q 2094 1291 1634 1406 
Q 1016 1563 777 1677 
Q 538 1791 414 1992 
Q 291 2194 291 2438 
Q 291 2659 392 2848 
Q 494 3038 669 3163 
Q 800 3259 1026 3326 
Q 1253 3394 1513 3394 
Q 1903 3394 2198 3281 
Q 2494 3169 2634 2976 
Q 2775 2784 2828 2463 
L 2278 2388 
Q 2241 2644 2061 2787 
Q 1881 2931 1553 2931 
Q 1166 2931 1000 2803 
Q 834 2675 834 2503 
Q 834 2394 903 2306 
Q 972 2216 1119 2156 
Q 1203 2125 1616 2013 
Q 2213 1853 2448 1751 
Q 2684 1650 2818 1456 
Q 2953 1263 2953 975 
Q 2953 694 2789 445 
Q 2625 197 2315 61 
Q 2006 -75 1616 -75 
Q 969 -75 630 194 
Q 291 463 197 991 
z
" transform="scale(0.015625)"/>
       </defs>
       <use xlink:href="#ArialMT-41"/>
       <use xlink:href="#ArialMT-67" x="66.699219"/>
       <use xlink:href="#ArialMT-65" x="122.314453"/>
       <use xlink:href="#ArialMT-6e" x="177.929688"/>
       <use xlink:href="#ArialMT-74" x="233.544922"/>
       <use xlink:href="#ArialMT-73" x="261.328125"/>
       <use xlink:href="#ArialMT-20" x="311.328125"/>
       <use xlink:href="#ArialMT-74" x="339.111328"/>
       <use xlink:href="#ArialMT-72" x="366.894531"/>
       <use xlink:href="#ArialMT-61" x="400.195312"/>
       <use xlink:href="#ArialMT-69" x="455.810547"/>
       <use xlink:href="#ArialMT-6e" x="478.027344"/>
       <use xlink:href="#ArialMT-65" x="533.642578"/>
       <use xlink:href="#ArialMT-64" x="589.257812"/>
      </g>
      <!-- on source -->
      <g style="fill: #262626" transform="translate(85.712188 97.210813) scale(0.06 -0.06)">
       <defs>
        <path id="ArialMT-63" d="M 2588 1216 
L 3141 1144 
Q 3050 572 2676 248 
Q 2303 -75 1759 -75 
Q 1078 -75 664 370 
Q 250 816 250 1647 
Q 250 2184 428 2587 
Q 606 2991 970 3192 
Q 1334 3394 1763 3394 
Q 2303 3394 2647 3120 
Q 2991 2847 3088 2344 
L 2541 2259 
Q 2463 2594 2264 2762 
Q 2066 2931 1784 2931 
Q 1359 2931 1093 2626 
Q 828 2322 828 1663 
Q 828 994 1084 691 
Q 1341 388 1753 388 
Q 2084 388 2306 591 
Q 2528 794 2588 1216 
z
" transform="scale(0.015625)"/>
       </defs>
       <use xlink:href="#ArialMT-6f"/>
       <use xlink:href="#ArialMT-6e" x="55.615234"/>
       <use xlink:href="#ArialMT-20" x="111.230469"/>
       <use xlink:href="#ArialMT-73" x="139.013672"/>
       <use xlink:href="#ArialMT-6f" x="189.013672"/>
       <use xlink:href="#ArialMT-75" x="244.628906"/>
       <use xlink:href="#ArialMT-72" x="300.244141"/>
       <use xlink:href="#ArialMT-63" x="333.544922"/>
       <use xlink:href="#ArialMT-65" x="383.544922"/>
      </g>
     </g>
    </g>
    <g id="xtick_3">
     <g id="text_3">
      <!-- Anchor-tuned -->
      <g style="fill: #262626" transform="translate(123.115625 90.794375) scale(0.06 -0.06)">
       <defs>
        <path id="ArialMT-68" d="M 422 0 
L 422 4581 
L 984 4581 
L 984 2938 
Q 1378 3394 1978 3394 
Q 2347 3394 2619 3248 
Q 2891 3103 3008 2847 
Q 3125 2591 3125 2103 
L 3125 0 
L 2563 0 
L 2563 2103 
Q 2563 2525 2380 2717 
Q 2197 2909 1863 2909 
Q 1613 2909 1392 2779 
Q 1172 2650 1078 2428 
Q 984 2206 984 1816 
L 984 0 
L 422 0 
z
" transform="scale(0.015625)"/>
       </defs>
       <use xlink:href="#ArialMT-41"/>
       <use xlink:href="#ArialMT-6e" x="66.699219"/>
       <use xlink:href="#ArialMT-63" x="122.314453"/>
       <use xlink:href="#ArialMT-68" x="172.314453"/>
       <use xlink:href="#ArialMT-6f" x="227.929688"/>
       <use xlink:href="#ArialMT-72" x="283.544922"/>
       <use xlink:href="#ArialMT-2d" x="316.845703"/>
       <use xlink:href="#ArialMT-74" x="350.146484"/>
       <use xlink:href="#ArialMT-75" x="377.929688"/>
       <use xlink:href="#ArialMT-6e" x="433.544922"/>
       <use xlink:href="#ArialMT-65" x="489.160156"/>
       <use xlink:href="#ArialMT-64" x="544.775391"/>
      </g>
      <!-- on target -->
      <g style="fill: #262626" transform="translate(129.285313 97.1405) scale(0.06 -0.06)">
       <use xlink:href="#ArialMT-6f"/>
       <use xlink:href="#ArialMT-6e" x="55.615234"/>
       <use xlink:href="#ArialMT-20" x="111.230469"/>
       <use xlink:href="#ArialMT-74" x="139.013672"/>
       <use xlink:href="#ArialMT-61" x="166.796875"/>
       <use xlink:href="#ArialMT-72" x="222.412109"/>
       <use xlink:href="#ArialMT-67" x="255.712891"/>
       <use xlink:href="#ArialMT-65" x="311.328125"/>
       <use xlink:href="#ArialMT-74" x="366.943359"/>
      </g>
     </g>
    </g>
   </g>
   <g id="matplotlib.axis_2">
    <g id="ytick_1">
     <g id="line2d_1">
      <path d="M 35.525937 80.054403 
L 162.245938 80.054403 
" clip-path="url(#p51e33daa77)" style="fill: none; stroke-dasharray: 2.96,1.28; stroke-dashoffset: 0; stroke: #cccccc; stroke-opacity: 0.3; stroke-width: 0.8"/>
     </g>
     <g id="text_4">
      <!-- 0 -->
      <g style="fill: #262626" transform="translate(25.189375 82.201747) scale(0.06 -0.06)">
       <defs>
        <path id="ArialMT-30" d="M 266 2259 
Q 266 3072 433 3567 
Q 600 4063 929 4331 
Q 1259 4600 1759 4600 
Q 2128 4600 2406 4451 
Q 2684 4303 2865 4023 
Q 3047 3744 3150 3342 
Q 3253 2941 3253 2259 
Q 3253 1453 3087 958 
Q 2922 463 2592 192 
Q 2263 -78 1759 -78 
Q 1097 -78 719 397 
Q 266 969 266 2259 
z
M 844 2259 
Q 844 1131 1108 757 
Q 1372 384 1759 384 
Q 2147 384 2411 759 
Q 2675 1134 2675 2259 
Q 2675 3391 2411 3762 
Q 2147 4134 1753 4134 
Q 1366 4134 1134 3806 
Q 844 3388 844 2259 
z
" transform="scale(0.015625)"/>
       </defs>
       <use xlink:href="#ArialMT-30"/>
      </g>
     </g>
    </g>
    <g id="ytick_2">
     <g id="line2d_2">
      <path d="M 35.525937 55.913311 
L 162.245938 55.913311 
" clip-path="url(#p51e33daa77)" style="fill: none; stroke-dasharray: 2.96,1.28; stroke-dashoffset: 0; stroke: #cccccc; stroke-opacity: 0.3; stroke-width: 0.8"/>
     </g>
     <g id="text_5">
      <!-- 100 -->
      <g style="fill: #262626" transform="translate(18.51625 58.060654) scale(0.06 -0.06)">
       <defs>
        <path id="ArialMT-31" d="M 2384 0 
L 1822 0 
L 1822 3584 
Q 1619 3391 1289 3197 
Q 959 3003 697 2906 
L 697 3450 
Q 1169 3672 1522 3987 
Q 1875 4303 2022 4600 
L 2384 4600 
L 2384 0 
z
" transform="scale(0.015625)"/>
       </defs>
       <use xlink:href="#ArialMT-31"/>
       <use xlink:href="#ArialMT-30" x="55.615234"/>
       <use xlink:href="#ArialMT-30" x="111.230469"/>
      </g>
     </g>
    </g>
    <g id="ytick_3">
     <g id="line2d_3">
      <path d="M 35.525937 31.772218 
L 162.245938 31.772218 
" clip-path="url(#p51e33daa77)" style="fill: none; stroke-dasharray: 2.96,1.28; stroke-dashoffset: 0; stroke: #cccccc; stroke-opacity: 0.3; stroke-width: 0.8"/>
     </g>
     <g id="text_6">
      <!-- 200 -->
      <g style="fill: #262626" transform="translate(18.51625 33.919562) scale(0.06 -0.06)">
       <defs>
        <path id="ArialMT-32" d="M 3222 541 
L 3222 0 
L 194 0 
Q 188 203 259 391 
Q 375 700 629 1000 
Q 884 1300 1366 1694 
Q 2113 2306 2375 2664 
Q 2638 3022 2638 3341 
Q 2638 3675 2398 3904 
Q 2159 4134 1775 4134 
Q 1369 4134 1125 3890 
Q 881 3647 878 3216 
L 300 3275 
Q 359 3922 746 4261 
Q 1134 4600 1788 4600 
Q 2447 4600 2831 4234 
Q 3216 3869 3216 3328 
Q 3216 3053 3103 2787 
Q 2991 2522 2730 2228 
Q 2469 1934 1863 1422 
Q 1356 997 1212 845 
Q 1069 694 975 541 
L 3222 541 
z
" transform="scale(0.015625)"/>
       </defs>
       <use xlink:href="#ArialMT-32"/>
       <use xlink:href="#ArialMT-30" x="55.615234"/>
       <use xlink:href="#ArialMT-30" x="111.230469"/>
      </g>
     </g>
    </g>
    <g id="text_7">
     <!-- Rewards -->
     <g style="fill: #262626" transform="translate(12.92625 66.022188) rotate(-90) scale(0.08 -0.08)">
      <defs>
       <path id="ArialMT-52" d="M 503 0 
L 503 4581 
L 2534 4581 
Q 3147 4581 3465 4457 
Q 3784 4334 3975 4021 
Q 4166 3709 4166 3331 
Q 4166 2844 3850 2509 
Q 3534 2175 2875 2084 
Q 3116 1969 3241 1856 
Q 3506 1613 3744 1247 
L 4541 0 
L 3778 0 
L 3172 953 
Q 2906 1366 2734 1584 
Q 2563 1803 2427 1890 
Q 2291 1978 2150 2013 
Q 2047 2034 1813 2034 
L 1109 2034 
L 1109 0 
L 503 0 
z
M 1109 2559 
L 2413 2559 
Q 2828 2559 3062 2645 
Q 3297 2731 3419 2920 
Q 3541 3109 3541 3331 
Q 3541 3656 3305 3865 
Q 3069 4075 2559 4075 
L 1109 4075 
L 1109 2559 
z
" transform="scale(0.015625)"/>
       <path id="ArialMT-77" d="M 1034 0 
L 19 3319 
L 600 3319 
L 1128 1403 
L 1325 691 
Q 1338 744 1497 1375 
L 2025 3319 
L 2603 3319 
L 3100 1394 
L 3266 759 
L 3456 1400 
L 4025 3319 
L 4572 3319 
L 3534 0 
L 2950 0 
L 2422 1988 
L 2294 2553 
L 1622 0 
L 1034 0 
z
" transform="scale(0.015625)"/>
      </defs>
      <use xlink:href="#ArialMT-52"/>
      <use xlink:href="#ArialMT-65" x="72.216797"/>
      <use xlink:href="#ArialMT-77" x="127.832031"/>
      <use xlink:href="#ArialMT-61" x="200.048828"/>
      <use xlink:href="#ArialMT-72" x="255.664062"/>
      <use xlink:href="#ArialMT-64" x="288.964844"/>
      <use xlink:href="#ArialMT-73" x="344.580078"/>
     </g>
    </g>
   </g>
   <g id="PolyCollection_1">
    <defs>
     <path id="md84a3f1fdf" d="M 73.446567 -25.904182 
L 39.845308 -25.904182 
L 39.79159 -26.204812 
L 39.759763 -26.505443 
L 39.749938 -26.806074 
L 39.762138 -27.106705 
L 39.796299 -27.407336 
L 39.852269 -27.707966 
L 39.929808 -28.008597 
L 40.028592 -28.309228 
L 40.148211 -28.609859 
L 40.288177 -28.910489 
L 40.447921 -29.21112 
L 40.6268 -29.511751 
L 40.824102 -29.812382 
L 41.039046 -30.113013 
L 41.270791 -30.413643 
L 41.518436 -30.714274 
L 41.781033 -31.014905 
L 42.057585 -31.315536 
L 42.347055 -31.616166 
L 42.648371 -31.916797 
L 42.960435 -32.217428 
L 43.282124 -32.518059 
L 43.612301 -32.818689 
L 43.949816 -33.11932 
L 44.293518 -33.419951 
L 44.642254 -33.720582 
L 44.994881 -34.021213 
L 45.350268 -34.321843 
L 45.707301 -34.622474 
L 46.064888 -34.923105 
L 46.421968 -35.223736 
L 46.777508 -35.524366 
L 47.130513 -35.824997 
L 47.480028 -36.125628 
L 47.825139 -36.426259 
L 48.16498 -36.72689 
L 48.498732 -37.02752 
L 48.825627 -37.328151 
L 49.14495 -37.628782 
L 49.456039 -37.929413 
L 49.758288 -38.230043 
L 50.051147 -38.530674 
L 50.33412 -38.831305 
L 50.60677 -39.131936 
L 50.868716 -39.432566 
L 51.119629 -39.733197 
L 51.35924 -40.033828 
L 51.58733 -40.334459 
L 51.803734 -40.63509 
L 52.008338 -40.93572 
L 52.201078 -41.236351 
L 52.381938 -41.536982 
L 52.550946 -41.837613 
L 52.708177 -42.138243 
L 52.853746 -42.438874 
L 52.987807 -42.739505 
L 53.110554 -43.040136 
L 53.222213 -43.340767 
L 53.323046 -43.641397 
L 53.413343 -43.942028 
L 53.493423 -44.242659 
L 53.563633 -44.54329 
L 53.624339 -44.84392 
L 53.675934 -45.144551 
L 53.718825 -45.445182 
L 53.75344 -45.745813 
L 53.780218 -46.046443 
L 53.799615 -46.347074 
L 53.812093 -46.647705 
L 53.818126 -46.948336 
L 53.818192 -47.248967 
L 53.812776 -47.549597 
L 53.802364 -47.850228 
L 53.787445 -48.150859 
L 53.768504 -48.45149 
L 53.746027 -48.75212 
L 53.720493 -49.052751 
L 53.692377 -49.353382 
L 53.662146 -49.654013 
L 53.630259 -49.954644 
L 53.597162 -50.255274 
L 53.563293 -50.555905 
L 53.529075 -50.856536 
L 53.494916 -51.157167 
L 53.46121 -51.457797 
L 53.428334 -51.758428 
L 53.396647 -52.059059 
L 53.36649 -52.35969 
L 53.338182 -52.66032 
L 53.312026 -52.960951 
L 53.288299 -53.261582 
L 53.267259 -53.562213 
L 53.249142 -53.862844 
L 53.234159 -54.163474 
L 53.222499 -54.464105 
L 53.214328 -54.764736 
L 53.209787 -55.065367 
L 53.208996 -55.365997 
L 53.212048 -55.666628 
L 60.079827 -55.666628 
L 60.079827 -55.666628 
L 60.082879 -55.365997 
L 60.082088 -55.065367 
L 60.077547 -54.764736 
L 60.069376 -54.464105 
L 60.057716 -54.163474 
L 60.042733 -53.862844 
L 60.024616 -53.562213 
L 60.003576 -53.261582 
L 59.979849 -52.960951 
L 59.953693 -52.66032 
L 59.925385 -52.35969 
L 59.895228 -52.059059 
L 59.863541 -51.758428 
L 59.830665 -51.457797 
L 59.796959 -51.157167 
L 59.7628 -50.856536 
L 59.728582 -50.555905 
L 59.694713 -50.255274 
L 59.661616 -49.954644 
L 59.629729 -49.654013 
L 59.599498 -49.353382 
L 59.571382 -49.052751 
L 59.545848 -48.75212 
L 59.523371 -48.45149 
L 59.50443 -48.150859 
L 59.489511 -47.850228 
L 59.479099 -47.549597 
L 59.473683 -47.248967 
L 59.473749 -46.948336 
L 59.479782 -46.647705 
L 59.49226 -46.347074 
L 59.511657 -46.046443 
L 59.538435 -45.745813 
L 59.57305 -45.445182 
L 59.615941 -45.144551 
L 59.667536 -44.84392 
L 59.728242 -44.54329 
L 59.798452 -44.242659 
L 59.878532 -43.942028 
L 59.968829 -43.641397 
L 60.069662 -43.340767 
L 60.181321 -43.040136 
L 60.304068 -42.739505 
L 60.438129 -42.438874 
L 60.583698 -42.138243 
L 60.740929 -41.837613 
L 60.909937 -41.536982 
L 61.090797 -41.236351 
L 61.283537 -40.93572 
L 61.488141 -40.63509 
L 61.704545 -40.334459 
L 61.932635 -40.033828 
L 62.172246 -39.733197 
L 62.423159 -39.432566 
L 62.685105 -39.131936 
L 62.957755 -38.831305 
L 63.240728 -38.530674 
L 63.533587 -38.230043 
L 63.835836 -37.929413 
L 64.146925 -37.628782 
L 64.466248 -37.328151 
L 64.793143 -37.02752 
L 65.126895 -36.72689 
L 65.466736 -36.426259 
L 65.811847 -36.125628 
L 66.161362 -35.824997 
L 66.514367 -35.524366 
L 66.869907 -35.223736 
L 67.226987 -34.923105 
L 67.584574 -34.622474 
L 67.941607 -34.321843 
L 68.296994 -34.021213 
L 68.649621 -33.720582 
L 68.998357 -33.419951 
L 69.342059 -33.11932 
L 69.679574 -32.818689 
L 70.009751 -32.518059 
L 70.33144 -32.217428 
L 70.643504 -31.916797 
L 70.94482 -31.616166 
L 71.23429 -31.315536 
L 71.510842 -31.014905 
L 71.773439 -30.714274 
L 72.021084 -30.413643 
L 72.252829 -30.113013 
L 72.467773 -29.812382 
L 72.665075 -29.511751 
L 72.843954 -29.21112 
L 73.003698 -28.910489 
L 73.143664 -28.609859 
L 73.263283 -28.309228 
L 73.362067 -28.008597 
L 73.439606 -27.707966 
L 73.495576 -27.407336 
L 73.529737 -27.106705 
L 73.541938 -26.806074 
L 73.532112 -26.505443 
L 73.500285 -26.204812 
L 73.446567 -25.904182 
z
" style="stroke: #000000; stroke-opacity: 0.7"/>
    </defs>
    <g clip-path="url(#p51e33daa77)">
     <use xlink:href="#md84a3f1fdf" x="0" y="105.673625" style="fill: #ffffff; fill-opacity: 0.7; stroke: #000000; stroke-opacity: 0.7"/>
    </g>
   </g>
   <g id="PolyCollection_2">
    <defs>
     <path id="m79d1408a0e" d="M 110.638615 -29.482148 
L 87.13326 -29.482148 
L 86.860693 -29.94172 
L 86.592226 -30.401292 
L 86.328318 -30.860863 
L 86.06942 -31.320435 
L 85.815971 -31.780007 
L 85.568397 -32.239579 
L 85.327109 -32.69915 
L 85.0925 -33.158722 
L 84.864945 -33.618294 
L 84.644798 -34.077866 
L 84.432389 -34.537437 
L 84.228025 -34.997009 
L 84.031985 -35.456581 
L 83.844522 -35.916153 
L 83.665859 -36.375724 
L 83.496188 -36.835296 
L 83.335669 -37.294868 
L 83.184431 -37.75444 
L 83.042566 -38.214011 
L 82.910134 -38.673583 
L 82.787161 -39.133155 
L 82.673635 -39.592727 
L 82.56951 -40.052298 
L 82.474706 -40.51187 
L 82.389105 -40.971442 
L 82.312559 -41.431014 
L 82.244884 -41.890585 
L 82.185863 -42.350157 
L 82.135251 -42.809729 
L 82.09277 -43.269301 
L 82.058116 -43.728872 
L 82.03096 -44.188444 
L 82.010948 -44.648016 
L 81.997706 -45.107588 
L 81.990839 -45.567159 
L 81.989938 -46.026731 
L 81.99458 -46.486303 
L 82.004333 -46.945875 
L 82.018756 -47.405446 
L 82.037405 -47.865018 
L 82.059835 -48.32459 
L 82.085605 -48.784162 
L 82.114277 -49.243733 
L 82.145424 -49.703305 
L 82.178631 -50.162877 
L 82.213496 -50.622449 
L 82.249639 -51.08202 
L 82.286699 -51.541592 
L 82.324339 -52.001164 
L 82.362248 -52.460736 
L 82.400145 -52.920307 
L 82.437781 -53.379879 
L 82.474938 -53.839451 
L 82.511433 -54.299023 
L 82.547121 -54.758594 
L 82.581892 -55.218166 
L 82.615674 -55.677738 
L 82.648437 -56.13731 
L 82.680187 -56.596881 
L 82.710969 -57.056453 
L 82.740868 -57.516025 
L 82.770005 -57.975597 
L 82.79854 -58.435168 
L 82.826667 -58.89474 
L 82.854616 -59.354312 
L 82.882646 -59.813884 
L 82.91105 -60.273455 
L 82.940146 -60.733027 
L 82.970279 -61.192599 
L 83.001816 -61.652171 
L 83.035142 -62.111742 
L 83.070662 -62.571314 
L 83.10879 -63.030886 
L 83.149953 -63.490458 
L 83.194583 -63.950029 
L 83.243116 -64.409601 
L 83.295984 -64.869173 
L 83.353619 -65.328745 
L 83.416443 -65.788316 
L 83.484866 -66.247888 
L 83.559284 -66.70746 
L 83.640075 -67.167032 
L 83.727597 -67.626603 
L 83.822181 -68.086175 
L 83.924133 -68.545747 
L 84.033728 -69.005319 
L 84.151211 -69.46489 
L 84.276789 -69.924462 
L 84.410635 -70.384034 
L 84.552885 -70.843606 
L 84.703634 -71.303177 
L 84.862936 -71.762749 
L 85.030805 -72.222321 
L 85.207213 -72.681893 
L 85.392091 -73.141464 
L 85.585326 -73.601036 
L 85.786765 -74.060608 
L 85.996215 -74.52018 
L 86.213442 -74.979751 
L 111.558433 -74.979751 
L 111.558433 -74.979751 
L 111.77566 -74.52018 
L 111.98511 -74.060608 
L 112.186549 -73.601036 
L 112.379784 -73.141464 
L 112.564662 -72.681893 
L 112.74107 -72.222321 
L 112.908939 -71.762749 
L 113.068241 -71.303177 
L 113.21899 -70.843606 
L 113.36124 -70.384034 
L 113.495086 -69.924462 
L 113.620664 -69.46489 
L 113.738147 -69.005319 
L 113.847742 -68.545747 
L 113.949694 -68.086175 
L 114.044278 -67.626603 
L 114.1318 -67.167032 
L 114.212591 -66.70746 
L 114.287009 -66.247888 
L 114.355432 -65.788316 
L 114.418256 -65.328745 
L 114.475891 -64.869173 
L 114.528759 -64.409601 
L 114.577292 -63.950029 
L 114.621922 -63.490458 
L 114.663085 -63.030886 
L 114.701213 -62.571314 
L 114.736733 -62.111742 
L 114.770059 -61.652171 
L 114.801596 -61.192599 
L 114.831729 -60.733027 
L 114.860825 -60.273455 
L 114.889229 -59.813884 
L 114.917259 -59.354312 
L 114.945208 -58.89474 
L 114.973335 -58.435168 
L 115.00187 -57.975597 
L 115.031007 -57.516025 
L 115.060906 -57.056453 
L 115.091688 -56.596881 
L 115.123438 -56.13731 
L 115.156201 -55.677738 
L 115.189983 -55.218166 
L 115.224754 -54.758594 
L 115.260442 -54.299023 
L 115.296937 -53.839451 
L 115.334094 -53.379879 
L 115.37173 -52.920307 
L 115.409627 -52.460736 
L 115.447536 -52.001164 
L 115.485176 -51.541592 
L 115.522236 -51.08202 
L 115.558379 -50.622449 
L 115.593244 -50.162877 
L 115.626451 -49.703305 
L 115.657598 -49.243733 
L 115.68627 -48.784162 
L 115.71204 -48.32459 
L 115.73447 -47.865018 
L 115.753119 -47.405446 
L 115.767542 -46.945875 
L 115.777295 -46.486303 
L 115.781938 -46.026731 
L 115.781036 -45.567159 
L 115.774169 -45.107588 
L 115.760927 -44.648016 
L 115.740915 -44.188444 
L 115.713759 -43.728872 
L 115.679105 -43.269301 
L 115.636624 -42.809729 
L 115.586012 -42.350157 
L 115.526991 -41.890585 
L 115.459316 -41.431014 
L 115.38277 -40.971442 
L 115.297169 -40.51187 
L 115.202365 -40.052298 
L 115.09824 -39.592727 
L 114.984714 -39.133155 
L 114.861741 -38.673583 
L 114.729309 -38.214011 
L 114.587444 -37.75444 
L 114.436206 -37.294868 
L 114.275687 -36.835296 
L 114.106016 -36.375724 
L 113.927353 -35.916153 
L 113.73989 -35.456581 
L 113.54385 -34.997009 
L 113.339486 -34.537437 
L 113.127077 -34.077866 
L 112.90693 -33.618294 
L 112.679375 -33.158722 
L 112.444766 -32.69915 
L 112.203478 -32.239579 
L 111.955904 -31.780007 
L 111.702455 -31.320435 
L 111.443557 -30.860863 
L 111.179649 -30.401292 
L 110.911182 -29.94172 
L 110.638615 -29.482148 
z
" style="stroke: #000000; stroke-opacity: 0.7"/>
    </defs>
    <g clip-path="url(#p51e33daa77)">
     <use xlink:href="#m79d1408a0e" x="0" y="105.673625" style="fill: #ffffff; fill-opacity: 0.7; stroke: #000000; stroke-opacity: 0.7"/>
    </g>
   </g>
   <g id="PolyCollection_3">
    <defs>
     <path id="mbc1266e218" d="M 156.177236 -30.886692 
L 126.074639 -30.886692 
L 125.862102 -31.435471 
L 125.661823 -31.984249 
L 125.474137 -32.533028 
L 125.299328 -33.081806 
L 125.137624 -33.630584 
L 124.989204 -34.179363 
L 124.85419 -34.728141 
L 124.732648 -35.27692 
L 124.624593 -35.825698 
L 124.529982 -36.374477 
L 124.448723 -36.923255 
L 124.380668 -37.472033 
L 124.325621 -38.020812 
L 124.283338 -38.56959 
L 124.253526 -39.118369 
L 124.235851 -39.667147 
L 124.229938 -40.215925 
L 124.235371 -40.764704 
L 124.251703 -41.313482 
L 124.278454 -41.862261 
L 124.315117 -42.411039 
L 124.361161 -42.959818 
L 124.416034 -43.508596 
L 124.479169 -44.057374 
L 124.549986 -44.606153 
L 124.627898 -45.154931 
L 124.71231 -45.70371 
L 124.802629 -46.252488 
L 124.898264 -46.801266 
L 124.998631 -47.350045 
L 125.103154 -47.898823 
L 125.211271 -48.447602 
L 125.322435 -48.99638 
L 125.436121 -49.545159 
L 125.55182 -50.093937 
L 125.66905 -50.642715 
L 125.787355 -51.191494 
L 125.906304 -51.740272 
L 126.025497 -52.289051 
L 126.144564 -52.837829 
L 126.263165 -53.386607 
L 126.380994 -53.935386 
L 126.497777 -54.484164 
L 126.613271 -55.032943 
L 126.727267 -55.581721 
L 126.839591 -56.1305 
L 126.950096 -56.679278 
L 127.058672 -57.228056 
L 127.165235 -57.776835 
L 127.269735 -58.325613 
L 127.372147 -58.874392 
L 127.472475 -59.42317 
L 127.570749 -59.971948 
L 127.667024 -60.520727 
L 127.761377 -61.069505 
L 127.853906 -61.618284 
L 127.944729 -62.167062 
L 128.033983 -62.715841 
L 128.12182 -63.264619 
L 128.208406 -63.813397 
L 128.293921 -64.362176 
L 128.378555 -64.910954 
L 128.462509 -65.459733 
L 128.545988 -66.008511 
L 128.629207 -66.557289 
L 128.712383 -67.106068 
L 128.795736 -67.654846 
L 128.879489 -68.203625 
L 128.963863 -68.752403 
L 129.04908 -69.301182 
L 129.135357 -69.84996 
L 129.222908 -70.398738 
L 129.311943 -70.947517 
L 129.402665 -71.496295 
L 129.49527 -72.045074 
L 129.589946 -72.593852 
L 129.686872 -73.142631 
L 129.786217 -73.691409 
L 129.888141 -74.240187 
L 129.99279 -74.788966 
L 130.1003 -75.337744 
L 130.210794 -75.886523 
L 130.324382 -76.435301 
L 130.44116 -76.984079 
L 130.561209 -77.532858 
L 130.684599 -78.081636 
L 130.811381 -78.630415 
L 130.941593 -79.179193 
L 131.075259 -79.727972 
L 131.212384 -80.27675 
L 131.35296 -80.825528 
L 131.496964 -81.374307 
L 131.644356 -81.923085 
L 131.795081 -82.471864 
L 131.949067 -83.020642 
L 132.10623 -83.56942 
L 132.266469 -84.118199 
L 132.429669 -84.666977 
L 132.595701 -85.215756 
L 149.656174 -85.215756 
L 149.656174 -85.215756 
L 149.822206 -84.666977 
L 149.985406 -84.118199 
L 150.145645 -83.56942 
L 150.302808 -83.020642 
L 150.456794 -82.471864 
L 150.607519 -81.923085 
L 150.754911 -81.374307 
L 150.898915 -80.825528 
L 151.039491 -80.27675 
L 151.176616 -79.727972 
L 151.310282 -79.179193 
L 151.440494 -78.630415 
L 151.567276 -78.081636 
L 151.690666 -77.532858 
L 151.810715 -76.984079 
L 151.927493 -76.435301 
L 152.041081 -75.886523 
L 152.151575 -75.337744 
L 152.259085 -74.788966 
L 152.363734 -74.240187 
L 152.465658 -73.691409 
L 152.565003 -73.142631 
L 152.661929 -72.593852 
L 152.756605 -72.045074 
L 152.84921 -71.496295 
L 152.939932 -70.947517 
L 153.028967 -70.398738 
L 153.116518 -69.84996 
L 153.202795 -69.301182 
L 153.288012 -68.752403 
L 153.372386 -68.203625 
L 153.456139 -67.654846 
L 153.539492 -67.106068 
L 153.622668 -66.557289 
L 153.705887 -66.008511 
L 153.789366 -65.459733 
L 153.87332 -64.910954 
L 153.957954 -64.362176 
L 154.043469 -63.813397 
L 154.130055 -63.264619 
L 154.217892 -62.715841 
L 154.307146 -62.167062 
L 154.397969 -61.618284 
L 154.490498 -61.069505 
L 154.584851 -60.520727 
L 154.681126 -59.971948 
L 154.7794 -59.42317 
L 154.879728 -58.874392 
L 154.98214 -58.325613 
L 155.08664 -57.776835 
L 155.193203 -57.228056 
L 155.301779 -56.679278 
L 155.412284 -56.1305 
L 155.524608 -55.581721 
L 155.638604 -55.032943 
L 155.754098 -54.484164 
L 155.870881 -53.935386 
L 155.98871 -53.386607 
L 156.107311 -52.837829 
L 156.226378 -52.289051 
L 156.345571 -51.740272 
L 156.46452 -51.191494 
L 156.582825 -50.642715 
L 156.700055 -50.093937 
L 156.815754 -49.545159 
L 156.92944 -48.99638 
L 157.040604 -48.447602 
L 157.148721 -47.898823 
L 157.253244 -47.350045 
L 157.353611 -46.801266 
L 157.449246 -46.252488 
L 157.539565 -45.70371 
L 157.623977 -45.154931 
L 157.701889 -44.606153 
L 157.772706 -44.057374 
L 157.835841 -43.508596 
L 157.890714 -42.959818 
L 157.936758 -42.411039 
L 157.973421 -41.862261 
L 158.000172 -41.313482 
L 158.016504 -40.764704 
L 158.021938 -40.215925 
L 158.016024 -39.667147 
L 157.998349 -39.118369 
L 157.968537 -38.56959 
L 157.926254 -38.020812 
L 157.871207 -37.472033 
L 157.803152 -36.923255 
L 157.721893 -36.374477 
L 157.627282 -35.825698 
L 157.519227 -35.27692 
L 157.397685 -34.728141 
L 157.262671 -34.179363 
L 157.114251 -33.630584 
L 156.952547 -33.081806 
L 156.777738 -32.533028 
L 156.590052 -31.984249 
L 156.389773 -31.435471 
L 156.177236 -30.886692 
z
" style="stroke: #000000; stroke-opacity: 0.7"/>
    </defs>
    <g clip-path="url(#p51e33daa77)">
     <use xlink:href="#mbc1266e218" x="0" y="105.673625" style="fill: #ffffff; fill-opacity: 0.7; stroke: #000000; stroke-opacity: 0.7"/>
    </g>
   </g>
   <g id="patch_3">
    <path d="M 95.573047 64.662974 
Q 76.818705 71.083857 59.439449 77.033955 
" style="fill: none; opacity: 0.4; stroke: #faa15b; stroke-width: 1.3; stroke-linecap: round"/>
    <path d="M 63.871621 77.63049 
L 59.439449 77.033955 
L 62.57598 73.846139 
" style="fill: none; opacity: 0.4; stroke: #faa15b; stroke-width: 1.3; stroke-linecap: round"/>
   </g>
   <g id="patch_4">
    <path d="M 101.812109 61.608253 
Q 120.841547 49.118929 138.655873 37.427102 
" style="fill: none; opacity: 0.4; stroke: #5eb755; stroke-width: 1.3; stroke-linecap: round"/>
    <path d="M 134.214393 37.949837 
L 138.655873 37.427102 
L 136.409173 41.293928 
" style="fill: none; opacity: 0.4; stroke: #5eb755; stroke-width: 1.3; stroke-linecap: round"/>
   </g>
   <g id="patch_5">
    <path d="M 96.593984 33.339669 
Q 77.111265 55.830224 58.580198 77.222206 
" style="fill: none; opacity: 0.4; stroke: #d7191c; stroke-width: 1.3; stroke-linecap: round"/>
    <path d="M 62.710902 75.508357 
L 58.580198 77.222206 
L 59.687541 72.889333 
" style="fill: none; opacity: 0.4; stroke: #d7191c; stroke-width: 1.3; stroke-linecap: round"/>
   </g>
   <g id="patch_6">
    <path d="M 101.451172 33.069956 
Q 120.737651 50.934314 138.957829 67.810996 
" style="fill: none; opacity: 0.4; stroke: #df372a; stroke-width: 1.3; stroke-linecap: round"/>
    <path d="M 137.382362 63.625556 
L 138.957829 67.810996 
L 134.664197 66.560105 
" style="fill: none; opacity: 0.4; stroke: #df372a; stroke-width: 1.3; stroke-linecap: round"/>
   </g>
   <g id="patch_7">
    <path d="M 95.593672 63.710005 
Q 76.824639 70.513065 59.422058 76.820839 
" style="fill: none; opacity: 0.4; stroke: #f89c59; stroke-width: 1.3; stroke-linecap: round"/>
    <path d="M 63.864183 77.338063 
L 59.422058 76.820839 
L 62.501112 73.577473 
" style="fill: none; opacity: 0.4; stroke: #f89c59; stroke-width: 1.3; stroke-linecap: round"/>
   </g>
   <g id="patch_8">
    <path d="M 102.245234 63.492522 
Q 120.96654 68.930852 138.292098 73.963734 
" style="fill: none; opacity: 0.4; stroke: #fdac60; stroke-width: 1.3; stroke-linecap: round"/>
    <path d="M 135.008799 70.927297 
L 138.292098 73.963734 
L 133.892969 74.768511 
" style="fill: none; opacity: 0.4; stroke: #fdac60; stroke-width: 1.3; stroke-linecap: round"/>
   </g>
   <g id="patch_9">
    <path d="M 95.397734 76.459335 
Q 76.771611 77.889629 59.594666 79.208641 
" style="fill: none; opacity: 0.4; stroke: #fed48e; stroke-width: 1.3; stroke-linecap: round"/>
    <path d="M 63.736053 80.896514 
L 59.594666 79.208641 
L 63.429796 76.908255 
" style="fill: none; opacity: 0.4; stroke: #fed48e; stroke-width: 1.3; stroke-linecap: round"/>
   </g>
   <g id="patch_10">
    <path d="M 102.317422 75.489797 
Q 120.985019 71.672594 138.228638 68.146569 
" style="fill: none; opacity: 0.4; stroke: #b4df78; stroke-width: 1.3; stroke-linecap: round"/>
    <path d="M 133.909055 66.988465 
L 138.228638 68.146569 
L 134.710405 70.907373 
" style="fill: none; opacity: 0.4; stroke: #b4df78; stroke-width: 1.3; stroke-linecap: round"/>
   </g>
   <g id="patch_11">
    <path d="M 96.109297 49.527986 
Q 76.973759 64.191881 58.991877 77.971709 
" style="fill: none; opacity: 0.4; stroke: #e54f35; stroke-width: 1.3; stroke-linecap: round"/>
    <path d="M 63.383352 77.126162 
L 58.991877 77.971709 
L 60.950325 73.951201 
" style="fill: none; opacity: 0.4; stroke: #e54f35; stroke-width: 1.3; stroke-linecap: round"/>
   </g>
   <g id="patch_12">
    <path d="M 102.379297 47.570771 
Q 121.002942 48.480125 138.174872 49.318594 
" style="fill: none; opacity: 0.4; stroke: #fedd98; stroke-width: 1.3; stroke-linecap: round"/>
    <path d="M 134.277171 47.125895 
L 138.174872 49.318594 
L 134.082092 51.121135 
" style="fill: none; opacity: 0.4; stroke: #fedd98; stroke-width: 1.3; stroke-linecap: round"/>
   </g>
   <g id="patch_13">
    <path d="M 95.562734 37.165357 
Q 76.815736 43.351431 59.44898 49.082058 
" style="fill: none; opacity: 0.4; stroke: #faa35c; stroke-width: 1.3; stroke-linecap: round"/>
    <path d="M 63.874236 49.727898 
L 59.44898 49.082058 
L 62.620805 45.929357 
" style="fill: none; opacity: 0.4; stroke: #faa35c; stroke-width: 1.3; stroke-linecap: round"/>
   </g>
   <g id="patch_14">
    <path d="M 102.167891 34.855845 
Q 120.944271 27.916537 138.357334 21.48108 
" style="fill: none; opacity: 0.4; stroke: #93d064; stroke-width: 1.3; stroke-linecap: round"/>
    <path d="M 133.912051 20.991735 
L 138.357334 21.48108 
L 135.298688 24.7437 
" style="fill: none; opacity: 0.4; stroke: #93d064; stroke-width: 1.3; stroke-linecap: round"/>
   </g>
   <g id="PathCollection_1">
    <path d="M 56.645938 79.571502 
C 57.06526 79.571502 57.467465 79.404903 57.763971 79.108397 
C 58.060478 78.811891 58.227076 78.409686 58.227076 77.990363 
C 58.227076 77.57104 58.060478 77.168835 57.763971 76.872329 
C 57.467465 76.575823 57.06526 76.409225 56.645938 76.409225 
C 56.226615 76.409225 55.82441 76.575823 55.527904 76.872329 
C 55.231397 77.168835 55.064799 77.57104 55.064799 77.990363 
C 55.064799 78.409686 55.231397 78.811891 55.527904 79.108397 
C 55.82441 79.404903 56.226615 79.571502 56.645938 79.571502 
z
" clip-path="url(#p51e33daa77)" style="fill-opacity: 0.5"/>
   </g>
   <g id="PathCollection_2">
    <path d="M 98.885938 65.109885 
C 99.30526 65.109885 99.707465 64.943286 100.003971 64.64678 
C 100.300478 64.350274 100.467076 63.948069 100.467076 63.528746 
C 100.467076 63.109423 100.300478 62.707218 100.003971 62.410712 
C 99.707465 62.114206 99.30526 61.947608 98.885938 61.947608 
C 98.466615 61.947608 98.06441 62.114206 97.767904 62.410712 
C 97.471397 62.707218 97.304799 63.109423 97.304799 63.528746 
C 97.304799 63.948069 97.471397 64.350274 97.767904 64.64678 
C 98.06441 64.943286 98.466615 65.109885 98.885938 65.109885 
z
" clip-path="url(#p51e33daa77)" style="fill-opacity: 0.5"/>
   </g>
   <g id="PathCollection_3">
    <path d="M 141.125938 37.387099 
C 141.54526 37.387099 141.947465 37.2205 142.243971 36.923994 
C 142.540478 36.627488 142.707076 36.225283 142.707076 35.80596 
C 142.707076 35.386637 142.540478 34.984432 142.243971 34.687926 
C 141.947465 34.39142 141.54526 34.224821 141.125938 34.224821 
C 140.706615 34.224821 140.30441 34.39142 140.007904 34.687926 
C 139.711397 34.984432 139.544799 35.386637 139.544799 35.80596 
C 139.544799 36.225283 139.711397 36.627488 140.007904 36.923994 
C 140.30441 37.2205 140.706615 37.387099 141.125938 37.387099 
z
" clip-path="url(#p51e33daa77)" style="fill-opacity: 0.5"/>
   </g>
   <g id="PathCollection_4">
    <path d="M 56.645938 81.036225 
C 57.06526 81.036225 57.467465 80.869627 57.763971 80.57312 
C 58.060478 80.276614 58.227076 79.874409 58.227076 79.455086 
C 58.227076 79.035764 58.060478 78.633559 57.763971 78.337052 
C 57.467465 78.040546 57.06526 77.873948 56.645938 77.873948 
C 56.226615 77.873948 55.82441 78.040546 55.527904 78.337052 
C 55.231397 78.633559 55.064799 79.035764 55.064799 79.455086 
C 55.064799 79.874409 55.231397 80.276614 55.527904 80.57312 
C 55.82441 80.869627 56.226615 81.036225 56.645938 81.036225 
z
" clip-path="url(#p51e33daa77)" style="fill-opacity: 0.5"/>
   </g>
   <g id="PathCollection_5">
    <path d="M 98.885938 32.275013 
C 99.30526 32.275013 99.707465 32.108414 100.003971 31.811908 
C 100.300478 31.515402 100.467076 31.113197 100.467076 30.693874 
C 100.467076 30.274551 100.300478 29.872346 100.003971 29.57584 
C 99.707465 29.279334 99.30526 29.112735 98.885938 29.112735 
C 98.466615 29.112735 98.06441 29.279334 97.767904 29.57584 
C 97.471397 29.872346 97.304799 30.274551 97.304799 30.693874 
C 97.304799 31.113197 97.471397 31.515402 97.767904 31.811908 
C 98.06441 32.108414 98.466615 32.275013 98.885938 32.275013 
z
" clip-path="url(#p51e33daa77)" style="fill-opacity: 0.5"/>
   </g>
   <g id="PathCollection_6">
    <path d="M 141.125938 71.400374 
C 141.54526 71.400374 141.947465 71.233775 142.243971 70.937269 
C 142.540478 70.640763 142.707076 70.238558 142.707076 69.819235 
C 142.707076 69.399912 142.540478 68.997707 142.243971 68.701201 
C 141.947465 68.404695 141.54526 68.238096 141.125938 68.238096 
C 140.706615 68.238096 140.30441 68.404695 140.007904 68.701201 
C 139.711397 68.997707 139.544799 69.399912 139.544799 69.819235 
C 139.544799 70.238558 139.711397 70.640763 140.007904 70.937269 
C 140.30441 71.233775 140.706615 71.400374 141.125938 71.400374 
z
" clip-path="url(#p51e33daa77)" style="fill-opacity: 0.5"/>
   </g>
   <g id="PathCollection_7">
    <path d="M 56.645938 79.408216 
C 57.06526 79.408216 57.467465 79.241617 57.763971 78.945111 
C 58.060478 78.648605 58.227076 78.2464 58.227076 77.827077 
C 58.227076 77.407754 58.060478 77.005549 57.763971 76.709043 
C 57.467465 76.412537 57.06526 76.245938 56.645938 76.245938 
C 56.226615 76.245938 55.82441 76.412537 55.527904 76.709043 
C 55.231397 77.005549 55.064799 77.407754 55.064799 77.827077 
C 55.064799 78.2464 55.231397 78.648605 55.527904 78.945111 
C 55.82441 79.241617 56.226615 79.408216 56.645938 79.408216 
z
" clip-path="url(#p51e33daa77)" style="fill-opacity: 0.5"/>
   </g>
   <g id="PathCollection_8">
    <path d="M 98.885938 64.097822 
C 99.30526 64.097822 99.707465 63.931224 100.003971 63.634718 
C 100.300478 63.338211 100.467076 62.936006 100.467076 62.516684 
C 100.467076 62.097361 100.300478 61.695156 100.003971 61.39865 
C 99.707465 61.102143 99.30526 60.935545 98.885938 60.935545 
C 98.466615 60.935545 98.06441 61.102143 97.767904 61.39865 
C 97.471397 61.695156 97.304799 62.097361 97.304799 62.516684 
C 97.304799 62.936006 97.471397 63.338211 97.767904 63.634718 
C 98.06441 63.931224 98.466615 64.097822 98.885938 64.097822 
z
" clip-path="url(#p51e33daa77)" style="fill-opacity: 0.5"/>
   </g>
   <g id="PathCollection_9">
    <path d="M 141.125938 76.368071 
C 141.54526 76.368071 141.947465 76.201473 142.243971 75.904967 
C 142.540478 75.608461 142.707076 75.206256 142.707076 74.786933 
C 142.707076 74.36761 142.540478 73.965405 142.243971 73.668899 
C 141.947465 73.372393 141.54526 73.205794 141.125938 73.205794 
C 140.706615 73.205794 140.30441 73.372393 140.007904 73.668899 
C 139.711397 73.965405 139.544799 74.36761 139.544799 74.786933 
C 139.544799 75.206256 139.711397 75.608461 140.007904 75.904967 
C 140.30441 76.201473 140.706615 76.368071 141.125938 76.368071 
z
" clip-path="url(#p51e33daa77)" style="fill-opacity: 0.5"/>
   </g>
   <g id="PathCollection_10">
    <path d="M 56.645938 81.016212 
C 57.06526 81.016212 57.467465 80.849613 57.763971 80.553107 
C 58.060478 80.256601 58.227076 79.854396 58.227076 79.435073 
C 58.227076 79.01575 58.060478 78.613545 57.763971 78.317039 
C 57.467465 78.020533 57.06526 77.853935 56.645938 77.853935 
C 56.226615 77.853935 55.82441 78.020533 55.527904 78.317039 
C 55.231397 78.613545 55.064799 79.01575 55.064799 79.435073 
C 55.064799 79.854396 55.231397 80.256601 55.527904 80.553107 
C 55.82441 80.849613 56.226615 81.016212 56.645938 81.016212 
z
" clip-path="url(#p51e33daa77)" style="fill-opacity: 0.5"/>
   </g>
   <g id="PathCollection_11">
    <path d="M 98.885938 77.772616 
C 99.30526 77.772616 99.707465 77.606017 100.003971 77.309511 
C 100.300478 77.013005 100.467076 76.6108 100.467076 76.191477 
C 100.467076 75.772154 100.300478 75.369949 100.003971 75.073443 
C 99.707465 74.776937 99.30526 74.610338 98.885938 74.610338 
C 98.466615 74.610338 98.06441 74.776937 97.767904 75.073443 
C 97.471397 75.369949 97.304799 75.772154 97.304799 76.191477 
C 97.304799 76.6108 97.471397 77.013005 97.767904 77.309511 
C 98.06441 77.606017 98.466615 77.772616 98.885938 77.772616 
z
" clip-path="url(#p51e33daa77)" style="fill-opacity: 0.5"/>
   </g>
   <g id="PathCollection_12">
    <path d="M 141.125938 69.13526 
C 141.54526 69.13526 141.947465 68.968661 142.243971 68.672155 
C 142.540478 68.375649 142.707076 67.973444 142.707076 67.554121 
C 142.707076 67.134798 142.540478 66.732593 142.243971 66.436087 
C 141.947465 66.139581 141.54526 65.972982 141.125938 65.972982 
C 140.706615 65.972982 140.30441 66.139581 140.007904 66.436087 
C 139.711397 66.732593 139.544799 67.134798 139.544799 67.554121 
C 139.544799 67.973444 139.711397 68.375649 140.007904 68.672155 
C 140.30441 68.968661 140.706615 69.13526 141.125938 69.13526 
z
" clip-path="url(#p51e33daa77)" style="fill-opacity: 0.5"/>
   </g>
   <g id="PathCollection_13">
    <path d="M 56.645938 81.350582 
C 57.06526 81.350582 57.467465 81.183983 57.763971 80.887477 
C 58.060478 80.590971 58.227076 80.188766 58.227076 79.769443 
C 58.227076 79.35012 58.060478 78.947915 57.763971 78.651409 
C 57.467465 78.354903 57.06526 78.188304 56.645938 78.188304 
C 56.226615 78.188304 55.82441 78.354903 55.527904 78.651409 
C 55.231397 78.947915 55.064799 79.35012 55.064799 79.769443 
C 55.064799 80.188766 55.231397 80.590971 55.527904 80.887477 
C 55.82441 81.183983 56.226615 81.350582 56.645938 81.350582 
z
" clip-path="url(#p51e33daa77)" style="fill-opacity: 0.5"/>
   </g>
   <g id="PathCollection_14">
    <path d="M 98.885938 48.981337 
C 99.30526 48.981337 99.707465 48.814738 100.003971 48.518232 
C 100.300478 48.221726 100.467076 47.819521 100.467076 47.400198 
C 100.467076 46.980875 100.300478 46.57867 100.003971 46.282164 
C 99.707465 45.985658 99.30526 45.819059 98.885938 45.819059 
C 98.466615 45.819059 98.06441 45.985658 97.767904 46.282164 
C 97.471397 46.57867 97.304799 46.980875 97.304799 47.400198 
C 97.304799 47.819521 97.471397 48.221726 97.767904 48.518232 
C 98.06441 48.814738 98.466615 48.981337 98.885938 48.981337 
z
" clip-path="url(#p51e33daa77)" style="fill-opacity: 0.5"/>
   </g>
   <g id="PathCollection_15">
    <path d="M 141.125938 51.043827 
C 141.54526 51.043827 141.947465 50.877229 142.243971 50.580722 
C 142.540478 50.284216 142.707076 49.882011 142.707076 49.462688 
C 142.707076 49.043366 142.540478 48.641161 142.243971 48.344654 
C 141.947465 48.048148 141.54526 47.88155 141.125938 47.88155 
C 140.706615 47.88155 140.30441 48.048148 140.007904 48.344654 
C 139.711397 48.641161 139.544799 49.043366 139.544799 49.462688 
C 139.544799 49.882011 139.711397 50.284216 140.007904 50.580722 
C 140.30441 50.877229 140.706615 51.043827 141.125938 51.043827 
z
" clip-path="url(#p51e33daa77)" style="fill-opacity: 0.5"/>
   </g>
   <g id="PathCollection_16">
    <path d="M 56.645938 51.588136 
C 57.06526 51.588136 57.467465 51.421537 57.763971 51.125031 
C 58.060478 50.828525 58.227076 50.42632 58.227076 50.006997 
C 58.227076 49.587674 58.060478 49.185469 57.763971 48.888963 
C 57.467465 48.592457 57.06526 48.425858 56.645938 48.425858 
C 56.226615 48.425858 55.82441 48.592457 55.527904 48.888963 
C 55.231397 49.185469 55.064799 49.587674 55.064799 50.006997 
C 55.064799 50.42632 55.231397 50.828525 55.527904 51.125031 
C 55.82441 51.421537 56.226615 51.588136 56.645938 51.588136 
z
" clip-path="url(#p51e33daa77)" style="fill-opacity: 0.5"/>
   </g>
   <g id="PathCollection_17">
    <path d="M 98.885938 37.649916 
C 99.30526 37.649916 99.707465 37.483317 100.003971 37.186811 
C 100.300478 36.890305 100.467076 36.4881 100.467076 36.068777 
C 100.467076 35.649454 100.300478 35.247249 100.003971 34.950743 
C 99.707465 34.654237 99.30526 34.487638 98.885938 34.487638 
C 98.466615 34.487638 98.06441 34.654237 97.767904 34.950743 
C 97.471397 35.247249 97.304799 35.649454 97.304799 36.068777 
C 97.304799 36.4881 97.471397 36.890305 97.767904 37.186811 
C 98.06441 37.483317 98.466615 37.649916 98.885938 37.649916 
z
" clip-path="url(#p51e33daa77)" style="fill-opacity: 0.5"/>
   </g>
   <g id="PathCollection_18">
    <path d="M 141.125938 22.039008 
C 141.54526 22.039008 141.947465 21.872409 142.243971 21.575903 
C 142.540478 21.279397 142.707076 20.877192 142.707076 20.457869 
C 142.707076 20.038546 142.540478 19.636341 142.243971 19.339835 
C 141.947465 19.043329 141.54526 18.87673 141.125938 18.87673 
C 140.706615 18.87673 140.30441 19.043329 140.007904 19.339835 
C 139.711397 19.636341 139.544799 20.038546 139.544799 20.457869 
C 139.544799 20.877192 139.711397 21.279397 140.007904 21.575903 
C 140.30441 21.872409 140.706615 22.039008 141.125938 22.039008 
z
" clip-path="url(#p51e33daa77)" style="fill-opacity: 0.5"/>
   </g>
   <g id="text_8">
    <!-- Testing on Source -->
    <g style="fill: #262626" transform="translate(58.866406 14.479687) scale(0.1 -0.1)">
     <defs>
      <path id="ArialMT-54" d="M 1659 0 
L 1659 4041 
L 150 4041 
L 150 4581 
L 3781 4581 
L 3781 4041 
L 2266 4041 
L 2266 0 
L 1659 0 
z
" transform="scale(0.015625)"/>
      <path id="ArialMT-53" d="M 288 1472 
L 859 1522 
Q 900 1178 1048 958 
Q 1197 738 1509 602 
Q 1822 466 2213 466 
Q 2559 466 2825 569 
Q 3091 672 3220 851 
Q 3350 1031 3350 1244 
Q 3350 1459 3225 1620 
Q 3100 1781 2813 1891 
Q 2628 1963 1997 2114 
Q 1366 2266 1113 2400 
Q 784 2572 623 2826 
Q 463 3081 463 3397 
Q 463 3744 659 4045 
Q 856 4347 1234 4503 
Q 1613 4659 2075 4659 
Q 2584 4659 2973 4495 
Q 3363 4331 3572 4012 
Q 3781 3694 3797 3291 
L 3216 3247 
Q 3169 3681 2898 3903 
Q 2628 4125 2100 4125 
Q 1550 4125 1298 3923 
Q 1047 3722 1047 3438 
Q 1047 3191 1225 3031 
Q 1400 2872 2139 2705 
Q 2878 2538 3153 2413 
Q 3553 2228 3743 1945 
Q 3934 1663 3934 1294 
Q 3934 928 3725 604 
Q 3516 281 3123 101 
Q 2731 -78 2241 -78 
Q 1619 -78 1198 103 
Q 778 284 539 648 
Q 300 1013 288 1472 
z
" transform="scale(0.015625)"/>
     </defs>
     <use xlink:href="#ArialMT-54"/>
     <use xlink:href="#ArialMT-65" x="49.958984"/>
     <use xlink:href="#ArialMT-73" x="105.574219"/>
     <use xlink:href="#ArialMT-74" x="155.574219"/>
     <use xlink:href="#ArialMT-69" x="183.357422"/>
     <use xlink:href="#ArialMT-6e" x="205.574219"/>
     <use xlink:href="#ArialMT-67" x="261.189453"/>
     <use xlink:href="#ArialMT-20" x="316.804688"/>
     <use xlink:href="#ArialMT-6f" x="344.587891"/>
     <use xlink:href="#ArialMT-6e" x="400.203125"/>
     <use xlink:href="#ArialMT-20" x="455.818359"/>
     <use xlink:href="#ArialMT-53" x="483.601562"/>
     <use xlink:href="#ArialMT-6f" x="550.300781"/>
     <use xlink:href="#ArialMT-75" x="605.916016"/>
     <use xlink:href="#ArialMT-72" x="661.53125"/>
     <use xlink:href="#ArialMT-63" x="694.832031"/>
     <use xlink:href="#ArialMT-65" x="744.832031"/>
    </g>
   </g>
  </g>
  <g id="axes_2">
   <g id="patch_15">
    <path d="M 174.917938 82.999688 
L 301.637938 82.999688 
L 301.637938 17.479687 
L 174.917938 17.479687 
z
" style="fill: #ffffff"/>
   </g>
   <g id="matplotlib.axis_3">
    <g id="xtick_4">
     <g id="text_9">
      <!-- Naively-tuned -->
      <g style="fill: #262626" transform="translate(177.696219 90.794375) scale(0.06 -0.06)">
       <use xlink:href="#ArialMT-4e"/>
       <use xlink:href="#ArialMT-61" x="72.216797"/>
       <use xlink:href="#ArialMT-69" x="127.832031"/>
       <use xlink:href="#ArialMT-76" x="150.048828"/>
       <use xlink:href="#ArialMT-65" x="200.048828"/>
       <use xlink:href="#ArialMT-6c" x="255.664062"/>
       <use xlink:href="#ArialMT-79" x="277.880859"/>
       <use xlink:href="#ArialMT-2d" x="327.880859"/>
       <use xlink:href="#ArialMT-74" x="361.181641"/>
       <use xlink:href="#ArialMT-75" x="388.964844"/>
       <use xlink:href="#ArialMT-6e" x="444.580078"/>
       <use xlink:href="#ArialMT-65" x="500.195312"/>
       <use xlink:href="#ArialMT-64" x="555.810547"/>
      </g>
      <!-- on target -->
      <g style="fill: #262626" transform="translate(184.197313 97.210813) scale(0.06 -0.06)">
       <use xlink:href="#ArialMT-6f"/>
       <use xlink:href="#ArialMT-6e" x="55.615234"/>
       <use xlink:href="#ArialMT-20" x="111.230469"/>
       <use xlink:href="#ArialMT-74" x="139.013672"/>
       <use xlink:href="#ArialMT-61" x="166.796875"/>
       <use xlink:href="#ArialMT-72" x="222.412109"/>
       <use xlink:href="#ArialMT-67" x="255.712891"/>
       <use xlink:href="#ArialMT-65" x="311.328125"/>
       <use xlink:href="#ArialMT-74" x="366.943359"/>
      </g>
     </g>
    </g>
    <g id="xtick_5">
     <g id="text_10">
      <!-- Agents trained -->
      <g style="fill: #262626" transform="translate(218.933094 90.794375) scale(0.06 -0.06)">
       <use xlink:href="#ArialMT-41"/>
       <use xlink:href="#ArialMT-67" x="66.699219"/>
       <use xlink:href="#ArialMT-65" x="122.314453"/>
       <use xlink:href="#ArialMT-6e" x="177.929688"/>
       <use xlink:href="#ArialMT-74" x="233.544922"/>
       <use xlink:href="#ArialMT-73" x="261.328125"/>
       <use xlink:href="#ArialMT-20" x="311.328125"/>
       <use xlink:href="#ArialMT-74" x="339.111328"/>
       <use xlink:href="#ArialMT-72" x="366.894531"/>
       <use xlink:href="#ArialMT-61" x="400.195312"/>
       <use xlink:href="#ArialMT-69" x="455.810547"/>
       <use xlink:href="#ArialMT-6e" x="478.027344"/>
       <use xlink:href="#ArialMT-65" x="533.642578"/>
       <use xlink:href="#ArialMT-64" x="589.257812"/>
      </g>
      <!-- on source -->
      <g style="fill: #262626" transform="translate(225.104187 97.210813) scale(0.06 -0.06)">
       <use xlink:href="#ArialMT-6f"/>
       <use xlink:href="#ArialMT-6e" x="55.615234"/>
       <use xlink:href="#ArialMT-20" x="111.230469"/>
       <use xlink:href="#ArialMT-73" x="139.013672"/>
       <use xlink:href="#ArialMT-6f" x="189.013672"/>
       <use xlink:href="#ArialMT-75" x="244.628906"/>
       <use xlink:href="#ArialMT-72" x="300.244141"/>
       <use xlink:href="#ArialMT-63" x="333.544922"/>
       <use xlink:href="#ArialMT-65" x="383.544922"/>
      </g>
     </g>
    </g>
    <g id="xtick_6">
     <g id="text_11">
      <!-- Anchor-tuned -->
      <g style="fill: #262626" transform="translate(262.507625 90.794375) scale(0.06 -0.06)">
       <use xlink:href="#ArialMT-41"/>
       <use xlink:href="#ArialMT-6e" x="66.699219"/>
       <use xlink:href="#ArialMT-63" x="122.314453"/>
       <use xlink:href="#ArialMT-68" x="172.314453"/>
       <use xlink:href="#ArialMT-6f" x="227.929688"/>
       <use xlink:href="#ArialMT-72" x="283.544922"/>
       <use xlink:href="#ArialMT-2d" x="316.845703"/>
       <use xlink:href="#ArialMT-74" x="350.146484"/>
       <use xlink:href="#ArialMT-75" x="377.929688"/>
       <use xlink:href="#ArialMT-6e" x="433.544922"/>
       <use xlink:href="#ArialMT-65" x="489.160156"/>
       <use xlink:href="#ArialMT-64" x="544.775391"/>
      </g>
      <!-- on target -->
      <g style="fill: #262626" transform="translate(268.677313 97.1405) scale(0.06 -0.06)">
       <use xlink:href="#ArialMT-6f"/>
       <use xlink:href="#ArialMT-6e" x="55.615234"/>
       <use xlink:href="#ArialMT-20" x="111.230469"/>
       <use xlink:href="#ArialMT-74" x="139.013672"/>
       <use xlink:href="#ArialMT-61" x="166.796875"/>
       <use xlink:href="#ArialMT-72" x="222.412109"/>
       <use xlink:href="#ArialMT-67" x="255.712891"/>
       <use xlink:href="#ArialMT-65" x="311.328125"/>
       <use xlink:href="#ArialMT-74" x="366.943359"/>
      </g>
     </g>
    </g>
   </g>
   <g id="matplotlib.axis_4">
    <g id="ytick_4">
     <g id="line2d_4">
      <path d="M 174.917938 80.054403 
L 301.637938 80.054403 
" clip-path="url(#p80b9c7a3b6)" style="fill: none; stroke-dasharray: 2.96,1.28; stroke-dashoffset: 0; stroke: #cccccc; stroke-opacity: 0.3; stroke-width: 0.8"/>
     </g>
    </g>
    <g id="ytick_5">
     <g id="line2d_5">
      <path d="M 174.917938 55.913311 
L 301.637938 55.913311 
" clip-path="url(#p80b9c7a3b6)" style="fill: none; stroke-dasharray: 2.96,1.28; stroke-dashoffset: 0; stroke: #cccccc; stroke-opacity: 0.3; stroke-width: 0.8"/>
     </g>
    </g>
    <g id="ytick_6">
     <g id="line2d_6">
      <path d="M 174.917938 31.772218 
L 301.637938 31.772218 
" clip-path="url(#p80b9c7a3b6)" style="fill: none; stroke-dasharray: 2.96,1.28; stroke-dashoffset: 0; stroke: #cccccc; stroke-opacity: 0.3; stroke-width: 0.8"/>
     </g>
    </g>
   </g>
   <g id="PolyCollection_4">
    <defs>
     <path id="m7f3f517548" d="M 212.11826 -25.652119 
L 179.957615 -25.652119 
L 179.819804 -25.901543 
L 179.694555 -26.150967 
L 179.582008 -26.400391 
L 179.482264 -26.649815 
L 179.395378 -26.899239 
L 179.321365 -27.148663 
L 179.260198 -27.398087 
L 179.211804 -27.64751 
L 179.176072 -27.896934 
L 179.152848 -28.146358 
L 179.141938 -28.395782 
L 179.143107 -28.645206 
L 179.156087 -28.89463 
L 179.180568 -29.144054 
L 179.216208 -29.393478 
L 179.262632 -29.642901 
L 179.319433 -29.892325 
L 179.386176 -30.141749 
L 179.462399 -30.391173 
L 179.547615 -30.640597 
L 179.641315 -30.890021 
L 179.74297 -31.139445 
L 179.852036 -31.388869 
L 179.967952 -31.638293 
L 180.090148 -31.887716 
L 180.218042 -32.13714 
L 180.351048 -32.386564 
L 180.488574 -32.635988 
L 180.630029 -32.885412 
L 180.774823 -33.134836 
L 180.922368 -33.38426 
L 181.072086 -33.633684 
L 181.223406 -33.883108 
L 181.375769 -34.132531 
L 181.528629 -34.381955 
L 181.681457 -34.631379 
L 181.833742 -34.880803 
L 181.984991 -35.130227 
L 182.134736 -35.379651 
L 182.282529 -35.629075 
L 182.427951 -35.878499 
L 182.570607 -36.127922 
L 182.710131 -36.377346 
L 182.846186 -36.62677 
L 182.978465 -36.876194 
L 183.106691 -37.125618 
L 183.230622 -37.375042 
L 183.350045 -37.624466 
L 183.464782 -37.87389 
L 183.574687 -38.123314 
L 183.679647 -38.372737 
L 183.779584 -38.622161 
L 183.874452 -38.871585 
L 183.964236 -39.121009 
L 184.048956 -39.370433 
L 184.128663 -39.619857 
L 184.203438 -39.869281 
L 184.273392 -40.118705 
L 184.338666 -40.368129 
L 184.399429 -40.617552 
L 184.455876 -40.866976 
L 184.508227 -41.1164 
L 184.556726 -41.365824 
L 184.601641 -41.615248 
L 184.643257 -41.864672 
L 184.681882 -42.114096 
L 184.717837 -42.36352 
L 184.751462 -42.612944 
L 184.783107 -42.862367 
L 184.813134 -43.111791 
L 184.841915 -43.361215 
L 184.869829 -43.610639 
L 184.897258 -43.860063 
L 184.924589 -44.109487 
L 184.952208 -44.358911 
L 184.980501 -44.608335 
L 185.009851 -44.857758 
L 185.040632 -45.107182 
L 185.073216 -45.356606 
L 185.10796 -45.60603 
L 185.145213 -45.855454 
L 185.185311 -46.104878 
L 185.228573 -46.354302 
L 185.275304 -46.603726 
L 185.325789 -46.85315 
L 185.380295 -47.102573 
L 185.439069 -47.351997 
L 185.502334 -47.601421 
L 185.570291 -47.850845 
L 185.643118 -48.100269 
L 185.720969 -48.349693 
L 185.803971 -48.599117 
L 185.892227 -48.848541 
L 185.985814 -49.097965 
L 186.084782 -49.347388 
L 186.189156 -49.596812 
L 186.298934 -49.846236 
L 186.414089 -50.09566 
L 186.53457 -50.345084 
L 205.541305 -50.345084 
L 205.541305 -50.345084 
L 205.661786 -50.09566 
L 205.776941 -49.846236 
L 205.886719 -49.596812 
L 205.991093 -49.347388 
L 206.090061 -49.097965 
L 206.183648 -48.848541 
L 206.271904 -48.599117 
L 206.354906 -48.349693 
L 206.432757 -48.100269 
L 206.505584 -47.850845 
L 206.573541 -47.601421 
L 206.636806 -47.351997 
L 206.69558 -47.102573 
L 206.750086 -46.85315 
L 206.800571 -46.603726 
L 206.847302 -46.354302 
L 206.890564 -46.104878 
L 206.930662 -45.855454 
L 206.967915 -45.60603 
L 207.002659 -45.356606 
L 207.035243 -45.107182 
L 207.066024 -44.857758 
L 207.095374 -44.608335 
L 207.123667 -44.358911 
L 207.151286 -44.109487 
L 207.178617 -43.860063 
L 207.206046 -43.610639 
L 207.23396 -43.361215 
L 207.262741 -43.111791 
L 207.292768 -42.862367 
L 207.324413 -42.612944 
L 207.358038 -42.36352 
L 207.393993 -42.114096 
L 207.432618 -41.864672 
L 207.474234 -41.615248 
L 207.519149 -41.365824 
L 207.567648 -41.1164 
L 207.619999 -40.866976 
L 207.676446 -40.617552 
L 207.737209 -40.368129 
L 207.802483 -40.118705 
L 207.872437 -39.869281 
L 207.947212 -39.619857 
L 208.026919 -39.370433 
L 208.111639 -39.121009 
L 208.201423 -38.871585 
L 208.296291 -38.622161 
L 208.396228 -38.372737 
L 208.501188 -38.123314 
L 208.611093 -37.87389 
L 208.72583 -37.624466 
L 208.845253 -37.375042 
L 208.969184 -37.125618 
L 209.09741 -36.876194 
L 209.229689 -36.62677 
L 209.365744 -36.377346 
L 209.505268 -36.127922 
L 209.647924 -35.878499 
L 209.793346 -35.629075 
L 209.941139 -35.379651 
L 210.090884 -35.130227 
L 210.242133 -34.880803 
L 210.394418 -34.631379 
L 210.547246 -34.381955 
L 210.700106 -34.132531 
L 210.852469 -33.883108 
L 211.003789 -33.633684 
L 211.153507 -33.38426 
L 211.301052 -33.134836 
L 211.445846 -32.885412 
L 211.587301 -32.635988 
L 211.724827 -32.386564 
L 211.857833 -32.13714 
L 211.985727 -31.887716 
L 212.107923 -31.638293 
L 212.223839 -31.388869 
L 212.332905 -31.139445 
L 212.43456 -30.890021 
L 212.52826 -30.640597 
L 212.613476 -30.391173 
L 212.689699 -30.141749 
L 212.756442 -29.892325 
L 212.813243 -29.642901 
L 212.859667 -29.393478 
L 212.895307 -29.144054 
L 212.919788 -28.89463 
L 212.932768 -28.645206 
L 212.933938 -28.395782 
L 212.923027 -28.146358 
L 212.899803 -27.896934 
L 212.864071 -27.64751 
L 212.815677 -27.398087 
L 212.75451 -27.148663 
L 212.680497 -26.899239 
L 212.593611 -26.649815 
L 212.493867 -26.400391 
L 212.38132 -26.150967 
L 212.256071 -25.901543 
L 212.11826 -25.652119 
z
" style="stroke: #000000; stroke-opacity: 0.7"/>
    </defs>
    <g clip-path="url(#p80b9c7a3b6)">
     <use xlink:href="#m7f3f517548" x="0" y="105.673625" style="fill: #ffffff; fill-opacity: 0.7; stroke: #000000; stroke-opacity: 0.7"/>
    </g>
   </g>
   <g id="PolyCollection_5">
    <defs>
     <path id="m3c6aeb7ec8" d="M 245.301585 -26.788093 
L 231.25429 -26.788093 
L 231.135745 -26.954614 
L 231.021016 -27.121135 
L 230.910165 -27.287656 
L 230.803232 -27.454177 
L 230.70023 -27.620698 
L 230.601144 -27.787219 
L 230.50593 -27.95374 
L 230.414519 -28.120261 
L 230.32681 -28.286782 
L 230.242676 -28.453303 
L 230.16196 -28.619824 
L 230.084476 -28.786345 
L 230.010013 -28.952866 
L 229.93833 -29.119387 
L 229.869161 -29.285908 
L 229.802213 -29.452429 
L 229.737171 -29.618951 
L 229.673696 -29.785472 
L 229.611428 -29.951993 
L 229.549986 -30.118514 
L 229.488976 -30.285035 
L 229.427984 -30.451556 
L 229.366587 -30.618077 
L 229.304349 -30.784598 
L 229.240829 -30.951119 
L 229.175581 -31.11764 
L 229.108156 -31.284161 
L 229.03811 -31.450682 
L 228.965 -31.617203 
L 228.888395 -31.783724 
L 228.807875 -31.950245 
L 228.723035 -32.116766 
L 228.63349 -32.283287 
L 228.538876 -32.449808 
L 228.438858 -32.616329 
L 228.333128 -32.78285 
L 228.221413 -32.949371 
L 228.103477 -33.115892 
L 227.97912 -33.282413 
L 227.848189 -33.448935 
L 227.710575 -33.615456 
L 227.566215 -33.781977 
L 227.415099 -33.948498 
L 227.257268 -34.115019 
L 227.092817 -34.28154 
L 226.921897 -34.448061 
L 226.744713 -34.614582 
L 226.56153 -34.781103 
L 226.372669 -34.947624 
L 226.178506 -35.114145 
L 225.979477 -35.280666 
L 225.776068 -35.447187 
L 225.568824 -35.613708 
L 225.358337 -35.780229 
L 225.145252 -35.94675 
L 224.930258 -36.113271 
L 224.714089 -36.279792 
L 224.497517 -36.446313 
L 224.28135 -36.612834 
L 224.06643 -36.779355 
L 223.853622 -36.945876 
L 223.643816 -37.112398 
L 223.437916 -37.278919 
L 223.236841 -37.44544 
L 223.041512 -37.611961 
L 222.852853 -37.778482 
L 222.671783 -37.945003 
L 222.499208 -38.111524 
L 222.336017 -38.278045 
L 222.18308 -38.444566 
L 222.041234 -38.611087 
L 221.911287 -38.777608 
L 221.794005 -38.944129 
L 221.690115 -39.11065 
L 221.60029 -39.277171 
L 221.525155 -39.443692 
L 221.465278 -39.610213 
L 221.421164 -39.776734 
L 221.393258 -39.943255 
L 221.381938 -40.109776 
L 221.387512 -40.276297 
L 221.41022 -40.442818 
L 221.45023 -40.609339 
L 221.507638 -40.77586 
L 221.582466 -40.942382 
L 221.674664 -41.108903 
L 221.784112 -41.275424 
L 221.910615 -41.441945 
L 222.053913 -41.608466 
L 222.213677 -41.774987 
L 222.389512 -41.941508 
L 222.580963 -42.108029 
L 222.787513 -42.27455 
L 223.008593 -42.441071 
L 223.24358 -42.607592 
L 223.491803 -42.774113 
L 223.75255 -42.940634 
L 224.025068 -43.107155 
L 224.30857 -43.273676 
L 252.247305 -43.273676 
L 252.247305 -43.273676 
L 252.530807 -43.107155 
L 252.803325 -42.940634 
L 253.064072 -42.774113 
L 253.312295 -42.607592 
L 253.547282 -42.441071 
L 253.768362 -42.27455 
L 253.974912 -42.108029 
L 254.166363 -41.941508 
L 254.342198 -41.774987 
L 254.501962 -41.608466 
L 254.64526 -41.441945 
L 254.771763 -41.275424 
L 254.881211 -41.108903 
L 254.973409 -40.942382 
L 255.048237 -40.77586 
L 255.105645 -40.609339 
L 255.145655 -40.442818 
L 255.168363 -40.276297 
L 255.173938 -40.109776 
L 255.162617 -39.943255 
L 255.134711 -39.776734 
L 255.090597 -39.610213 
L 255.03072 -39.443692 
L 254.955585 -39.277171 
L 254.86576 -39.11065 
L 254.76187 -38.944129 
L 254.644588 -38.777608 
L 254.514641 -38.611087 
L 254.372795 -38.444566 
L 254.219858 -38.278045 
L 254.056667 -38.111524 
L 253.884092 -37.945003 
L 253.703022 -37.778482 
L 253.514363 -37.611961 
L 253.319034 -37.44544 
L 253.117959 -37.278919 
L 252.912059 -37.112398 
L 252.702253 -36.945876 
L 252.489445 -36.779355 
L 252.274525 -36.612834 
L 252.058358 -36.446313 
L 251.841786 -36.279792 
L 251.625617 -36.113271 
L 251.410623 -35.94675 
L 251.197538 -35.780229 
L 250.987051 -35.613708 
L 250.779807 -35.447187 
L 250.576398 -35.280666 
L 250.377369 -35.114145 
L 250.183206 -34.947624 
L 249.994345 -34.781103 
L 249.811162 -34.614582 
L 249.633978 -34.448061 
L 249.463058 -34.28154 
L 249.298607 -34.115019 
L 249.140776 -33.948498 
L 248.98966 -33.781977 
L 248.8453 -33.615456 
L 248.707686 -33.448935 
L 248.576755 -33.282413 
L 248.452398 -33.115892 
L 248.334462 -32.949371 
L 248.222747 -32.78285 
L 248.117017 -32.616329 
L 248.016999 -32.449808 
L 247.922385 -32.283287 
L 247.83284 -32.116766 
L 247.748 -31.950245 
L 247.66748 -31.783724 
L 247.590875 -31.617203 
L 247.517765 -31.450682 
L 247.447719 -31.284161 
L 247.380294 -31.11764 
L 247.315046 -30.951119 
L 247.251526 -30.784598 
L 247.189288 -30.618077 
L 247.127891 -30.451556 
L 247.066899 -30.285035 
L 247.005889 -30.118514 
L 246.944447 -29.951993 
L 246.882179 -29.785472 
L 246.818704 -29.618951 
L 246.753662 -29.452429 
L 246.686714 -29.285908 
L 246.617545 -29.119387 
L 246.545862 -28.952866 
L 246.471399 -28.786345 
L 246.393915 -28.619824 
L 246.313199 -28.453303 
L 246.229065 -28.286782 
L 246.141356 -28.120261 
L 246.049945 -27.95374 
L 245.954731 -27.787219 
L 245.855645 -27.620698 
L 245.752643 -27.454177 
L 245.64571 -27.287656 
L 245.534859 -27.121135 
L 245.42013 -26.954614 
L 245.301585 -26.788093 
z
" style="stroke: #000000; stroke-opacity: 0.7"/>
    </defs>
    <g clip-path="url(#p80b9c7a3b6)">
     <use xlink:href="#m3c6aeb7ec8" x="0" y="105.673625" style="fill: #ffffff; fill-opacity: 0.7; stroke: #000000; stroke-opacity: 0.7"/>
    </g>
   </g>
   <g id="PolyCollection_6">
    <defs>
     <path id="m6853a1dcf0" d="M 294.07093 -30.77676 
L 266.964945 -30.77676 
L 266.724084 -30.991535 
L 266.492072 -31.206309 
L 266.269349 -31.421084 
L 266.056316 -31.635858 
L 265.853338 -31.850633 
L 265.66074 -32.065407 
L 265.4788 -32.280182 
L 265.307756 -32.494956 
L 265.147793 -32.709731 
L 264.999053 -32.924505 
L 264.861624 -33.13928 
L 264.735544 -33.354054 
L 264.620801 -33.568829 
L 264.517329 -33.783603 
L 264.425009 -33.998378 
L 264.343673 -34.213152 
L 264.273099 -34.427927 
L 264.213017 -34.642701 
L 264.163105 -34.857476 
L 264.122997 -35.07225 
L 264.092281 -35.287025 
L 264.0705 -35.501799 
L 264.057159 -35.716574 
L 264.051725 -35.931348 
L 264.053632 -36.146123 
L 264.062283 -36.360897 
L 264.077054 -36.575672 
L 264.0973 -36.790446 
L 264.122358 -37.005221 
L 264.151549 -37.219995 
L 264.184188 -37.43477 
L 264.219584 -37.649544 
L 264.257047 -37.864319 
L 264.295893 -38.079093 
L 264.335446 -38.293868 
L 264.375047 -38.508642 
L 264.414057 -38.723417 
L 264.45186 -38.938191 
L 264.48787 -39.152966 
L 264.521534 -39.36774 
L 264.552337 -39.582515 
L 264.579803 -39.797289 
L 264.603504 -40.012064 
L 264.623058 -40.226838 
L 264.638136 -40.441613 
L 264.64846 -40.656387 
L 264.653811 -40.871162 
L 264.654025 -41.085936 
L 264.648999 -41.300711 
L 264.63869 -41.515485 
L 264.623114 -41.73026 
L 264.60235 -41.945034 
L 264.576534 -42.159808 
L 264.545865 -42.374583 
L 264.510597 -42.589357 
L 264.471043 -42.804132 
L 264.427567 -43.018906 
L 264.380588 -43.233681 
L 264.330572 -43.448455 
L 264.278031 -43.66323 
L 264.223517 -43.878004 
L 264.167622 -44.092779 
L 264.110971 -44.307553 
L 264.054218 -44.522328 
L 263.998042 -44.737102 
L 263.943141 -44.951877 
L 263.890228 -45.166651 
L 263.840025 -45.381426 
L 263.793261 -45.5962 
L 263.750662 -45.810975 
L 263.71295 -46.025749 
L 263.680835 -46.240524 
L 263.655014 -46.455298 
L 263.636162 -46.670073 
L 263.624929 -46.884847 
L 263.621938 -47.099622 
L 263.627776 -47.314396 
L 263.642997 -47.529171 
L 263.668111 -47.743945 
L 263.703585 -47.95872 
L 263.749841 -48.173494 
L 263.80725 -48.388269 
L 263.876133 -48.603043 
L 263.956757 -48.817818 
L 264.049336 -49.032592 
L 264.154027 -49.247367 
L 264.270932 -49.462141 
L 264.400096 -49.676916 
L 264.541508 -49.89169 
L 264.695103 -50.106465 
L 264.860758 -50.321239 
L 265.038299 -50.536014 
L 265.2275 -50.750788 
L 265.428084 -50.965563 
L 265.639725 -51.180337 
L 265.862055 -51.395112 
L 266.094659 -51.609886 
L 266.337084 -51.824661 
L 266.588839 -52.039435 
L 294.447036 -52.039435 
L 294.447036 -52.039435 
L 294.698791 -51.824661 
L 294.941216 -51.609886 
L 295.17382 -51.395112 
L 295.39615 -51.180337 
L 295.607791 -50.965563 
L 295.808375 -50.750788 
L 295.997576 -50.536014 
L 296.175117 -50.321239 
L 296.340772 -50.106465 
L 296.494367 -49.89169 
L 296.635779 -49.676916 
L 296.764943 -49.462141 
L 296.881848 -49.247367 
L 296.986539 -49.032592 
L 297.079118 -48.817818 
L 297.159742 -48.603043 
L 297.228625 -48.388269 
L 297.286034 -48.173494 
L 297.33229 -47.95872 
L 297.367764 -47.743945 
L 297.392878 -47.529171 
L 297.408099 -47.314396 
L 297.413938 -47.099622 
L 297.410946 -46.884847 
L 297.399713 -46.670073 
L 297.380861 -46.455298 
L 297.35504 -46.240524 
L 297.322925 -46.025749 
L 297.285213 -45.810975 
L 297.242614 -45.5962 
L 297.19585 -45.381426 
L 297.145647 -45.166651 
L 297.092734 -44.951877 
L 297.037833 -44.737102 
L 296.981657 -44.522328 
L 296.924904 -44.307553 
L 296.868253 -44.092779 
L 296.812358 -43.878004 
L 296.757844 -43.66323 
L 296.705303 -43.448455 
L 296.655287 -43.233681 
L 296.608308 -43.018906 
L 296.564832 -42.804132 
L 296.525278 -42.589357 
L 296.49001 -42.374583 
L 296.459341 -42.159808 
L 296.433525 -41.945034 
L 296.412761 -41.73026 
L 296.397185 -41.515485 
L 296.386876 -41.300711 
L 296.38185 -41.085936 
L 296.382064 -40.871162 
L 296.387415 -40.656387 
L 296.397739 -40.441613 
L 296.412817 -40.226838 
L 296.432371 -40.012064 
L 296.456072 -39.797289 
L 296.483538 -39.582515 
L 296.514341 -39.36774 
L 296.548005 -39.152966 
L 296.584015 -38.938191 
L 296.621818 -38.723417 
L 296.660828 -38.508642 
L 296.700429 -38.293868 
L 296.739982 -38.079093 
L 296.778828 -37.864319 
L 296.816291 -37.649544 
L 296.851687 -37.43477 
L 296.884326 -37.219995 
L 296.913517 -37.005221 
L 296.938575 -36.790446 
L 296.958821 -36.575672 
L 296.973592 -36.360897 
L 296.982243 -36.146123 
L 296.98415 -35.931348 
L 296.978716 -35.716574 
L 296.965375 -35.501799 
L 296.943594 -35.287025 
L 296.912878 -35.07225 
L 296.87277 -34.857476 
L 296.822858 -34.642701 
L 296.762776 -34.427927 
L 296.692202 -34.213152 
L 296.610866 -33.998378 
L 296.518546 -33.783603 
L 296.415074 -33.568829 
L 296.300331 -33.354054 
L 296.174251 -33.13928 
L 296.036822 -32.924505 
L 295.888082 -32.709731 
L 295.728119 -32.494956 
L 295.557075 -32.280182 
L 295.375135 -32.065407 
L 295.182537 -31.850633 
L 294.979559 -31.635858 
L 294.766526 -31.421084 
L 294.543803 -31.206309 
L 294.311791 -30.991535 
L 294.07093 -30.77676 
z
" style="stroke: #000000; stroke-opacity: 0.7"/>
    </defs>
    <g clip-path="url(#p80b9c7a3b6)">
     <use xlink:href="#m6853a1dcf0" x="0" y="105.673625" style="fill: #ffffff; fill-opacity: 0.7; stroke: #000000; stroke-opacity: 0.7"/>
    </g>
   </g>
   <g id="patch_16">
    <path d="M 234.810359 64.377758 
Q 216.16959 61.926008 198.969854 59.663793 
" style="fill: none; opacity: 0.4; stroke: #99d366; stroke-width: 1.3; stroke-linecap: round"/>
    <path d="M 202.674892 62.168327 
L 198.969854 59.663793 
L 203.196504 58.202483 
" style="fill: none; opacity: 0.4; stroke: #99d366; stroke-width: 1.3; stroke-linecap: round"/>
   </g>
   <g id="patch_17">
    <path d="M 241.663016 63.936305 
Q 260.367164 58.977029 277.666413 54.390252 
" style="fill: none; opacity: 0.4; stroke: #5ab454; stroke-width: 1.3; stroke-linecap: round"/>
    <path d="M 273.287435 53.482201 
L 277.666413 54.390252 
L 274.312585 57.348603 
" style="fill: none; opacity: 0.4; stroke: #5ab454; stroke-width: 1.3; stroke-linecap: round"/>
   </g>
   <g id="patch_18">
    <path d="M 234.923797 67.580629 
Q 216.200009 73.118689 198.869977 78.244509 
" style="fill: none; opacity: 0.4; stroke: #e54f35; stroke-width: 1.3; stroke-linecap: round"/>
    <path d="M 203.272973 79.027855 
L 198.869977 78.244509 
L 202.138452 75.19212 
" style="fill: none; opacity: 0.4; stroke: #e54f35; stroke-width: 1.3; stroke-linecap: round"/>
   </g>
   <g id="patch_19">
    <path d="M 241.714578 67.264515 
Q 260.379695 70.935813 277.618693 74.326603 
" style="fill: none; opacity: 0.4; stroke: #f17e4b; stroke-width: 1.3; stroke-linecap: round"/>
    <path d="M 274.079884 71.592223 
L 277.618693 74.326603 
L 273.307904 75.517022 
" style="fill: none; opacity: 0.4; stroke: #f17e4b; stroke-width: 1.3; stroke-linecap: round"/>
   </g>
   <g id="patch_20">
    <path d="M 235.083641 72.770078 
Q 216.245948 64.355367 198.735318 56.533449 
" style="fill: none; opacity: 0.4; stroke: #1a9641; stroke-width: 1.3; stroke-linecap: round"/>
    <path d="M 201.571799 59.990959 
L 198.735318 56.533449 
L 203.203215 56.33877 
" style="fill: none; opacity: 0.4; stroke: #1a9641; stroke-width: 1.3; stroke-linecap: round"/>
   </g>
   <g id="patch_21">
    <path d="M 241.771297 73.948911 
Q 260.394942 72.626543 277.568792 71.407118 
" style="fill: none; opacity: 0.4; stroke: #b7e07a; stroke-width: 1.3; stroke-linecap: round"/>
    <path d="M 273.437185 69.695446 
L 277.568792 71.407118 
L 273.72049 73.685401 
" style="fill: none; opacity: 0.4; stroke: #b7e07a; stroke-width: 1.3; stroke-linecap: round"/>
   </g>
   <g id="patch_22">
    <path d="M 234.779422 78.871031 
Q 216.158256 78.793846 198.990521 78.722686 
" style="fill: none; opacity: 0.4; stroke: #eef8ae; stroke-width: 1.3; stroke-linecap: round"/>
    <path d="M 202.982197 80.739249 
L 198.990521 78.722686 
L 202.998776 76.739283 
" style="fill: none; opacity: 0.4; stroke: #eef8ae; stroke-width: 1.3; stroke-linecap: round"/>
   </g>
   <g id="patch_23">
    <path d="M 241.683641 78.072182 
Q 260.37312 73.608757 277.648911 69.48295 
" style="fill: none; opacity: 0.4; stroke: #65ba57; stroke-width: 1.3; stroke-linecap: round"/>
    <path d="M 273.293747 68.466807 
L 277.648911 69.48295 
L 274.222898 72.357396 
" style="fill: none; opacity: 0.4; stroke: #65ba57; stroke-width: 1.3; stroke-linecap: round"/>
   </g>
   <g id="patch_24">
    <path d="M 235.047547 63.747594 
Q 216.23441 71.596002 198.762671 78.884809 
" style="fill: none; opacity: 0.4; stroke: #d92220; stroke-width: 1.3; stroke-linecap: round"/>
    <path d="M 203.224343 79.190562 
L 198.762671 78.884809 
L 201.684277 75.498923 
" style="fill: none; opacity: 0.4; stroke: #d92220; stroke-width: 1.3; stroke-linecap: round"/>
   </g>
   <g id="patch_25">
    <path d="M 241.760984 62.056124 
Q 260.394317 60.216754 277.581235 58.520166 
" style="fill: none; opacity: 0.4; stroke: #abdb6e; stroke-width: 1.3; stroke-linecap: round"/>
    <path d="M 273.40411 56.922786 
L 277.581235 58.520166 
L 273.797056 60.903438 
" style="fill: none; opacity: 0.4; stroke: #abdb6e; stroke-width: 1.3; stroke-linecap: round"/>
   </g>
   <g id="patch_26">
    <path d="M 234.794891 66.589455 
Q 216.161558 68.372064 198.975064 70.016258 
" style="fill: none; opacity: 0.4; stroke: #fdb367; stroke-width: 1.3; stroke-linecap: round"/>
    <path d="M 203.14735 71.626236 
L 198.975064 70.016258 
L 202.766418 67.644416 
" style="fill: none; opacity: 0.4; stroke: #fdb367; stroke-width: 1.3; stroke-linecap: round"/>
   </g>
   <g id="patch_27">
    <path d="M 241.719734 65.611681 
Q 260.382371 62.116655 277.616399 58.889169 
" style="fill: none; opacity: 0.4; stroke: #7dc55e; stroke-width: 1.3; stroke-linecap: round"/>
    <path d="M 273.316602 57.65964 
L 277.616399 58.889169 
L 274.052898 61.59129 
" style="fill: none; opacity: 0.4; stroke: #7dc55e; stroke-width: 1.3; stroke-linecap: round"/>
   </g>
   <g id="PathCollection_19">
    <path d="M 196.037938 60.859308 
C 196.45726 60.859308 196.859465 60.692709 197.155971 60.396203 
C 197.452478 60.099697 197.619076 59.697492 197.619076 59.278169 
C 197.619076 58.858846 197.452478 58.456641 197.155971 58.160135 
C 196.859465 57.863629 196.45726 57.69703 196.037938 57.69703 
C 195.618615 57.69703 195.21641 57.863629 194.919904 58.160135 
C 194.623397 58.456641 194.456799 58.858846 194.456799 59.278169 
C 194.456799 59.697492 194.623397 60.099697 194.919904 60.396203 
C 195.21641 60.692709 195.618615 60.859308 196.037938 60.859308 
z
" clip-path="url(#p80b9c7a3b6)" style="fill-opacity: 0.5"/>
   </g>
   <g id="PathCollection_20">
    <path d="M 238.277938 66.414974 
C 238.69726 66.414974 239.099465 66.248376 239.395971 65.951869 
C 239.692478 65.655363 239.859076 65.253158 239.859076 64.833835 
C 239.859076 64.414513 239.692478 64.012308 239.395971 63.715801 
C 239.099465 63.419295 238.69726 63.252697 238.277938 63.252697 
C 237.858615 63.252697 237.45641 63.419295 237.159904 63.715801 
C 236.863397 64.012308 236.696799 64.414513 236.696799 64.833835 
C 236.696799 65.253158 236.863397 65.655363 237.159904 65.951869 
C 237.45641 66.248376 237.858615 66.414974 238.277938 66.414974 
z
" clip-path="url(#p80b9c7a3b6)" style="fill-opacity: 0.5"/>
   </g>
   <g id="PathCollection_21">
    <path d="M 280.517938 55.215329 
C 280.93726 55.215329 281.339465 55.04873 281.635971 54.752224 
C 281.932478 54.455718 282.099076 54.053513 282.099076 53.63419 
C 282.099076 53.214867 281.932478 52.812662 281.635971 52.516156 
C 281.339465 52.21965 280.93726 52.053051 280.517938 52.053051 
C 280.098615 52.053051 279.69641 52.21965 279.399904 52.516156 
C 279.103397 52.812662 278.936799 53.214867 278.936799 53.63419 
C 278.936799 54.053513 279.103397 54.455718 279.399904 54.752224 
C 279.69641 55.04873 280.098615 55.215329 280.517938 55.215329 
z
" clip-path="url(#p80b9c7a3b6)" style="fill-opacity: 0.5"/>
   </g>
   <g id="PathCollection_22">
    <path d="M 196.037938 80.663299 
C 196.45726 80.663299 196.859465 80.4967 197.155971 80.200194 
C 197.452478 79.903688 197.619076 79.501483 197.619076 79.08216 
C 197.619076 78.662837 197.452478 78.260632 197.155971 77.964126 
C 196.859465 77.66762 196.45726 77.501021 196.037938 77.501021 
C 195.618615 77.501021 195.21641 77.66762 194.919904 77.964126 
C 194.623397 78.260632 194.456799 78.662837 194.456799 79.08216 
C 194.456799 79.501483 194.623397 79.903688 194.919904 80.200194 
C 195.21641 80.4967 195.618615 80.663299 196.037938 80.663299 
z
" clip-path="url(#p80b9c7a3b6)" style="fill-opacity: 0.5"/>
   </g>
   <g id="PathCollection_23">
    <path d="M 238.277938 68.169691 
C 238.69726 68.169691 239.099465 68.003092 239.395971 67.706586 
C 239.692478 67.41008 239.859076 67.007875 239.859076 66.588552 
C 239.859076 66.169229 239.692478 65.767024 239.395971 65.470518 
C 239.099465 65.174012 238.69726 65.007413 238.277938 65.007413 
C 237.858615 65.007413 237.45641 65.174012 237.159904 65.470518 
C 236.863397 65.767024 236.696799 66.169229 236.696799 66.588552 
C 236.696799 67.007875 236.863397 67.41008 237.159904 67.706586 
C 237.45641 68.003092 237.858615 68.169691 238.277938 68.169691 
z
" clip-path="url(#p80b9c7a3b6)" style="fill-opacity: 0.5"/>
   </g>
   <g id="PathCollection_24">
    <path d="M 280.517938 76.478003 
C 280.93726 76.478003 281.339465 76.311405 281.635971 76.014899 
C 281.932478 75.718392 282.099076 75.316187 282.099076 74.896865 
C 282.099076 74.477542 281.932478 74.075337 281.635971 73.778831 
C 281.339465 73.482324 280.93726 73.315726 280.517938 73.315726 
C 280.098615 73.315726 279.69641 73.482324 279.399904 73.778831 
C 279.103397 74.075337 278.936799 74.477542 278.936799 74.896865 
C 278.936799 75.316187 279.103397 75.718392 279.399904 76.014899 
C 279.69641 76.311405 280.098615 76.478003 280.517938 76.478003 
z
" clip-path="url(#p80b9c7a3b6)" style="fill-opacity: 0.5"/>
   </g>
   <g id="PathCollection_25">
    <path d="M 196.037938 56.90968 
C 196.45726 56.90968 196.859465 56.743081 197.155971 56.446575 
C 197.452478 56.150069 197.619076 55.747864 197.619076 55.328541 
C 197.619076 54.909218 197.452478 54.507013 197.155971 54.210507 
C 196.859465 53.914001 196.45726 53.747402 196.037938 53.747402 
C 195.618615 53.747402 195.21641 53.914001 194.919904 54.210507 
C 194.623397 54.507013 194.456799 54.909218 194.456799 55.328541 
C 194.456799 55.747864 194.623397 56.150069 194.919904 56.446575 
C 195.21641 56.743081 195.618615 56.90968 196.037938 56.90968 
z
" clip-path="url(#p80b9c7a3b6)" style="fill-opacity: 0.5"/>
   </g>
   <g id="PathCollection_26">
    <path d="M 238.277938 75.778095 
C 238.69726 75.778095 239.099465 75.611496 239.395971 75.31499 
C 239.692478 75.018484 239.859076 74.616279 239.859076 74.196956 
C 239.859076 73.777633 239.692478 73.375428 239.395971 73.078922 
C 239.099465 72.782416 238.69726 72.615817 238.277938 72.615817 
C 237.858615 72.615817 237.45641 72.782416 237.159904 73.078922 
C 236.863397 73.375428 236.696799 73.777633 236.696799 74.196956 
C 236.696799 74.616279 236.863397 75.018484 237.159904 75.31499 
C 237.45641 75.611496 237.858615 75.778095 238.277938 75.778095 
z
" clip-path="url(#p80b9c7a3b6)" style="fill-opacity: 0.5"/>
   </g>
   <g id="PathCollection_27">
    <path d="M 280.517938 72.778853 
C 280.93726 72.778853 281.339465 72.612254 281.635971 72.315748 
C 281.932478 72.019242 282.099076 71.617037 282.099076 71.197714 
C 282.099076 70.778391 281.932478 70.376187 281.635971 70.07968 
C 281.339465 69.783174 280.93726 69.616576 280.517938 69.616576 
C 280.098615 69.616576 279.69641 69.783174 279.399904 70.07968 
C 279.103397 70.376187 278.936799 70.778391 278.936799 71.197714 
C 278.936799 71.617037 279.103397 72.019242 279.399904 72.315748 
C 279.69641 72.612254 280.098615 72.778853 280.517938 72.778853 
z
" clip-path="url(#p80b9c7a3b6)" style="fill-opacity: 0.5"/>
   </g>
   <g id="PathCollection_28">
    <path d="M 196.037938 80.291587 
C 196.45726 80.291587 196.859465 80.124988 197.155971 79.828482 
C 197.452478 79.531976 197.619076 79.129771 197.619076 78.710448 
C 197.619076 78.291125 197.452478 77.88892 197.155971 77.592414 
C 196.859465 77.295908 196.45726 77.129309 196.037938 77.129309 
C 195.618615 77.129309 195.21641 77.295908 194.919904 77.592414 
C 194.623397 77.88892 194.456799 78.291125 194.456799 78.710448 
C 194.456799 79.129771 194.623397 79.531976 194.919904 79.828482 
C 195.21641 80.124988 195.618615 80.291587 196.037938 80.291587 
z
" clip-path="url(#p80b9c7a3b6)" style="fill-opacity: 0.5"/>
   </g>
   <g id="PathCollection_29">
    <path d="M 238.277938 80.466671 
C 238.69726 80.466671 239.099465 80.300072 239.395971 80.003566 
C 239.692478 79.70706 239.859076 79.304855 239.859076 78.885532 
C 239.859076 78.466209 239.692478 78.064004 239.395971 77.767498 
C 239.099465 77.470992 238.69726 77.304393 238.277938 77.304393 
C 237.858615 77.304393 237.45641 77.470992 237.159904 77.767498 
C 236.863397 78.064004 236.696799 78.466209 236.696799 78.885532 
C 236.696799 79.304855 236.863397 79.70706 237.159904 80.003566 
C 237.45641 80.300072 237.858615 80.466671 238.277938 80.466671 
z
" clip-path="url(#p80b9c7a3b6)" style="fill-opacity: 0.5"/>
   </g>
   <g id="PathCollection_30">
    <path d="M 280.517938 70.378908 
C 280.93726 70.378908 281.339465 70.212309 281.635971 69.915803 
C 281.932478 69.619297 282.099076 69.217092 282.099076 68.797769 
C 282.099076 68.378446 281.932478 67.976241 281.635971 67.679735 
C 281.339465 67.383229 280.93726 67.21663 280.517938 67.21663 
C 280.098615 67.21663 279.69641 67.383229 279.399904 67.679735 
C 279.103397 67.976241 278.936799 68.378446 278.936799 68.797769 
C 278.936799 69.217092 279.103397 69.619297 279.399904 69.915803 
C 279.69641 70.212309 280.098615 70.378908 280.517938 70.378908 
z
" clip-path="url(#p80b9c7a3b6)" style="fill-opacity: 0.5"/>
   </g>
   <g id="PathCollection_31">
    <path d="M 196.037938 81.602645 
C 196.45726 81.602645 196.859465 81.436046 197.155971 81.13954 
C 197.452478 80.843034 197.619076 80.440829 197.619076 80.021506 
C 197.619076 79.602183 197.452478 79.199978 197.155971 78.903472 
C 196.859465 78.606966 196.45726 78.440367 196.037938 78.440367 
C 195.618615 78.440367 195.21641 78.606966 194.919904 78.903472 
C 194.623397 79.199978 194.456799 79.602183 194.456799 80.021506 
C 194.456799 80.440829 194.623397 80.843034 194.919904 81.13954 
C 195.21641 81.436046 195.618615 81.602645 196.037938 81.602645 
z
" clip-path="url(#p80b9c7a3b6)" style="fill-opacity: 0.5"/>
   </g>
   <g id="PathCollection_32">
    <path d="M 238.277938 63.981088 
C 238.69726 63.981088 239.099465 63.814489 239.395971 63.517983 
C 239.692478 63.221477 239.859076 62.819272 239.859076 62.399949 
C 239.859076 61.980626 239.692478 61.578421 239.395971 61.281915 
C 239.099465 60.985409 238.69726 60.81881 238.277938 60.81881 
C 237.858615 60.81881 237.45641 60.985409 237.159904 61.281915 
C 236.863397 61.578421 236.696799 61.980626 236.696799 62.399949 
C 236.696799 62.819272 236.863397 63.221477 237.159904 63.517983 
C 237.45641 63.814489 237.858615 63.981088 238.277938 63.981088 
z
" clip-path="url(#p80b9c7a3b6)" style="fill-opacity: 0.5"/>
   </g>
   <g id="PathCollection_33">
    <path d="M 280.517938 59.811411 
C 280.93726 59.811411 281.339465 59.644813 281.635971 59.348307 
C 281.932478 59.0518 282.099076 58.649595 282.099076 58.230273 
C 282.099076 57.81095 281.932478 57.408745 281.635971 57.112239 
C 281.339465 56.815732 280.93726 56.649134 280.517938 56.649134 
C 280.098615 56.649134 279.69641 56.815732 279.399904 57.112239 
C 279.103397 57.408745 278.936799 57.81095 278.936799 58.230273 
C 278.936799 58.649595 279.103397 59.0518 279.399904 59.348307 
C 279.69641 59.644813 280.098615 59.811411 280.517938 59.811411 
z
" clip-path="url(#p80b9c7a3b6)" style="fill-opacity: 0.5"/>
   </g>
   <g id="PathCollection_34">
    <path d="M 196.037938 71.878385 
C 196.45726 71.878385 196.859465 71.711786 197.155971 71.41528 
C 197.452478 71.118774 197.619076 70.716569 197.619076 70.297246 
C 197.619076 69.877923 197.452478 69.475718 197.155971 69.179212 
C 196.859465 68.882706 196.45726 68.716107 196.037938 68.716107 
C 195.618615 68.716107 195.21641 68.882706 194.919904 69.179212 
C 194.623397 69.475718 194.456799 69.877923 194.456799 70.297246 
C 194.456799 70.716569 194.623397 71.118774 194.919904 71.41528 
C 195.21641 71.711786 195.618615 71.878385 196.037938 71.878385 
z
" clip-path="url(#p80b9c7a3b6)" style="fill-opacity: 0.5"/>
   </g>
   <g id="PathCollection_35">
    <path d="M 238.277938 67.837379 
C 238.69726 67.837379 239.099465 67.67078 239.395971 67.374274 
C 239.692478 67.077768 239.859076 66.675563 239.859076 66.25624 
C 239.859076 65.836917 239.692478 65.434712 239.395971 65.138206 
C 239.099465 64.8417 238.69726 64.675101 238.277938 64.675101 
C 237.858615 64.675101 237.45641 64.8417 237.159904 65.138206 
C 236.863397 65.434712 236.696799 65.836917 236.696799 66.25624 
C 236.696799 66.675563 236.863397 67.077768 237.159904 67.374274 
C 237.45641 67.67078 237.858615 67.837379 238.277938 67.837379 
z
" clip-path="url(#p80b9c7a3b6)" style="fill-opacity: 0.5"/>
   </g>
   <g id="PathCollection_36">
    <path d="M 280.517938 59.926926 
C 280.93726 59.926926 281.339465 59.760327 281.635971 59.463821 
C 281.932478 59.167315 282.099076 58.76511 282.099076 58.345787 
C 282.099076 57.926464 281.932478 57.524259 281.635971 57.227753 
C 281.339465 56.931247 280.93726 56.764648 280.517938 56.764648 
C 280.098615 56.764648 279.69641 56.931247 279.399904 57.227753 
C 279.103397 57.524259 278.936799 57.926464 278.936799 58.345787 
C 278.936799 58.76511 279.103397 59.167315 279.399904 59.463821 
C 279.69641 59.760327 280.098615 59.926926 280.517938 59.926926 
z
" clip-path="url(#p80b9c7a3b6)" style="fill-opacity: 0.5"/>
   </g>
   <g id="text_12">
    <!-- Testing on Target -->
    <g style="fill: #262626" transform="translate(200.294344 14.479687) scale(0.1 -0.1)">
     <use xlink:href="#ArialMT-54"/>
     <use xlink:href="#ArialMT-65" x="49.958984"/>
     <use xlink:href="#ArialMT-73" x="105.574219"/>
     <use xlink:href="#ArialMT-74" x="155.574219"/>
     <use xlink:href="#ArialMT-69" x="183.357422"/>
     <use xlink:href="#ArialMT-6e" x="205.574219"/>
     <use xlink:href="#ArialMT-67" x="261.189453"/>
     <use xlink:href="#ArialMT-20" x="316.804688"/>
     <use xlink:href="#ArialMT-6f" x="344.587891"/>
     <use xlink:href="#ArialMT-6e" x="400.203125"/>
     <use xlink:href="#ArialMT-20" x="455.818359"/>
     <use xlink:href="#ArialMT-54" x="481.851562"/>
     <use xlink:href="#ArialMT-61" x="531.810547"/>
     <use xlink:href="#ArialMT-72" x="587.425781"/>
     <use xlink:href="#ArialMT-67" x="620.726562"/>
     <use xlink:href="#ArialMT-65" x="676.341797"/>
     <use xlink:href="#ArialMT-74" x="731.957031"/>
    </g>
   </g>
  </g>
 </g>
 <defs>
  <clipPath id="p51e33daa77">
   <rect x="35.525937" y="17.479687" width="126.72" height="65.52"/>
  </clipPath>
  <clipPath id="p80b9c7a3b6">
   <rect x="174.917938" y="17.479687" width="126.72" height="65.52"/>
  </clipPath>
 </defs>
</svg>
